<svg width="38" height="38" viewBox="0 0 38 38" fill="none" xmlns="http://www.w3.org/2000/svg">
<g opacity="0.5">
<path fill-rule="evenodd" clip-rule="evenodd" d="M8.31258 6.33341C7.21952 6.33341 6.33341 7.21952 6.33341 8.31258V22.2528C6.33341 23.3459 7.21952 24.232 8.31258 24.232H15.4376C16.0469 24.232 16.6022 24.5816 16.8655 25.1311L19.0591 29.7091L21.4681 25.0839C21.7408 24.5604 22.2821 24.232 22.8724 24.232H29.6876C30.7806 24.232 31.6667 23.3459 31.6667 22.2528V8.31258C31.6667 7.21952 30.7806 6.33341 29.6876 6.33341H8.31258ZM3.16675 8.31258C3.16675 5.47062 5.47061 3.16675 8.31258 3.16675H29.6876C32.5295 3.16675 34.8334 5.47062 34.8334 8.31258V22.2528C34.8334 25.0948 32.5295 27.3986 29.6876 27.3986H23.8329L20.4044 33.9815C20.1273 34.5134 19.5734 34.8432 18.9737 34.8332C18.374 34.8232 17.8314 34.4752 17.5722 33.9343L14.4405 27.3986H8.31258C5.47062 27.3986 3.16675 25.0948 3.16675 22.2528V8.31258ZM19.0001 8.5105C19.8745 8.5105 20.5834 9.21938 20.5834 10.0938V15.4376C20.5834 16.312 19.8745 17.0209 19.0001 17.0209C18.1256 17.0209 17.4167 16.312 17.4167 15.4376V10.0938C17.4167 9.21938 18.1256 8.5105 19.0001 8.5105ZM19.0001 19.0641C19.8745 19.0641 20.5834 19.7729 20.5834 20.6474V20.7813C20.5834 21.6558 19.8745 22.3647 19.0001 22.3647C18.1256 22.3647 17.4167 21.6558 17.4167 20.7813V20.6474C17.4167 19.7729 18.1256 19.0641 19.0001 19.0641Z" fill="#252525"/>
</g>
</svg>
