<svg xmlns="http://www.w3.org/2000/svg" width="133" height="49" viewBox="0 0 133 49" fill="none">
    <rect x="0.803711" y="0.489502" width="131.893" height="48" rx="8" fill="#090909"/>
    <path d="M31.0355 25.2173C31.0616 23.1894 32.1464 21.2704 33.8675 20.2082C32.7817 18.6516 30.9632 17.6646 29.0712 17.6052C27.0532 17.3925 25.0968 18.8174 24.0685 18.8174C23.0203 18.8174 21.437 17.6263 19.7321 17.6615C17.5098 17.7336 15.438 19.002 14.3568 20.9524C12.0327 24.992 13.7663 30.9289 15.9926 34.1942C17.1065 35.7931 18.4083 37.5792 20.1117 37.5158C21.7786 37.4464 22.4011 36.4488 24.4132 36.4488C26.4066 36.4488 26.9906 37.5158 28.7286 37.4755C30.5172 37.4464 31.6441 35.8695 32.7189 34.2554C33.5193 33.1162 34.1351 31.857 34.5437 30.5246C32.4417 29.6321 31.038 27.5085 31.0355 25.2173Z" fill="white"/>
    <path d="M27.7528 15.4577C28.728 14.2824 29.2085 12.7718 29.0922 11.2466C27.6022 11.4037 26.2259 12.1186 25.2375 13.2488C24.271 14.353 23.768 15.8371 23.8631 17.304C25.3536 17.3194 26.8188 16.6239 27.7528 15.4577Z" fill="white"/>
    <path d="M90.4877 23.1225V25.58H88.9533V27.1916H90.4877V32.6675C90.4877 34.5373 91.3303 35.2853 93.4501 35.2853C93.8226 35.2853 94.1773 35.2407 94.4878 35.1873V33.5935C94.2217 33.6202 94.0532 33.638 93.7605 33.638C92.8115 33.638 92.3946 33.1928 92.3946 32.1778V27.1916H94.4878V25.58H92.3946V23.1225H90.4877Z" fill="white"/>
    <path d="M99.8877 35.4188C102.708 35.4188 104.438 33.5223 104.438 30.3792C104.438 27.2539 102.699 25.3485 99.8877 25.3485C97.0673 25.3485 95.3289 27.2539 95.3289 30.3792C95.3289 33.5223 97.0584 35.4188 99.8877 35.4188ZM99.8877 33.7182C98.2292 33.7182 97.2979 32.4983 97.2979 30.3792C97.2979 28.2779 98.2292 27.0492 99.8877 27.0492C101.537 27.0492 102.478 28.2779 102.478 30.3792C102.478 32.4894 101.537 33.7182 99.8877 33.7182Z" fill="white"/>
    <path d="M105.917 35.2318H107.824V29.5066C107.824 28.1443 108.844 27.2272 110.29 27.2272C110.627 27.2272 111.195 27.2896 111.354 27.343V25.4554C111.15 25.4019 110.787 25.3752 110.503 25.3752C109.243 25.3752 108.17 26.0697 107.895 27.0224H107.753V25.5355H105.917V35.2318Z" fill="white"/>
    <path d="M116.089 26.9779C117.499 26.9779 118.422 27.9663 118.466 29.4888H113.588C113.694 27.9752 114.679 26.9779 116.089 26.9779ZM118.457 32.6141C118.102 33.3709 117.313 33.7894 116.16 33.7894C114.635 33.7894 113.65 32.712 113.588 31.0114V30.9045H120.408V30.2368C120.408 27.1916 118.785 25.3485 116.098 25.3485C113.375 25.3485 111.646 27.3163 111.646 30.4148C111.646 33.5134 113.34 35.4188 116.107 35.4188C118.315 35.4188 119.859 34.3504 120.293 32.6141H118.457Z" fill="white"/>
    <path d="M77.9826 31.6511C78.1297 34.0321 80.1061 35.5548 83.0478 35.5548C86.1917 35.5548 88.1589 33.9583 88.1589 31.4112C88.1589 29.4086 87.0374 28.3011 84.3164 27.6644L82.8547 27.3044C81.1265 26.8984 80.4278 26.3539 80.4278 25.4033C80.4278 24.2036 81.5126 23.4192 83.1397 23.4192C84.6841 23.4192 85.7504 24.1852 85.9435 25.4126H87.9475C87.828 23.17 85.8608 21.5919 83.1673 21.5919C80.2716 21.5919 78.3411 23.17 78.3411 25.5418C78.3411 27.4982 79.435 28.6611 81.8343 29.224L83.5442 29.6393C85.3 30.0546 86.0722 30.6637 86.0722 31.6788C86.0722 32.8601 84.8587 33.7183 83.2041 33.7183C81.4299 33.7183 80.198 32.9155 80.0234 31.6511H77.9826Z" fill="white"/>
    <path d="M58.2291 25.3752C56.9164 25.3752 55.7811 26.0341 55.1958 27.1382H55.0539V25.5355H53.2179V38.4551H55.1248V33.7627H55.2756C55.7811 34.7866 56.8721 35.3921 58.2468 35.3921C60.6859 35.3921 62.238 33.46 62.238 30.3792C62.238 27.2985 60.6859 25.3752 58.2291 25.3752ZM57.688 33.6737C56.0916 33.6737 55.0893 32.4093 55.0893 30.3881C55.0893 28.358 56.0916 27.0937 57.6969 27.0937C59.3111 27.0937 60.2779 28.3313 60.2779 30.3792C60.2779 32.436 59.3111 33.6737 57.688 33.6737Z" fill="white"/>
    <path d="M68.9105 25.3752C67.5979 25.3752 66.4626 26.0341 65.8772 27.1382H65.7353V25.5355H63.8994V38.4551H65.8063V33.7627H65.9571C66.4626 34.7866 67.5535 35.3921 68.9283 35.3921C71.3673 35.3921 72.9194 33.46 72.9194 30.3792C72.9194 27.2985 71.3673 25.3752 68.9105 25.3752ZM68.3695 33.6737C66.773 33.6737 65.7708 32.4093 65.7708 30.3881C65.7708 28.358 66.773 27.0937 68.3784 27.0937C69.9926 27.0937 70.9593 28.3313 70.9593 30.3792C70.9593 32.436 69.9926 33.6737 68.3695 33.6737Z" fill="white"/>
    <path d="M49.7966 35.2318H51.9845L47.1951 21.9149H44.9796L40.1902 35.2318H42.3045L43.5272 31.6973H48.5832L49.7966 35.2318ZM45.9816 24.3328H46.1379L48.0592 29.9623H44.0511L45.9816 24.3328Z" fill="white"/>
    <path d="M40.1375 12.5222V17.786H42.0306C43.5931 17.786 44.4978 16.8193 44.4978 15.1377C44.4978 13.4816 43.5858 12.5222 42.0306 12.5222H40.1375ZM40.9514 13.2663H41.9397C43.0262 13.2663 43.6694 13.9594 43.6694 15.1486C43.6694 16.3561 43.0371 17.0419 41.9397 17.0419H40.9514V13.2663Z" fill="white"/>
    <path d="M47.2689 17.8626C48.4244 17.8626 49.1329 17.0856 49.1329 15.7979C49.1329 14.5176 48.4207 13.7369 47.2689 13.7369C46.1134 13.7369 45.4012 14.5176 45.4012 15.7979C45.4012 17.0856 46.1097 17.8626 47.2689 17.8626ZM47.2689 17.1659C46.5894 17.1659 46.2078 16.6661 46.2078 15.7979C46.2078 14.9371 46.5894 14.4337 47.2689 14.4337C47.9447 14.4337 48.3299 14.9371 48.3299 15.7979C48.3299 16.6625 47.9447 17.1659 47.2689 17.1659Z" fill="white"/>
    <path d="M55.167 13.8135H54.3858L53.6808 16.8449H53.6191L52.8051 13.8135H52.0566L51.2426 16.8449H51.1845L50.4759 13.8135H49.6838L50.7739 17.786H51.5769L52.3909 14.8604H52.4527L53.2702 17.786H54.0805L55.167 13.8135Z" fill="white"/>
    <path d="M56.0667 17.786H56.8479V15.4623C56.8479 14.8422 57.2149 14.4555 57.7927 14.4555C58.3704 14.4555 58.6466 14.7729 58.6466 15.4113V17.786H59.4278V15.2143C59.4278 14.2695 58.9409 13.7369 58.0579 13.7369C57.462 13.7369 57.0696 14.0032 56.877 14.4446H56.8189V13.8135H56.0667V17.786Z" fill="white"/>
    <path d="M60.6582 17.786H61.4394V12.2632H60.6582V17.786Z" fill="white"/>
    <path d="M64.3776 17.8626C65.5331 17.8626 66.2417 17.0856 66.2417 15.7979C66.2417 14.5176 65.5295 13.7369 64.3776 13.7369C63.2221 13.7369 62.5099 14.5176 62.5099 15.7979C62.5099 17.0856 63.2185 17.8626 64.3776 17.8626ZM64.3776 17.1659C63.6981 17.1659 63.3166 16.6661 63.3166 15.7979C63.3166 14.9371 63.6981 14.4337 64.3776 14.4337C65.0535 14.4337 65.4386 14.9371 65.4386 15.7979C65.4386 16.6625 65.0535 17.1659 64.3776 17.1659Z" fill="white"/>
    <path d="M68.5694 17.1914C68.1443 17.1914 67.8354 16.9835 67.8354 16.626C67.8354 16.2758 68.0825 16.0898 68.6275 16.0533L69.5941 15.9913V16.3232C69.5941 16.8157 69.158 17.1914 68.5694 17.1914ZM68.3695 17.8517C68.8892 17.8517 69.3216 17.6255 69.5577 17.2279H69.6195V17.786H70.3717V15.072C70.3717 14.233 69.8121 13.7369 68.8201 13.7369C67.9226 13.7369 67.2831 14.1747 67.2031 14.8568H67.9589C68.0461 14.5759 68.3477 14.4154 68.7838 14.4154C69.3179 14.4154 69.5941 14.6525 69.5941 15.072V15.4149L68.5222 15.4769C67.581 15.5353 67.0505 15.9475 67.0505 16.6625C67.0505 17.3884 67.6065 17.8517 68.3695 17.8517Z" fill="white"/>
    <path d="M73.0228 17.8517C73.5679 17.8517 74.0293 17.5927 74.2655 17.1586H74.3273V17.786H75.0758V12.2632H74.2946V14.4446H74.2364C74.0221 14.0069 73.5642 13.7479 73.0228 13.7479C72.0235 13.7479 71.3804 14.5431 71.3804 15.7979C71.3804 17.0564 72.0163 17.8517 73.0228 17.8517ZM73.2445 14.4519C73.8985 14.4519 74.3091 14.9735 74.3091 15.8016C74.3091 16.6333 73.9021 17.1476 73.2445 17.1476C72.5831 17.1476 72.1871 16.6406 72.1871 15.7979C72.1871 14.9626 72.5868 14.4519 73.2445 14.4519Z" fill="white"/>
    <path d="M80.1419 17.8626C81.2974 17.8626 82.0059 17.0856 82.0059 15.7979C82.0059 14.5176 81.2937 13.7369 80.1419 13.7369C78.9864 13.7369 78.2742 14.5176 78.2742 15.7979C78.2742 17.0856 78.9827 17.8626 80.1419 17.8626ZM80.1419 17.1659C79.4624 17.1659 79.0808 16.6661 79.0808 15.7979C79.0808 14.9371 79.4624 14.4337 80.1419 14.4337C80.8177 14.4337 81.2029 14.9371 81.2029 15.7979C81.2029 16.6625 80.8177 17.1659 80.1419 17.1659Z" fill="white"/>
    <path d="M83.0401 17.786H83.8213V15.4623C83.8213 14.8422 84.1883 14.4555 84.7661 14.4555C85.3438 14.4555 85.62 14.7729 85.62 15.4113V17.786H86.4012V15.2143C86.4012 14.2695 85.9143 13.7369 85.0313 13.7369C84.4354 13.7369 84.043 14.0032 83.8504 14.4446H83.7923V13.8135H83.0401V17.786Z" fill="white"/>
    <path d="M89.9993 12.825V13.8318H89.3706V14.492H89.9993V16.7354C89.9993 17.5015 90.3445 17.8079 91.2129 17.8079C91.3655 17.8079 91.5109 17.7897 91.6381 17.7678V17.1148C91.529 17.1258 91.46 17.1331 91.3401 17.1331C90.9513 17.1331 90.7805 16.9507 90.7805 16.5348V14.492H91.6381V13.8318H90.7805V12.825H89.9993Z" fill="white"/>
    <path d="M92.6867 17.786H93.468V15.466C93.468 14.8641 93.8241 14.4592 94.4636 14.4592C95.0159 14.4592 95.3102 14.7802 95.3102 15.4149V17.786H96.0915V15.2216C96.0915 14.2768 95.5718 13.7406 94.7288 13.7406C94.1329 13.7406 93.715 14.0069 93.5225 14.4519H93.4607V12.2632H92.6867V17.786Z" fill="white"/>
    <path d="M98.9097 14.4045C99.4875 14.4045 99.8654 14.8094 99.8835 15.4332H97.885C97.9286 14.813 98.332 14.4045 98.9097 14.4045ZM99.8799 16.7136C99.7346 17.0236 99.4112 17.1951 98.9388 17.1951C98.3138 17.1951 97.9105 16.7537 97.885 16.0569V16.0132H100.679V15.7396C100.679 14.492 100.014 13.7369 98.9134 13.7369C97.7978 13.7369 97.0893 14.5431 97.0893 15.8125C97.0893 17.082 97.7833 17.8626 98.917 17.8626C99.8218 17.8626 100.454 17.4249 100.632 16.7136H99.8799Z" fill="white"/>
</svg>