<svg width="45" height="39" viewBox="0 0 45 39" fill="none" xmlns="http://www.w3.org/2000/svg">
<mask id="path-1-outside-1_173_42922" maskUnits="userSpaceOnUse" x="1.5" y="1.87192" width="42" height="35" fill="black">
<rect fill="white" x="1.5" y="1.87192" width="42" height="35"/>
<path d="M2.50081 17.4677C2.53464 16.8011 2.59948 16.1475 2.68084 15.4922C2.79602 14.5687 3.02599 13.6778 3.29544 12.7941C3.46298 12.2436 3.69537 11.7164 3.93058 11.19C4.33937 10.2749 4.85489 9.42029 5.45137 8.62405C6.06758 7.80122 6.78045 7.05976 7.56984 6.38877C8.41482 5.67026 9.32947 5.07097 10.3021 4.54256C10.9373 4.1974 11.5966 3.905 12.2712 3.67261C13.0465 3.40559 13.8483 3.21065 14.6639 3.06808C15.6841 2.88926 16.7063 2.84657 17.7329 2.88483C18.3882 2.90899 19.0394 2.9827 19.6907 3.09869C20.4386 3.232 21.1684 3.42291 21.882 3.66133C22.5458 3.88325 23.1886 4.17122 23.8128 4.50148C24.4673 4.84784 25.0936 5.2373 25.6925 5.66664C26.1129 5.9679 26.5234 6.28969 26.883 6.66586C27.1375 6.93168 27.3905 7.10043 27.8073 7.0956C28.7123 7.08594 29.6177 7.13547 30.5182 7.2857C31.0491 7.37431 31.5662 7.48305 32.0717 7.66066C32.3105 7.74484 32.4909 7.87613 32.625 8.10691C33.0963 8.91805 33.7685 9.525 34.6493 9.8464C35.0581 9.99542 35.4934 10.1404 35.9506 10.0872C36.2486 10.0526 36.4045 10.2435 36.5398 10.4574C36.6663 10.6571 36.5893 10.8307 36.4822 11.0269C36.0122 11.8875 35.7967 12.7885 36.0319 13.7777C36.2699 14.7769 36.7665 15.5796 37.6192 16.1656C38.0755 16.4793 38.5713 16.6569 39.1138 16.7379C39.6756 16.8217 39.7908 16.9401 39.9132 17.4963C40.0333 18.0424 40.339 18.4766 40.7232 18.8693C41.1292 19.2841 41.604 19.5817 42.1441 19.7903C42.3157 19.8564 42.4188 20.036 42.4345 20.2124C42.5211 21.1879 42.5315 22.1622 42.4067 23.138C42.2983 23.9826 42.1421 24.8179 41.9105 25.6343C41.784 26.0805 41.6342 26.5256 41.4489 26.9565C41.2089 27.5151 40.958 28.0657 40.6648 28.6001C40.2161 29.4173 39.6962 30.1838 39.0981 30.895C38.3598 31.7726 37.533 32.5608 36.6034 33.2362C35.8519 33.7824 35.0649 34.2685 34.2244 34.6692C33.7181 34.9105 33.2054 35.138 32.6746 35.3112C31.8457 35.5823 31.004 35.7973 30.136 35.9331C29.2673 36.0692 28.4026 36.1368 27.5262 36.1272C26.9325 36.1207 26.3534 36.0023 25.767 35.9439C25.1097 35.8783 24.4806 35.6999 23.8515 35.5359C23.3903 35.4159 22.932 35.25 22.4874 35.0579C22.0532 34.8702 21.6158 34.6869 21.2014 34.463C20.7241 34.2048 20.265 33.9116 19.8107 33.6136C19.1228 33.1617 18.4925 32.6353 17.9024 32.0614C17.7848 31.947 17.6697 31.8882 17.4985 31.893C16.6148 31.9172 15.7417 31.8322 14.8637 31.7106C14.0256 31.5946 13.2084 31.4029 12.4154 31.1451C11.5933 30.8781 10.7979 30.5213 10.0323 30.1024C9.22717 29.6618 8.47966 29.1406 7.76316 28.5756C7.23677 28.1607 6.77118 27.6762 6.30681 27.1913C5.82593 26.6899 5.40666 26.1421 5.00633 25.5779C4.53873 24.919 4.14162 24.217 3.81418 23.4808C3.44526 22.6515 3.14239 21.7956 2.93497 20.9092C2.66956 19.775 2.53141 18.6244 2.5 17.4685L2.50081 17.4677ZM27.8577 34.8291C28.575 34.8492 29.2798 34.8162 29.9862 34.6922C30.6487 34.5758 31.3084 34.4473 31.9424 34.2363C32.381 34.0901 32.8168 33.9213 33.2449 33.7332C34.1172 33.3502 34.93 32.8758 35.6972 32.3163C36.0972 32.0247 36.4741 31.7082 36.8402 31.3735C37.3723 30.8878 37.8636 30.3686 38.3127 29.8072C38.6603 29.373 38.9615 28.9074 39.2632 28.4403C39.6631 27.8208 39.995 27.1615 40.2548 26.4821C40.5987 25.5827 40.8621 24.6564 41.024 23.6934C41.1819 22.7542 41.2 21.8214 41.2069 20.8806C41.2077 20.7626 41.167 20.7006 41.0663 20.6381C40.7868 20.4646 40.496 20.3123 40.2375 20.1009C39.5886 19.5696 39.0977 18.9285 38.759 18.162C38.701 18.0307 38.6832 17.8132 38.5318 17.7883C38.1564 17.7266 37.8274 17.5615 37.4855 17.4181C36.7641 17.1153 36.1834 16.6231 35.7101 16.0226C35.2272 15.4104 34.8921 14.7145 34.7206 13.9384C34.5232 13.0455 34.5595 12.1763 34.868 11.3197C34.9151 11.1888 34.9014 11.1513 34.7649 11.1078C34.3375 10.9725 33.9074 10.8537 33.5067 10.6318C32.7559 10.2165 32.1417 9.66596 31.6842 8.94464C31.6226 8.84757 31.5582 8.79159 31.4599 8.75736C30.9593 8.58458 30.4377 8.51651 29.919 8.42066C28.7594 8.20599 27.6031 8.16853 26.44 8.33648C25.8077 8.4279 25.1693 8.49637 24.5571 8.69171C24.0976 8.83831 23.6344 8.9692 23.1813 9.14279C22.5937 9.36833 22.0262 9.63213 21.4821 9.93702C20.7398 10.3527 20.0423 10.8396 19.387 11.3889C18.3733 12.2387 17.5077 13.2158 16.78 14.3173C16.4207 14.8611 16.1187 15.4354 15.8303 16.0194C15.5701 16.5462 15.3615 17.0943 15.1871 17.6497C14.9974 18.2542 14.8427 18.8737 14.769 19.5088C14.7259 19.8818 14.6132 20.2519 14.6108 20.624C14.6047 21.6152 14.5548 22.6068 14.7445 23.5955C14.8725 24.2629 14.9905 24.9339 15.1976 25.5775C15.4223 26.2759 15.7107 26.9529 16.0502 27.6094C16.5371 28.5518 17.1163 29.429 17.8058 30.2305C18.3418 30.8535 18.9266 31.4331 19.5779 31.939C20.1832 32.4094 20.816 32.8363 21.4877 33.2125C22.0596 33.5326 22.6505 33.811 23.2603 34.0309C24.015 34.3031 24.7883 34.5174 25.5902 34.6511C26.3477 34.7776 27.0985 34.8561 27.8577 34.8299V34.8291ZM25.5165 7.21965C25.4601 7.03237 25.3328 6.96108 25.2221 6.87449C24.6566 6.43066 24.0625 6.0271 23.4338 5.68073C22.99 5.43626 22.526 5.22482 22.0596 5.02546C21.6625 4.8559 21.2566 4.69681 20.8409 4.58243C20.2195 4.41086 19.5924 4.26305 18.9488 4.17605C18.0885 4.05966 17.2327 3.95212 16.3635 4.03509C15.6329 4.10517 14.9064 4.19337 14.1867 4.35004C13.9261 4.40683 13.6812 4.50107 13.4259 4.56149C12.8129 4.70607 12.2317 4.93766 11.6606 5.19219C11.139 5.42499 10.6388 5.70127 10.1462 5.99488C9.37135 6.45643 8.66009 6.99612 7.99958 7.60669C7.57186 8.0022 7.16387 8.41784 6.80018 8.87295C6.36924 9.41263 5.9685 9.97407 5.62213 10.5746C5.34303 11.0583 5.11265 11.5629 4.87301 12.0656C4.66318 12.5062 4.51577 12.9657 4.36031 13.4208C4.15169 14.0314 4.02804 14.6673 3.94628 15.3113C3.8903 15.7528 3.80733 16.1918 3.78156 16.6356C3.70624 17.9421 3.86694 19.2325 4.15974 20.4992C4.36917 21.4054 4.69983 22.2826 5.11869 23.1163C5.5299 23.9347 5.99428 24.7253 6.57142 25.4418C6.8763 25.8203 7.16427 26.2183 7.50862 26.5574C7.84814 26.8921 8.19773 27.2211 8.56585 27.5292C9.03223 27.9195 9.52198 28.2731 10.0351 28.5949C10.5132 28.8946 11.0146 29.1523 11.5212 29.4028C11.8938 29.5873 12.2796 29.7428 12.6683 29.8712C13.4166 30.1181 14.1742 30.3437 14.9648 30.4363C15.4223 30.4899 15.8722 30.6091 16.3369 30.603C16.3909 30.6022 16.4715 30.6357 16.492 30.5591C16.5025 30.5201 16.4743 30.452 16.4409 30.423C16.26 30.2647 16.1609 30.0456 16.0147 29.8612C15.6035 29.3424 15.2866 28.7592 14.9845 28.176C14.7497 27.7225 14.5495 27.2457 14.3655 26.764C14.1899 26.3045 14.0123 25.8433 13.8963 25.3697C13.7207 24.6528 13.5567 23.9326 13.4996 23.1876C13.446 22.4864 13.3731 21.7892 13.4045 21.0844C13.4238 20.6474 13.4895 20.2148 13.5161 19.7803C13.562 19.0376 13.7501 18.3247 13.9353 17.6127C14.061 17.1302 14.2402 16.663 14.4259 16.197C14.6667 15.5929 14.947 15.0129 15.2568 14.443C15.6076 13.7978 16.0405 13.2094 16.4731 12.6193C16.9072 12.0273 17.424 11.5065 17.9415 10.9942C18.3902 10.5504 18.8948 10.1577 19.4099 9.78598C20.0201 9.34578 20.6585 8.94866 21.327 8.60592C21.9513 8.28573 22.6014 8.01951 23.2655 7.79075C23.5933 7.67798 23.9288 7.59058 24.2635 7.49996C24.6719 7.38961 25.0839 7.29819 25.5169 7.21925L25.5165 7.21965Z"/>
</mask>
<path d="M2.50081 17.4677C2.53464 16.8011 2.59948 16.1475 2.68084 15.4922C2.79602 14.5687 3.02599 13.6778 3.29544 12.7941C3.46298 12.2436 3.69537 11.7164 3.93058 11.19C4.33937 10.2749 4.85489 9.42029 5.45137 8.62405C6.06758 7.80122 6.78045 7.05976 7.56984 6.38877C8.41482 5.67026 9.32947 5.07097 10.3021 4.54256C10.9373 4.1974 11.5966 3.905 12.2712 3.67261C13.0465 3.40559 13.8483 3.21065 14.6639 3.06808C15.6841 2.88926 16.7063 2.84657 17.7329 2.88483C18.3882 2.90899 19.0394 2.9827 19.6907 3.09869C20.4386 3.232 21.1684 3.42291 21.882 3.66133C22.5458 3.88325 23.1886 4.17122 23.8128 4.50148C24.4673 4.84784 25.0936 5.2373 25.6925 5.66664C26.1129 5.9679 26.5234 6.28969 26.883 6.66586C27.1375 6.93168 27.3905 7.10043 27.8073 7.0956C28.7123 7.08594 29.6177 7.13547 30.5182 7.2857C31.0491 7.37431 31.5662 7.48305 32.0717 7.66066C32.3105 7.74484 32.4909 7.87613 32.625 8.10691C33.0963 8.91805 33.7685 9.525 34.6493 9.8464C35.0581 9.99542 35.4934 10.1404 35.9506 10.0872C36.2486 10.0526 36.4045 10.2435 36.5398 10.4574C36.6663 10.6571 36.5893 10.8307 36.4822 11.0269C36.0122 11.8875 35.7967 12.7885 36.0319 13.7777C36.2699 14.7769 36.7665 15.5796 37.6192 16.1656C38.0755 16.4793 38.5713 16.6569 39.1138 16.7379C39.6756 16.8217 39.7908 16.9401 39.9132 17.4963C40.0333 18.0424 40.339 18.4766 40.7232 18.8693C41.1292 19.2841 41.604 19.5817 42.1441 19.7903C42.3157 19.8564 42.4188 20.036 42.4345 20.2124C42.5211 21.1879 42.5315 22.1622 42.4067 23.138C42.2983 23.9826 42.1421 24.8179 41.9105 25.6343C41.784 26.0805 41.6342 26.5256 41.4489 26.9565C41.2089 27.5151 40.958 28.0657 40.6648 28.6001C40.2161 29.4173 39.6962 30.1838 39.0981 30.895C38.3598 31.7726 37.533 32.5608 36.6034 33.2362C35.8519 33.7824 35.0649 34.2685 34.2244 34.6692C33.7181 34.9105 33.2054 35.138 32.6746 35.3112C31.8457 35.5823 31.004 35.7973 30.136 35.9331C29.2673 36.0692 28.4026 36.1368 27.5262 36.1272C26.9325 36.1207 26.3534 36.0023 25.767 35.9439C25.1097 35.8783 24.4806 35.6999 23.8515 35.5359C23.3903 35.4159 22.932 35.25 22.4874 35.0579C22.0532 34.8702 21.6158 34.6869 21.2014 34.463C20.7241 34.2048 20.265 33.9116 19.8107 33.6136C19.1228 33.1617 18.4925 32.6353 17.9024 32.0614C17.7848 31.947 17.6697 31.8882 17.4985 31.893C16.6148 31.9172 15.7417 31.8322 14.8637 31.7106C14.0256 31.5946 13.2084 31.4029 12.4154 31.1451C11.5933 30.8781 10.7979 30.5213 10.0323 30.1024C9.22717 29.6618 8.47966 29.1406 7.76316 28.5756C7.23677 28.1607 6.77118 27.6762 6.30681 27.1913C5.82593 26.6899 5.40666 26.1421 5.00633 25.5779C4.53873 24.919 4.14162 24.217 3.81418 23.4808C3.44526 22.6515 3.14239 21.7956 2.93497 20.9092C2.66956 19.775 2.53141 18.6244 2.5 17.4685L2.50081 17.4677ZM27.8577 34.8291C28.575 34.8492 29.2798 34.8162 29.9862 34.6922C30.6487 34.5758 31.3084 34.4473 31.9424 34.2363C32.381 34.0901 32.8168 33.9213 33.2449 33.7332C34.1172 33.3502 34.93 32.8758 35.6972 32.3163C36.0972 32.0247 36.4741 31.7082 36.8402 31.3735C37.3723 30.8878 37.8636 30.3686 38.3127 29.8072C38.6603 29.373 38.9615 28.9074 39.2632 28.4403C39.6631 27.8208 39.995 27.1615 40.2548 26.4821C40.5987 25.5827 40.8621 24.6564 41.024 23.6934C41.1819 22.7542 41.2 21.8214 41.2069 20.8806C41.2077 20.7626 41.167 20.7006 41.0663 20.6381C40.7868 20.4646 40.496 20.3123 40.2375 20.1009C39.5886 19.5696 39.0977 18.9285 38.759 18.162C38.701 18.0307 38.6832 17.8132 38.5318 17.7883C38.1564 17.7266 37.8274 17.5615 37.4855 17.4181C36.7641 17.1153 36.1834 16.6231 35.7101 16.0226C35.2272 15.4104 34.8921 14.7145 34.7206 13.9384C34.5232 13.0455 34.5595 12.1763 34.868 11.3197C34.9151 11.1888 34.9014 11.1513 34.7649 11.1078C34.3375 10.9725 33.9074 10.8537 33.5067 10.6318C32.7559 10.2165 32.1417 9.66596 31.6842 8.94464C31.6226 8.84757 31.5582 8.79159 31.4599 8.75736C30.9593 8.58458 30.4377 8.51651 29.919 8.42066C28.7594 8.20599 27.6031 8.16853 26.44 8.33648C25.8077 8.4279 25.1693 8.49637 24.5571 8.69171C24.0976 8.83831 23.6344 8.9692 23.1813 9.14279C22.5937 9.36833 22.0262 9.63213 21.4821 9.93702C20.7398 10.3527 20.0423 10.8396 19.387 11.3889C18.3733 12.2387 17.5077 13.2158 16.78 14.3173C16.4207 14.8611 16.1187 15.4354 15.8303 16.0194C15.5701 16.5462 15.3615 17.0943 15.1871 17.6497C14.9974 18.2542 14.8427 18.8737 14.769 19.5088C14.7259 19.8818 14.6132 20.2519 14.6108 20.624C14.6047 21.6152 14.5548 22.6068 14.7445 23.5955C14.8725 24.2629 14.9905 24.9339 15.1976 25.5775C15.4223 26.2759 15.7107 26.9529 16.0502 27.6094C16.5371 28.5518 17.1163 29.429 17.8058 30.2305C18.3418 30.8535 18.9266 31.4331 19.5779 31.939C20.1832 32.4094 20.816 32.8363 21.4877 33.2125C22.0596 33.5326 22.6505 33.811 23.2603 34.0309C24.015 34.3031 24.7883 34.5174 25.5902 34.6511C26.3477 34.7776 27.0985 34.8561 27.8577 34.8299V34.8291ZM25.5165 7.21965C25.4601 7.03237 25.3328 6.96108 25.2221 6.87449C24.6566 6.43066 24.0625 6.0271 23.4338 5.68073C22.99 5.43626 22.526 5.22482 22.0596 5.02546C21.6625 4.8559 21.2566 4.69681 20.8409 4.58243C20.2195 4.41086 19.5924 4.26305 18.9488 4.17605C18.0885 4.05966 17.2327 3.95212 16.3635 4.03509C15.6329 4.10517 14.9064 4.19337 14.1867 4.35004C13.9261 4.40683 13.6812 4.50107 13.4259 4.56149C12.8129 4.70607 12.2317 4.93766 11.6606 5.19219C11.139 5.42499 10.6388 5.70127 10.1462 5.99488C9.37135 6.45643 8.66009 6.99612 7.99958 7.60669C7.57186 8.0022 7.16387 8.41784 6.80018 8.87295C6.36924 9.41263 5.9685 9.97407 5.62213 10.5746C5.34303 11.0583 5.11265 11.5629 4.87301 12.0656C4.66318 12.5062 4.51577 12.9657 4.36031 13.4208C4.15169 14.0314 4.02804 14.6673 3.94628 15.3113C3.8903 15.7528 3.80733 16.1918 3.78156 16.6356C3.70624 17.9421 3.86694 19.2325 4.15974 20.4992C4.36917 21.4054 4.69983 22.2826 5.11869 23.1163C5.5299 23.9347 5.99428 24.7253 6.57142 25.4418C6.8763 25.8203 7.16427 26.2183 7.50862 26.5574C7.84814 26.8921 8.19773 27.2211 8.56585 27.5292C9.03223 27.9195 9.52198 28.2731 10.0351 28.5949C10.5132 28.8946 11.0146 29.1523 11.5212 29.4028C11.8938 29.5873 12.2796 29.7428 12.6683 29.8712C13.4166 30.1181 14.1742 30.3437 14.9648 30.4363C15.4223 30.4899 15.8722 30.6091 16.3369 30.603C16.3909 30.6022 16.4715 30.6357 16.492 30.5591C16.5025 30.5201 16.4743 30.452 16.4409 30.423C16.26 30.2647 16.1609 30.0456 16.0147 29.8612C15.6035 29.3424 15.2866 28.7592 14.9845 28.176C14.7497 27.7225 14.5495 27.2457 14.3655 26.764C14.1899 26.3045 14.0123 25.8433 13.8963 25.3697C13.7207 24.6528 13.5567 23.9326 13.4996 23.1876C13.446 22.4864 13.3731 21.7892 13.4045 21.0844C13.4238 20.6474 13.4895 20.2148 13.5161 19.7803C13.562 19.0376 13.7501 18.3247 13.9353 17.6127C14.061 17.1302 14.2402 16.663 14.4259 16.197C14.6667 15.5929 14.947 15.0129 15.2568 14.443C15.6076 13.7978 16.0405 13.2094 16.4731 12.6193C16.9072 12.0273 17.424 11.5065 17.9415 10.9942C18.3902 10.5504 18.8948 10.1577 19.4099 9.78598C20.0201 9.34578 20.6585 8.94866 21.327 8.60592C21.9513 8.28573 22.6014 8.01951 23.2655 7.79075C23.5933 7.67798 23.9288 7.59058 24.2635 7.49996C24.6719 7.38961 25.0839 7.29819 25.5169 7.21925L25.5165 7.21965Z" fill="#0583F2"/>
<path d="M2.50081 17.4677C2.53464 16.8011 2.59948 16.1475 2.68084 15.4922C2.79602 14.5687 3.02599 13.6778 3.29544 12.7941C3.46298 12.2436 3.69537 11.7164 3.93058 11.19C4.33937 10.2749 4.85489 9.42029 5.45137 8.62405C6.06758 7.80122 6.78045 7.05976 7.56984 6.38877C8.41482 5.67026 9.32947 5.07097 10.3021 4.54256C10.9373 4.1974 11.5966 3.905 12.2712 3.67261C13.0465 3.40559 13.8483 3.21065 14.6639 3.06808C15.6841 2.88926 16.7063 2.84657 17.7329 2.88483C18.3882 2.90899 19.0394 2.9827 19.6907 3.09869C20.4386 3.232 21.1684 3.42291 21.882 3.66133C22.5458 3.88325 23.1886 4.17122 23.8128 4.50148C24.4673 4.84784 25.0936 5.2373 25.6925 5.66664C26.1129 5.9679 26.5234 6.28969 26.883 6.66586C27.1375 6.93168 27.3905 7.10043 27.8073 7.0956C28.7123 7.08594 29.6177 7.13547 30.5182 7.2857C31.0491 7.37431 31.5662 7.48305 32.0717 7.66066C32.3105 7.74484 32.4909 7.87613 32.625 8.10691C33.0963 8.91805 33.7685 9.525 34.6493 9.8464C35.0581 9.99542 35.4934 10.1404 35.9506 10.0872C36.2486 10.0526 36.4045 10.2435 36.5398 10.4574C36.6663 10.6571 36.5893 10.8307 36.4822 11.0269C36.0122 11.8875 35.7967 12.7885 36.0319 13.7777C36.2699 14.7769 36.7665 15.5796 37.6192 16.1656C38.0755 16.4793 38.5713 16.6569 39.1138 16.7379C39.6756 16.8217 39.7908 16.9401 39.9132 17.4963C40.0333 18.0424 40.339 18.4766 40.7232 18.8693C41.1292 19.2841 41.604 19.5817 42.1441 19.7903C42.3157 19.8564 42.4188 20.036 42.4345 20.2124C42.5211 21.1879 42.5315 22.1622 42.4067 23.138C42.2983 23.9826 42.1421 24.8179 41.9105 25.6343C41.784 26.0805 41.6342 26.5256 41.4489 26.9565C41.2089 27.5151 40.958 28.0657 40.6648 28.6001C40.2161 29.4173 39.6962 30.1838 39.0981 30.895C38.3598 31.7726 37.533 32.5608 36.6034 33.2362C35.8519 33.7824 35.0649 34.2685 34.2244 34.6692C33.7181 34.9105 33.2054 35.138 32.6746 35.3112C31.8457 35.5823 31.004 35.7973 30.136 35.9331C29.2673 36.0692 28.4026 36.1368 27.5262 36.1272C26.9325 36.1207 26.3534 36.0023 25.767 35.9439C25.1097 35.8783 24.4806 35.6999 23.8515 35.5359C23.3903 35.4159 22.932 35.25 22.4874 35.0579C22.0532 34.8702 21.6158 34.6869 21.2014 34.463C20.7241 34.2048 20.265 33.9116 19.8107 33.6136C19.1228 33.1617 18.4925 32.6353 17.9024 32.0614C17.7848 31.947 17.6697 31.8882 17.4985 31.893C16.6148 31.9172 15.7417 31.8322 14.8637 31.7106C14.0256 31.5946 13.2084 31.4029 12.4154 31.1451C11.5933 30.8781 10.7979 30.5213 10.0323 30.1024C9.22717 29.6618 8.47966 29.1406 7.76316 28.5756C7.23677 28.1607 6.77118 27.6762 6.30681 27.1913C5.82593 26.6899 5.40666 26.1421 5.00633 25.5779C4.53873 24.919 4.14162 24.217 3.81418 23.4808C3.44526 22.6515 3.14239 21.7956 2.93497 20.9092C2.66956 19.775 2.53141 18.6244 2.5 17.4685L2.50081 17.4677ZM27.8577 34.8291C28.575 34.8492 29.2798 34.8162 29.9862 34.6922C30.6487 34.5758 31.3084 34.4473 31.9424 34.2363C32.381 34.0901 32.8168 33.9213 33.2449 33.7332C34.1172 33.3502 34.93 32.8758 35.6972 32.3163C36.0972 32.0247 36.4741 31.7082 36.8402 31.3735C37.3723 30.8878 37.8636 30.3686 38.3127 29.8072C38.6603 29.373 38.9615 28.9074 39.2632 28.4403C39.6631 27.8208 39.995 27.1615 40.2548 26.4821C40.5987 25.5827 40.8621 24.6564 41.024 23.6934C41.1819 22.7542 41.2 21.8214 41.2069 20.8806C41.2077 20.7626 41.167 20.7006 41.0663 20.6381C40.7868 20.4646 40.496 20.3123 40.2375 20.1009C39.5886 19.5696 39.0977 18.9285 38.759 18.162C38.701 18.0307 38.6832 17.8132 38.5318 17.7883C38.1564 17.7266 37.8274 17.5615 37.4855 17.4181C36.7641 17.1153 36.1834 16.6231 35.7101 16.0226C35.2272 15.4104 34.8921 14.7145 34.7206 13.9384C34.5232 13.0455 34.5595 12.1763 34.868 11.3197C34.9151 11.1888 34.9014 11.1513 34.7649 11.1078C34.3375 10.9725 33.9074 10.8537 33.5067 10.6318C32.7559 10.2165 32.1417 9.66596 31.6842 8.94464C31.6226 8.84757 31.5582 8.79159 31.4599 8.75736C30.9593 8.58458 30.4377 8.51651 29.919 8.42066C28.7594 8.20599 27.6031 8.16853 26.44 8.33648C25.8077 8.4279 25.1693 8.49637 24.5571 8.69171C24.0976 8.83831 23.6344 8.9692 23.1813 9.14279C22.5937 9.36833 22.0262 9.63213 21.4821 9.93702C20.7398 10.3527 20.0423 10.8396 19.387 11.3889C18.3733 12.2387 17.5077 13.2158 16.78 14.3173C16.4207 14.8611 16.1187 15.4354 15.8303 16.0194C15.5701 16.5462 15.3615 17.0943 15.1871 17.6497C14.9974 18.2542 14.8427 18.8737 14.769 19.5088C14.7259 19.8818 14.6132 20.2519 14.6108 20.624C14.6047 21.6152 14.5548 22.6068 14.7445 23.5955C14.8725 24.2629 14.9905 24.9339 15.1976 25.5775C15.4223 26.2759 15.7107 26.9529 16.0502 27.6094C16.5371 28.5518 17.1163 29.429 17.8058 30.2305C18.3418 30.8535 18.9266 31.4331 19.5779 31.939C20.1832 32.4094 20.816 32.8363 21.4877 33.2125C22.0596 33.5326 22.6505 33.811 23.2603 34.0309C24.015 34.3031 24.7883 34.5174 25.5902 34.6511C26.3477 34.7776 27.0985 34.8561 27.8577 34.8299V34.8291ZM25.5165 7.21965C25.4601 7.03237 25.3328 6.96108 25.2221 6.87449C24.6566 6.43066 24.0625 6.0271 23.4338 5.68073C22.99 5.43626 22.526 5.22482 22.0596 5.02546C21.6625 4.8559 21.2566 4.69681 20.8409 4.58243C20.2195 4.41086 19.5924 4.26305 18.9488 4.17605C18.0885 4.05966 17.2327 3.95212 16.3635 4.03509C15.6329 4.10517 14.9064 4.19337 14.1867 4.35004C13.9261 4.40683 13.6812 4.50107 13.4259 4.56149C12.8129 4.70607 12.2317 4.93766 11.6606 5.19219C11.139 5.42499 10.6388 5.70127 10.1462 5.99488C9.37135 6.45643 8.66009 6.99612 7.99958 7.60669C7.57186 8.0022 7.16387 8.41784 6.80018 8.87295C6.36924 9.41263 5.9685 9.97407 5.62213 10.5746C5.34303 11.0583 5.11265 11.5629 4.87301 12.0656C4.66318 12.5062 4.51577 12.9657 4.36031 13.4208C4.15169 14.0314 4.02804 14.6673 3.94628 15.3113C3.8903 15.7528 3.80733 16.1918 3.78156 16.6356C3.70624 17.9421 3.86694 19.2325 4.15974 20.4992C4.36917 21.4054 4.69983 22.2826 5.11869 23.1163C5.5299 23.9347 5.99428 24.7253 6.57142 25.4418C6.8763 25.8203 7.16427 26.2183 7.50862 26.5574C7.84814 26.8921 8.19773 27.2211 8.56585 27.5292C9.03223 27.9195 9.52198 28.2731 10.0351 28.5949C10.5132 28.8946 11.0146 29.1523 11.5212 29.4028C11.8938 29.5873 12.2796 29.7428 12.6683 29.8712C13.4166 30.1181 14.1742 30.3437 14.9648 30.4363C15.4223 30.4899 15.8722 30.6091 16.3369 30.603C16.3909 30.6022 16.4715 30.6357 16.492 30.5591C16.5025 30.5201 16.4743 30.452 16.4409 30.423C16.26 30.2647 16.1609 30.0456 16.0147 29.8612C15.6035 29.3424 15.2866 28.7592 14.9845 28.176C14.7497 27.7225 14.5495 27.2457 14.3655 26.764C14.1899 26.3045 14.0123 25.8433 13.8963 25.3697C13.7207 24.6528 13.5567 23.9326 13.4996 23.1876C13.446 22.4864 13.3731 21.7892 13.4045 21.0844C13.4238 20.6474 13.4895 20.2148 13.5161 19.7803C13.562 19.0376 13.7501 18.3247 13.9353 17.6127C14.061 17.1302 14.2402 16.663 14.4259 16.197C14.6667 15.5929 14.947 15.0129 15.2568 14.443C15.6076 13.7978 16.0405 13.2094 16.4731 12.6193C16.9072 12.0273 17.424 11.5065 17.9415 10.9942C18.3902 10.5504 18.8948 10.1577 19.4099 9.78598C20.0201 9.34578 20.6585 8.94866 21.327 8.60592C21.9513 8.28573 22.6014 8.01951 23.2655 7.79075C23.5933 7.67798 23.9288 7.59058 24.2635 7.49996C24.6719 7.38961 25.0839 7.29819 25.5169 7.21925L25.5165 7.21965Z" stroke="black" stroke-width="0.2" mask="url(#path-1-outside-1_173_42922)"/>
<path d="M32.6765 12.6057L32.6765 12.6057C32.6785 11.0694 31.4814 10.019 30.0637 10.038C28.5357 10.0207 27.317 11.1325 27.3335 12.6778L27.3335 12.6778C27.3499 14.2053 28.5314 15.3721 30.0012 15.3766C31.4674 15.3811 32.674 14.2613 32.6765 12.6057ZM31.311 12.6863L31.311 12.6863L31.3111 12.6892C31.3451 13.4599 30.6596 14.0517 29.9817 14.0177C29.5991 13.9985 29.2773 13.8587 29.051 13.6296C28.8249 13.4008 28.691 13.0798 28.6892 12.6924V12.6924C28.6875 12.3174 28.8165 11.9948 29.0502 11.7646C29.2839 11.5344 29.6263 11.393 30.0579 11.3881C30.4331 11.384 30.7481 11.4982 30.9678 11.7154C31.1872 11.9323 31.3169 12.2575 31.311 12.6863Z" fill="#0583F2" stroke="black" stroke-width="0.1"/>
<path d="M21.5091 28.477C23.0322 28.4832 24.2176 27.16 24.19 25.7977L24.189 25.7487H24.1889C24.1541 24.3166 22.9674 23.134 21.5011 23.1364L21.5011 23.1364C20.0243 23.1393 18.828 24.3656 18.8333 25.8315C18.8382 27.2053 20.0039 28.4713 21.5091 28.477ZM21.5091 28.477L21.5093 28.427M21.5091 28.477C21.5091 28.477 21.5091 28.477 21.5091 28.477L21.5093 28.427M21.5093 28.427C23.0035 28.4331 24.167 27.1338 24.14 25.7987L21.5012 23.1864C20.0525 23.1893 18.8781 24.3927 18.8833 25.8313C18.8882 27.1785 20.0324 28.4214 21.5093 28.427ZM22.805 25.7942L22.8041 25.7941L22.8052 25.8038C22.8452 26.1665 22.6929 26.4957 22.4425 26.7344C22.1916 26.9735 21.8452 27.1189 21.5047 27.1144C20.7085 27.1039 20.1727 26.4753 20.1859 25.8198L20.1859 25.8198C20.1937 25.4218 20.3299 25.0981 20.5598 24.8703C20.7899 24.6423 21.1176 24.5065 21.5151 24.4918L21.5152 24.4918C21.8219 24.4802 22.1618 24.6072 22.4166 24.838C22.6706 25.0679 22.8376 25.3985 22.805 25.7942Z" fill="#0583F2" stroke="black" stroke-width="0.1"/>
<path d="M38.7296 26.4228C38.7345 24.9662 37.4759 23.7428 36.0594 23.7538L36.043 23.7536C34.6878 23.7367 33.3833 24.9425 33.387 26.426C33.3907 27.9144 34.6254 29.1177 36.062 29.1099H36.062C37.5125 29.1017 38.7247 27.9247 38.7296 26.4228ZM34.7525 26.4436L34.7129 26.4435L34.7524 26.4414C34.7158 25.7384 35.3672 25.1258 36.0479 25.1231C36.8128 25.1199 37.4003 25.7673 37.3775 26.4395C37.351 27.2208 36.8027 27.7446 36.0527 27.759C35.3654 27.7721 34.7471 27.1994 34.7525 26.444V26.4436Z" fill="#0583F2" stroke="black" stroke-width="0.1"/>
<path d="M33.2631 19.3977L33.2631 19.3977C33.2742 19.5858 33.3452 19.7472 33.4676 19.8617C33.59 19.9762 33.76 20.04 33.9626 20.04H33.963C34.3214 20.04 34.6338 19.71 34.6264 19.3454L34.6264 19.3454C34.6189 18.999 34.2825 18.6936 33.9213 18.704L33.9213 18.704C33.5826 18.714 33.2402 19.0081 33.2631 19.3977ZM33.9228 18.754C34.2583 18.7443 34.5696 19.0299 34.5764 19.3464C34.5833 19.6843 34.2921 19.99 33.963 19.99H33.9626C33.5788 19.99 33.3339 19.7488 33.313 19.3948C33.2921 19.0379 33.6074 18.7633 33.9228 18.754Z" fill="#0583F2" stroke="black" stroke-width="0.1"/>
<path d="M32.0023 32.1509L32.0022 32.1509C31.6317 32.1492 31.3166 31.8438 31.3157 31.4792C31.3157 31.4792 31.3157 31.4792 31.3157 31.4792M32.0023 32.1509L32.0029 30.8661C31.6742 30.8633 31.3649 31.1609 31.3657 31.4791L31.3157 31.4792M32.0023 32.1509C32.169 32.1516 32.3401 32.0937 32.4668 31.9831C32.5943 31.8717 32.6755 31.7076 32.661 31.5015C32.6618 31.1141 32.3818 30.8191 32.0033 30.8161L32.0023 32.1509ZM31.3157 31.4792C31.3153 31.3039 31.4 31.1375 31.5261 31.0162C31.6523 30.8948 31.8239 30.8145 32.0033 30.8161L31.3157 31.4792Z" fill="#0583F2" stroke="black" stroke-width="0.1"/>
<path d="M23.1637 31.4697C23.1677 31.1012 23.4748 30.8097 23.8493 30.8162L23.8493 30.8162C24.2178 30.8227 24.5057 31.1283 24.5006 31.5028C24.5006 31.5028 24.5006 31.5028 24.5006 31.5028L23.1637 31.4697ZM23.1637 31.4697C23.1234 31.6653 23.2076 31.8386 23.3386 31.9595C23.4699 32.0808 23.6534 32.1549 23.823 32.151C23.823 32.151 23.823 32.151 23.823 32.151L23.8219 32.101L23.1637 31.4697Z" fill="#0583F2" stroke="black" stroke-width="0.1"/>
<path d="M21.0422 12.0487H21.0922C21.4555 12.0487 21.7652 12.3408 21.7657 12.6935L21.7657 12.6936C21.7657 12.8638 21.6728 13.0359 21.544 13.1638C21.4152 13.2916 21.2422 13.3836 21.0716 13.3831L21.0715 13.3831C20.7182 13.3818 20.4289 13.0727 20.428 12.7066L21.0422 12.0487ZM21.0422 12.0487V12.0502M21.0422 12.0487V12.0502M21.0422 12.0502C20.8532 12.0581 20.7019 12.1112 20.5959 12.216C20.4806 12.33 20.4274 12.4968 20.428 12.7066L21.0422 12.0502Z" fill="#0583F2" stroke="black" stroke-width="0.1"/>
<path d="M27.2494 21.5532L27.2494 21.5532C27.2519 21.3998 27.3524 21.2314 27.4801 21.1035C27.6078 20.9757 27.7765 20.8746 27.9309 20.871L27.2494 21.5532ZM27.2494 21.5532C27.2437 21.9059 27.5733 22.2162 27.9409 22.2162L27.2494 21.5532ZM28.61 21.57C28.614 21.3913 28.5279 21.2151 28.4023 21.0855C28.2768 20.9561 28.1054 20.8667 27.9309 20.871L28.61 21.57Z" fill="#0583F2" stroke="black" stroke-width="0.1"/>
<path d="M16.8176 20.9732L16.7669 20.9725C16.3891 20.9673 16.0974 20.6836 16.097 20.3144L16.097 20.3144C16.097 20.1295 16.1642 19.9671 16.2817 19.8541C16.3993 19.7408 16.5644 19.6798 16.7541 19.6926L16.7541 19.6926C16.9846 19.7082 17.1493 19.7464 17.2585 19.8437L16.8176 20.9732ZM16.8176 20.9732V20.9712M16.8176 20.9732V20.9712M16.8176 20.9712C17.1801 20.9524 17.4562 20.6795 17.428 20.2998L16.8176 20.9712ZM16.7176 20.9201C16.3905 20.8923 16.1474 20.6384 16.147 20.3144L16.7176 20.9201Z" fill="#0583F2" stroke="black" stroke-width="0.1"/>
<path d="M10.4335 16.5418C11.0098 16.4944 11.6351 16.1903 12.1075 15.7185C12.5804 15.2462 12.9039 14.6018 12.8684 13.8717L12.8682 13.8674C12.8946 12.4146 11.6281 11.1974 10.1816 11.2228L10.1816 11.2228C8.74053 11.2482 7.55205 12.4144 7.55205 13.8878C7.55205 15.2118 8.66867 16.6877 10.4335 16.5418ZM10.4335 16.5418L10.4294 16.492M10.4335 16.5418C10.4335 16.5418 10.4335 16.5418 10.4335 16.5418L10.4294 16.492M10.4294 16.492C11.5555 16.3994 12.8878 15.3003 12.8185 13.8741L10.1825 11.2728C8.76802 11.2977 7.60205 12.4423 7.60205 13.8878C7.60205 15.1883 8.69915 16.635 10.4294 16.492ZM11.5131 13.8993C11.4987 14.6406 10.9554 15.1953 10.225 15.1802C9.40951 15.1631 8.89187 14.5645 8.86478 13.8242C8.90424 13.0918 9.49092 12.5722 10.2117 12.5745C10.9354 12.5768 11.5283 13.1065 11.5131 13.8993Z" fill="#0583F2" stroke="black" stroke-width="0.1"/>
<path d="M12.5321 6.37067L12.5321 6.37067C12.7311 6.37366 12.9022 6.44189 13.0232 6.5602C13.1445 6.6787 13.2124 6.84441 13.2101 7.03586C13.2101 7.03587 13.2101 7.03588 13.2101 7.03588L13.1601 7.03527L12.5321 6.37067ZM12.5321 6.37067H12.5314M12.5321 6.37067H12.5314M12.5314 6.37067H12.5313H12.5314Z" fill="#0583F2" stroke="black" stroke-width="0.1"/>
<path d="M6.41573 18.0817L6.41573 18.0817C6.78179 18.0865 7.08763 18.4035 7.07805 18.7694C7.07805 18.7694 7.07805 18.7694 7.07805 18.7694L7.02806 18.7681C7.02001 19.0802 6.70465 19.3907 6.39776 19.3883L6.41573 18.0817ZM6.41573 18.0817H6.41508H6.415M6.41573 18.0817H6.415M6.415 18.0817C6.06331 18.0772 5.74361 18.3639 5.73961 18.7006L6.415 18.0817Z" fill="#0583F2" stroke="black" stroke-width="0.1"/>
<path d="M10.4815 25.1393C10.3234 25.1395 10.139 25.2061 10.0028 25.3203C9.86679 25.4344 9.77314 25.6017 9.81173 25.8024C9.81271 25.9983 9.87175 26.1635 9.98252 26.2821C10.0944 26.4018 10.2545 26.4689 10.4469 26.4753L10.4469 26.4753C10.632 26.4815 10.8095 26.4027 10.9389 26.2796C11.0682 26.1567 11.1531 25.9858 11.1469 25.8042L11.1469 25.8042C11.1353 25.4691 10.8695 25.1384 10.4815 25.1393ZM10.4815 25.1393C10.4815 25.1393 10.4815 25.1393 10.4814 25.1393L10.4816 25.1893L10.4815 25.1393C10.4815 25.1393 10.4815 25.1393 10.4815 25.1393Z" fill="#0583F2" stroke="black" stroke-width="0.1"/>
</svg>
