<svg width="65" height="65" viewBox="0 0 65 65" fill="none" xmlns="http://www.w3.org/2000/svg">
<path fill-rule="evenodd" clip-rule="evenodd" d="M32.4997 11.1663C20.7176 11.1663 11.1663 20.7176 11.1663 32.4997C11.1663 44.2818 20.7176 53.833 32.4997 53.833C44.2818 53.833 53.833 44.2818 53.833 32.4997C53.833 20.7176 44.2818 11.1663 32.4997 11.1663ZM5.83301 32.4997C5.83301 17.7721 17.7721 5.83301 32.4997 5.83301C47.2273 5.83301 59.1663 17.7721 59.1663 32.4997C59.1663 47.2273 47.2273 59.1663 32.4997 59.1663C17.7721 59.1663 5.83301 47.2273 5.83301 32.4997ZM22.1288 22.1288C23.1702 21.0874 24.8586 21.0874 25.9 22.1288L32.4997 28.7284L39.0993 22.1288C40.1407 21.0874 41.8292 21.0874 42.8706 22.1288C43.912 23.1702 43.912 24.8586 42.8706 25.9L36.2709 32.4997L42.8706 39.0993C43.912 40.1407 43.912 41.8292 42.8706 42.8706C41.8292 43.912 40.1407 43.912 39.0993 42.8706L32.4997 36.2709L25.9 42.8706C24.8586 43.912 23.1702 43.912 22.1288 42.8706C21.0874 41.8292 21.0874 40.1407 22.1288 39.0993L28.7284 32.4997L22.1288 25.9C21.0874 24.8586 21.0874 23.1702 22.1288 22.1288Z" fill="#FF4E4E"/>
</svg>
