<svg width="24" height="24" viewBox="0 0 24 24" fill="none" xmlns="http://www.w3.org/2000/svg">
    <path d="M12.0008 6.48012C13.6908 6.48012 14.8307 7.2101 15.4807 7.82009L18.0207 5.34014C16.4607 3.89017 14.4307 3.00018 12.0008 3.00018C8.48085 3.00018 5.44091 5.02015 3.96094 7.96009L6.87088 10.22C7.60087 8.05009 9.62083 6.48012 12.0008 6.48012Z" fill="#EA4335"/>
    <path d="M20.6398 12.1996C20.6398 11.4596 20.5798 10.9196 20.4498 10.3596H12V13.6996H16.9599C16.8599 14.5295 16.3199 15.7795 15.1199 16.6195L17.9599 18.8195C19.6599 17.2495 20.6398 14.9395 20.6398 12.1996Z" fill="#4285F4"/>
    <path d="M6.87993 13.7796C6.68993 13.2196 6.57993 12.6196 6.57993 11.9996C6.57993 11.3797 6.68993 10.7797 6.86993 10.2197L3.95998 7.95972C3.34999 9.17969 3 10.5497 3 11.9996C3 13.4496 3.34999 14.8196 3.95998 16.0396L6.87993 13.7796Z" fill="#FBBC05"/>
    <path d="M11.9986 21.0004C14.4286 21.0004 16.4685 20.2004 17.9585 18.8204L15.1185 16.6205C14.3586 17.1505 13.3386 17.5204 11.9986 17.5204C9.61865 17.5204 7.59868 15.9505 6.8787 13.7805L3.96875 16.0405C5.44872 18.9804 8.47867 21.0004 11.9986 21.0004Z" fill="#34A853"/>
</svg>
