<svg width="130" height="49" viewBox="0 0 130 49" fill="none" xmlns="http://www.w3.org/2000/svg">
    <rect x="0.357422" y="0.489258" width="128.785" height="48" rx="8" fill="#090909"/>
    <g filter="url(#filter0_ii_1143_76625)">
        <path d="M13.2113 12.6438C12.933 12.9395 12.7686 13.3984 12.7686 13.9926V35.224C12.7686 35.8192 12.933 36.2771 13.2113 36.5728L13.2821 36.6419L25.1293 24.7484V24.6083V24.4681L13.2821 12.5737L13.2113 12.6438Z" fill="url(#paint0_linear_1143_76625)"/>
        <path d="M29.0773 28.7138L25.1289 24.748V24.6079V24.4677L29.0783 20.5029L29.1672 20.5538L33.8462 23.2226C35.1821 23.9849 35.1821 25.2319 33.8462 25.9951L29.1672 28.6639L29.0773 28.7138Z" fill="url(#paint1_linear_1143_76625)"/>
        <g filter="url(#filter1_i_1143_76625)">
            <path d="M29.1682 28.6629L25.1289 24.6079L13.2119 36.5724C13.6518 37.0409 14.3795 37.0985 15.199 36.6319L29.1682 28.6629Z" fill="url(#paint2_linear_1143_76625)"/>
        </g>
        <path d="M29.1682 20.5533L15.199 12.5853C14.3795 12.1178 13.6518 12.1764 13.2119 12.6448L25.1299 24.6093L29.1682 20.5533Z" fill="url(#paint3_linear_1143_76625)"/>
    </g>
    <path d="M64.8961 25.7698C62.7718 25.7698 61.0405 27.3847 61.0405 29.609C61.0405 31.8197 62.7718 33.4482 64.8961 33.4482C67.0212 33.4482 68.7526 31.8197 68.7526 29.609C68.7517 27.3847 67.0203 25.7698 64.8961 25.7698ZM64.8961 31.9371C63.7319 31.9371 62.7285 30.9775 62.7285 29.6099C62.7285 28.2278 63.7328 27.2827 64.8961 27.2827C66.0603 27.2827 67.0637 28.2278 67.0637 29.6099C67.0637 30.9766 66.0603 31.9371 64.8961 31.9371ZM56.484 25.7698C54.3598 25.7698 52.6284 27.3847 52.6284 29.609C52.6284 31.8197 54.3598 33.4482 56.484 33.4482C58.6092 33.4482 60.3405 31.8197 60.3405 29.609C60.3405 27.3847 58.6092 25.7698 56.484 25.7698ZM56.484 31.9371C55.3198 31.9371 54.3164 30.9775 54.3164 29.6099C54.3164 28.2278 55.3207 27.2827 56.484 27.2827C57.6482 27.2827 58.6516 28.2278 58.6516 29.6099C58.6525 30.9766 57.6482 31.9371 56.484 31.9371ZM46.4788 26.9487V28.5772H50.3786C50.2621 29.4934 49.9569 30.1623 49.4908 30.6272C48.9236 31.1941 48.0358 31.8197 46.4788 31.8197C44.0782 31.8197 42.2014 29.8852 42.2014 27.4858C42.2014 25.0864 44.0782 23.1519 46.4788 23.1519C47.7739 23.1519 48.7195 23.661 49.4177 24.3155L50.5674 23.1664C49.592 22.2357 48.2978 21.5234 46.4788 21.5234C43.1904 21.5234 40.4258 24.1991 40.4258 27.4858C40.4258 30.7726 43.1904 33.4482 46.4788 33.4482C48.2535 33.4482 49.5929 32.8659 50.6397 31.7755C51.7162 30.6994 52.0513 29.1865 52.0513 27.9651C52.0513 27.5878 52.0224 27.2385 51.9637 26.9478L46.4788 26.9487ZM87.3993 28.2134C87.0796 27.3558 86.1042 25.7698 84.1109 25.7698C82.1321 25.7698 80.4874 27.326 80.4874 29.609C80.4874 31.761 82.1176 33.4482 84.2996 33.4482C86.0599 33.4482 87.0787 32.3722 87.5014 31.7466L86.1918 30.8737C85.7555 31.5137 85.1586 31.9353 84.2996 31.9353C83.4416 31.9353 82.8302 31.5426 82.4373 30.7717L87.5736 28.6485L87.3993 28.2134ZM82.1609 29.4934C82.1176 28.0094 83.3107 27.2538 84.1696 27.2538C84.8388 27.2538 85.406 27.5887 85.5957 28.0681L82.1609 29.4934ZM77.9856 33.2162H79.6727V21.9315H77.9856V33.2162ZM75.2201 26.6282H75.1623C74.7839 26.1769 74.056 25.7698 73.1402 25.7698C71.2191 25.7698 69.4589 27.4569 69.4589 29.6243C69.4589 31.7764 71.2191 33.4491 73.1402 33.4491C74.0569 33.4491 74.7839 33.042 75.1623 32.5771H75.2201V33.1295C75.2201 34.5982 74.4344 35.3836 73.1691 35.3836C72.1358 35.3836 71.4955 34.6425 71.2336 34.0169L69.7641 34.628C70.1859 35.6454 71.3058 36.8965 73.1691 36.8965C75.1479 36.8965 76.8214 35.7329 76.8214 32.8966V26.0036H75.221L75.2201 26.6282ZM73.2856 31.9371C72.1214 31.9371 71.1469 30.9621 71.1469 29.6243C71.1469 28.2712 72.1214 27.2827 73.2856 27.2827C74.4344 27.2827 75.3366 28.2712 75.3366 29.6243C75.3366 30.9621 74.4344 31.9371 73.2856 31.9371ZM95.3056 21.9315H91.2675V33.2162H92.9519V28.941H95.3047C97.1724 28.941 99.0095 27.5896 99.0095 25.4367C99.0095 23.2837 97.1733 21.9315 95.3056 21.9315ZM95.3489 27.3703H92.9519V23.5022H95.3489C96.6088 23.5022 97.3242 24.5448 97.3242 25.4367C97.3242 26.3105 96.6088 27.3703 95.3489 27.3703ZM105.764 25.7499C104.544 25.7499 103.281 26.287 102.758 27.4777L104.253 28.1015C104.573 27.4777 105.169 27.2737 105.793 27.2737C106.665 27.2737 107.551 27.7963 107.565 28.7252V28.8417C107.26 28.6675 106.606 28.4066 105.808 28.4066C104.195 28.4066 102.553 29.2921 102.553 30.9468C102.553 32.457 103.876 33.4292 105.357 33.4292C106.489 33.4292 107.114 32.921 107.506 32.3252H107.564V33.1963H109.192V28.8697C109.193 26.8675 107.695 25.7499 105.764 25.7499ZM105.56 31.9343C105.009 31.9343 104.239 31.6581 104.239 30.9757C104.239 30.1046 105.198 29.7706 106.026 29.7706C106.766 29.7706 107.115 29.9303 107.565 30.1479C107.434 31.1941 106.534 31.9343 105.56 31.9343ZM115.118 25.9963L113.186 30.889H113.129L111.124 25.9963H109.308L112.315 32.8343L110.601 36.6383H112.358L116.992 25.9963H115.118ZM99.9397 33.2162H101.624V21.9315H99.9397V33.2162Z" fill="white"/>
    <path d="M46.2686 15.2567C46.2686 15.9995 46.0448 16.5907 45.5963 17.0321C45.0874 17.5568 44.4233 17.8192 43.6076 17.8192C42.8261 17.8192 42.1611 17.5533 41.6152 17.0215C41.0683 16.4888 40.7949 15.8293 40.7949 15.0423C40.7949 14.2543 41.0683 13.5948 41.6152 13.063C42.1611 12.5303 42.8261 12.2644 43.6076 12.2644C43.9956 12.2644 44.3664 12.3389 44.7184 12.4869C45.0712 12.6358 45.3536 12.8335 45.5648 13.0808L45.0892 13.5487C44.731 13.1277 44.2374 12.9177 43.6067 12.9177C43.0364 12.9177 42.5437 13.1144 42.1277 13.508C41.7117 13.9015 41.5042 14.4129 41.5042 15.0414C41.5042 15.6698 41.7117 16.1812 42.1277 16.5748C42.5437 16.9683 43.0364 17.1651 43.6067 17.1651C44.2112 17.1651 44.7157 16.9674 45.119 16.5712C45.3807 16.3133 45.5323 15.9543 45.5729 15.4943H43.6067V14.8552H46.2298C46.2569 14.9944 46.2686 15.1282 46.2686 15.2567Z" fill="white"/>
    <path d="M50.4285 13.0356H47.9633V14.7214H50.1867V15.3605H47.9633V17.0463H50.4285V17.7005H47.2676V12.3824H50.4285V13.0356Z" fill="white"/>
    <path d="M53.362 17.7005H52.6663V13.0356H51.1539V12.3824H54.8743V13.0356H53.362V17.7005Z" fill="white"/>
    <path d="M57.566 17.7005V12.3824H58.2617V17.7005H57.566Z" fill="white"/>
    <path d="M61.347 17.7005H60.6513V13.0356H59.139V12.3824H62.8594V13.0356H61.347V17.7005Z" fill="white"/>
    <path d="M69.9021 17.0135C69.3697 17.5507 68.7082 17.8192 67.9169 17.8192C67.1255 17.8192 66.4641 17.5507 65.9326 17.0135C65.4002 16.4764 65.1349 15.8187 65.1349 15.0414C65.1349 14.2641 65.4002 13.6064 65.9326 13.0693C66.4641 12.5321 67.1255 12.2627 67.9169 12.2627C68.7037 12.2627 69.3643 12.533 69.8985 13.0728C70.4326 13.6126 70.6997 14.2685 70.6997 15.0414C70.6997 15.8187 70.4335 16.4764 69.9021 17.0135ZM66.446 16.5677C66.8467 16.9666 67.3367 17.1651 67.9169 17.1651C68.4971 17.1651 68.988 16.9657 69.3877 16.5677C69.7884 16.1688 69.9896 15.6601 69.9896 15.0414C69.9896 14.4227 69.7884 13.914 69.3877 13.5151C68.988 13.1163 68.4971 12.9177 67.9169 12.9177C67.3367 12.9177 66.8467 13.1171 66.446 13.5151C66.0463 13.914 65.8451 14.4227 65.8451 15.0414C65.8451 15.6601 66.0463 16.1688 66.446 16.5677Z" fill="white"/>
    <path d="M71.6761 17.7005V12.3824H72.5225L75.1538 16.519H75.1836L75.1538 15.4943V12.3824H75.8495V17.7005H75.1231L72.37 13.3627H72.3402L72.37 14.3873V17.7005H71.6761Z" fill="white"/>
    <path d="M46.2686 15.2567C46.2686 15.9995 46.0448 16.5907 45.5963 17.0321C45.0874 17.5568 44.4233 17.8192 43.6076 17.8192C42.8261 17.8192 42.1611 17.5533 41.6152 17.0215C41.0683 16.4888 40.7949 15.8293 40.7949 15.0423C40.7949 14.2543 41.0683 13.5948 41.6152 13.063C42.1611 12.5303 42.8261 12.2644 43.6076 12.2644C43.9956 12.2644 44.3664 12.3389 44.7184 12.4869C45.0712 12.6358 45.3536 12.8335 45.5648 13.0808L45.0892 13.5487C44.731 13.1277 44.2374 12.9177 43.6067 12.9177C43.0364 12.9177 42.5437 13.1144 42.1277 13.508C41.7117 13.9015 41.5042 14.4129 41.5042 15.0414C41.5042 15.6698 41.7117 16.1812 42.1277 16.5748C42.5437 16.9683 43.0364 17.1651 43.6067 17.1651C44.2112 17.1651 44.7157 16.9674 45.119 16.5712C45.3807 16.3133 45.5323 15.9543 45.5729 15.4943H43.6067V14.8552H46.2298C46.2569 14.9944 46.2686 15.1282 46.2686 15.2567Z" stroke="white" stroke-width="0.204511" stroke-miterlimit="10"/>
    <path d="M50.4285 13.0356H47.9633V14.7214H50.1867V15.3605H47.9633V17.0463H50.4285V17.7005H47.2676V12.3824H50.4285V13.0356Z" stroke="white" stroke-width="0.204511" stroke-miterlimit="10"/>
    <path d="M53.362 17.7005H52.6663V13.0356H51.1539V12.3824H54.8743V13.0356H53.362V17.7005Z" stroke="white" stroke-width="0.204511" stroke-miterlimit="10"/>
    <path d="M57.566 17.7005V12.3824H58.2617V17.7005H57.566Z" stroke="white" stroke-width="0.204511" stroke-miterlimit="10"/>
    <path d="M61.347 17.7005H60.6513V13.0356H59.139V12.3824H62.8594V13.0356H61.347V17.7005Z" stroke="white" stroke-width="0.204511" stroke-miterlimit="10"/>
    <path d="M69.9021 17.0135C69.3697 17.5507 68.7082 17.8192 67.9169 17.8192C67.1255 17.8192 66.4641 17.5507 65.9326 17.0135C65.4002 16.4764 65.1349 15.8187 65.1349 15.0414C65.1349 14.2641 65.4002 13.6064 65.9326 13.0693C66.4641 12.5321 67.1255 12.2627 67.9169 12.2627C68.7037 12.2627 69.3643 12.533 69.8985 13.0728C70.4326 13.6126 70.6997 14.2685 70.6997 15.0414C70.6997 15.8187 70.4335 16.4764 69.9021 17.0135ZM66.446 16.5677C66.8467 16.9666 67.3367 17.1651 67.9169 17.1651C68.4971 17.1651 68.988 16.9657 69.3877 16.5677C69.7884 16.1688 69.9896 15.6601 69.9896 15.0414C69.9896 14.4227 69.7884 13.914 69.3877 13.5151C68.988 13.1163 68.4971 12.9177 67.9169 12.9177C67.3367 12.9177 66.8467 13.1171 66.446 13.5151C66.0463 13.914 65.8451 14.4227 65.8451 15.0414C65.8451 15.6601 66.0463 16.1688 66.446 16.5677Z" stroke="white" stroke-width="0.204511" stroke-miterlimit="10"/>
    <path d="M71.6761 17.7005V12.3824H72.5225L75.1538 16.519H75.1836L75.1538 15.4943V12.3824H75.8495V17.7005H75.1231L72.37 13.3627H72.3402L72.37 14.3873V17.7005H71.6761Z" stroke="white" stroke-width="0.204511" stroke-miterlimit="10"/>
    <defs>
        <filter id="filter0_ii_1143_76625" x="12.7686" y="12.2627" width="22.0801" height="24.6914" filterUnits="userSpaceOnUse" color-interpolation-filters="sRGB">
            <feFlood flood-opacity="0" result="BackgroundImageFix"/>
            <feBlend mode="normal" in="SourceGraphic" in2="BackgroundImageFix" result="shape"/>
            <feColorMatrix in="SourceAlpha" type="matrix" values="0 0 0 0 0 0 0 0 0 0 0 0 0 0 0 0 0 0 127 0" result="hardAlpha"/>
            <feOffset dy="-0.795"/>
            <feComposite in2="hardAlpha" operator="arithmetic" k2="-1" k3="1"/>
            <feColorMatrix type="matrix" values="0 0 0 0 0 0 0 0 0 0 0 0 0 0 0 0 0 0 0.12 0"/>
            <feBlend mode="normal" in2="shape" result="effect1_innerShadow_1143_76625"/>
            <feColorMatrix in="SourceAlpha" type="matrix" values="0 0 0 0 0 0 0 0 0 0 0 0 0 0 0 0 0 0 127 0" result="hardAlpha"/>
            <feOffset dy="0.795"/>
            <feComposite in2="hardAlpha" operator="arithmetic" k2="-1" k3="1"/>
            <feColorMatrix type="matrix" values="0 0 0 0 1 0 0 0 0 1 0 0 0 0 1 0 0 0 0.25 0"/>
            <feBlend mode="normal" in2="effect1_innerShadow_1143_76625" result="effect2_innerShadow_1143_76625"/>
        </filter>
        <filter id="filter1_i_1143_76625" x="13.2119" y="24.6079" width="15.9561" height="12.3462" filterUnits="userSpaceOnUse" color-interpolation-filters="sRGB">
            <feFlood flood-opacity="0" result="BackgroundImageFix"/>
            <feBlend mode="normal" in="SourceGraphic" in2="BackgroundImageFix" result="shape"/>
            <feColorMatrix in="SourceAlpha" type="matrix" values="0 0 0 0 0 0 0 0 0 0 0 0 0 0 0 0 0 0 127 0" result="hardAlpha"/>
            <feOffset dy="-0.795"/>
            <feComposite in2="hardAlpha" operator="arithmetic" k2="-1" k3="1"/>
            <feColorMatrix type="matrix" values="0 0 0 0 0 0 0 0 0 0 0 0 0 0 0 0 0 0 0.08 0"/>
            <feBlend mode="normal" in2="shape" result="effect1_innerShadow_1143_76625"/>
        </filter>
        <linearGradient id="paint0_linear_1143_76625" x1="24.0791" y1="13.768" x2="7.9685" y2="29.8159" gradientUnits="userSpaceOnUse">
            <stop stop-color="#00A0FF"/>
            <stop offset="0.0066" stop-color="#00A1FF"/>
            <stop offset="0.2601" stop-color="#00BEFF"/>
            <stop offset="0.5122" stop-color="#00D2FF"/>
            <stop offset="0.7604" stop-color="#00DFFF"/>
            <stop offset="1" stop-color="#00E3FF"/>
        </linearGradient>
        <linearGradient id="paint1_linear_1143_76625" x1="35.5852" y1="24.6079" x2="12.4475" y2="24.6079" gradientUnits="userSpaceOnUse">
            <stop stop-color="#FFE000"/>
            <stop offset="0.4087" stop-color="#FFBD00"/>
            <stop offset="0.7754" stop-color="#FFA500"/>
            <stop offset="1" stop-color="#FF9C00"/>
        </linearGradient>
        <linearGradient id="paint2_linear_1143_76625" x1="26.9746" y1="26.8101" x2="5.12662" y2="48.5731" gradientUnits="userSpaceOnUse">
            <stop stop-color="#FF3A44"/>
            <stop offset="1" stop-color="#C31162"/>
        </linearGradient>
        <linearGradient id="paint3_linear_1143_76625" x1="10.2106" y1="5.57714" x2="19.9663" y2="15.2949" gradientUnits="userSpaceOnUse">
            <stop stop-color="#32A071"/>
            <stop offset="0.0685" stop-color="#2DA771"/>
            <stop offset="0.4762" stop-color="#15CF74"/>
            <stop offset="0.8009" stop-color="#06E775"/>
            <stop offset="1" stop-color="#00F076"/>
        </linearGradient>
    </defs>
</svg>
