<svg width="130" height="48" viewBox="0 0 130 48" fill="none" xmlns="http://www.w3.org/2000/svg">
    <rect x="0.322266" width="128.785" height="48" rx="8" fill="#090909"/>
    <g filter="url(#filter0_ii_45_2112)">
        <path d="M13.1762 12.1548C12.8979 12.4505 12.7334 12.9094 12.7334 13.5036V34.735C12.7334 35.3302 12.8979 35.7881 13.1762 36.0838L13.2469 36.1529L25.0941 24.2594V24.1193V23.9791L13.2469 12.0847L13.1762 12.1548Z" fill="url(#paint0_linear_45_2112)"/>
        <path d="M29.0422 28.2248L25.0937 24.259V24.1189V23.9787L29.0431 20.0139L29.1321 20.0648L33.8111 22.7336C35.147 23.4958 35.147 24.7429 33.8111 25.5061L29.1321 28.1749L29.0422 28.2248Z" fill="url(#paint1_linear_45_2112)"/>
        <g filter="url(#filter1_i_45_2112)">
            <path d="M29.1326 28.1739L25.0933 24.1189L13.1763 36.0834C13.6162 36.5519 14.3439 36.6095 15.1634 36.1429L29.1326 28.1739Z" fill="url(#paint2_linear_45_2112)"/>
        </g>
        <path d="M29.1326 20.0643L15.1634 12.0963C14.3439 11.6288 13.6162 11.6874 13.1763 12.1558L25.0942 24.1203L29.1326 20.0643Z" fill="url(#paint3_linear_45_2112)"/>
    </g>
    <path d="M64.8607 25.2808C62.7364 25.2808 61.0051 26.8957 61.0051 29.12C61.0051 31.3307 62.7364 32.9592 64.8607 32.9592C66.9858 32.9592 68.7172 31.3307 68.7172 29.12C68.7163 26.8957 66.9849 25.2808 64.8607 25.2808ZM64.8607 31.448C63.6965 31.448 62.6931 30.4885 62.6931 29.1209C62.6931 27.7388 63.6974 26.7937 64.8607 26.7937C66.0249 26.7937 67.0283 27.7388 67.0283 29.1209C67.0283 30.4876 66.0249 31.448 64.8607 31.448ZM56.4486 25.2808C54.3244 25.2808 52.593 26.8957 52.593 29.12C52.593 31.3307 54.3244 32.9592 56.4486 32.9592C58.5738 32.9592 60.3051 31.3307 60.3051 29.12C60.3051 26.8957 58.5738 25.2808 56.4486 25.2808ZM56.4486 31.448C55.2844 31.448 54.281 30.4885 54.281 29.1209C54.281 27.7388 55.2853 26.7937 56.4486 26.7937C57.6128 26.7937 58.6162 27.7388 58.6162 29.1209C58.6171 30.4876 57.6128 31.448 56.4486 31.448ZM46.4434 26.4597V28.0882H50.3432C50.2267 29.0044 49.9215 29.6733 49.4554 30.1382C48.8882 30.7051 48.0004 31.3307 46.4434 31.3307C44.0428 31.3307 42.166 29.3962 42.166 26.9968C42.166 24.5974 44.0428 22.6629 46.4434 22.6629C47.7385 22.6629 48.6841 23.172 49.3823 23.8265L50.532 22.6773C49.5566 21.7467 48.2624 21.0344 46.4434 21.0344C43.155 21.0344 40.3904 23.71 40.3904 26.9968C40.3904 30.2836 43.155 32.9592 46.4434 32.9592C48.2181 32.9592 49.5575 32.3769 50.6043 31.2865C51.6808 30.2104 52.0159 28.6975 52.0159 27.4761C52.0159 27.0988 51.987 26.7495 51.9283 26.4588L46.4434 26.4597ZM87.3639 27.7244C87.0442 26.8668 86.0688 25.2808 84.0755 25.2808C82.0967 25.2808 80.452 26.837 80.452 29.12C80.452 31.272 82.0822 32.9592 84.2642 32.9592C86.0245 32.9592 87.0433 31.8831 87.466 31.2576L86.1564 30.3847C85.7201 31.0247 85.1231 31.4462 84.2642 31.4462C83.4062 31.4462 82.7948 31.0536 82.4019 30.2826L87.5382 28.1595L87.3639 27.7244ZM82.1255 29.0044C82.0822 27.5204 83.2753 26.7648 84.1342 26.7648C84.8034 26.7648 85.3706 27.0997 85.5603 27.579L82.1255 29.0044ZM77.9502 32.7272H79.6373V21.4424H77.9502V32.7272ZM75.1847 26.1392H75.1269C74.7485 25.6879 74.0206 25.2808 73.1048 25.2808C71.1837 25.2808 69.4235 26.9679 69.4235 29.1353C69.4235 31.2874 71.1837 32.9601 73.1048 32.9601C74.0215 32.9601 74.7485 32.553 75.1269 32.0881H75.1847V32.6405C75.1847 34.1092 74.399 34.8946 73.1337 34.8946C72.1004 34.8946 71.4601 34.1535 71.1982 33.5279L69.7287 34.139C70.1505 35.1564 71.2704 36.4075 73.1337 36.4075C75.1125 36.4075 76.786 35.2439 76.786 32.4076V25.5146H75.1856L75.1847 26.1392ZM73.2502 31.448C72.086 31.448 71.1115 30.4731 71.1115 29.1353C71.1115 27.7822 72.086 26.7937 73.2502 26.7937C74.399 26.7937 75.3012 27.7822 75.3012 29.1353C75.3012 30.4731 74.399 31.448 73.2502 31.448ZM95.2702 21.4424H91.2321V32.7272H92.9165V28.452H95.2693C97.137 28.452 98.9741 27.1006 98.9741 24.9477C98.9741 22.7947 97.1379 21.4424 95.2702 21.4424ZM95.3135 26.8812H92.9165V23.0132H95.3135C96.5734 23.0132 97.2888 24.0558 97.2888 24.9477C97.2888 25.8215 96.5734 26.8812 95.3135 26.8812ZM105.729 25.2609C104.509 25.2609 103.245 25.798 102.722 26.9887L104.218 27.6124C104.538 26.9887 105.134 26.7847 105.758 26.7847C106.629 26.7847 107.515 27.3073 107.53 28.2362V28.3527C107.224 28.1784 106.571 27.9176 105.772 27.9176C104.16 27.9176 102.518 28.8031 102.518 30.4578C102.518 31.968 103.84 32.9402 105.321 32.9402C106.454 32.9402 107.079 32.432 107.471 31.8362H107.529V32.7073H109.156V28.3806C109.157 26.3784 107.66 25.2609 105.729 25.2609ZM105.525 31.4453C104.974 31.4453 104.203 31.1691 104.203 30.4867C104.203 29.6155 105.163 29.2815 105.991 29.2815C106.73 29.2815 107.08 29.4413 107.53 29.6589C107.399 30.7051 106.498 31.4453 105.525 31.4453ZM115.083 25.5073L113.151 30.4H113.093L111.088 25.5073H109.273L112.279 32.3453L110.565 36.1493H112.323L116.957 25.5073H115.083ZM99.9043 32.7272H101.589V21.4424H99.9043V32.7272Z" fill="white"/>
    <path d="M46.233 14.7677C46.233 15.5105 46.0092 16.1017 45.5607 16.5431C45.0518 17.0678 44.3876 17.3302 43.5719 17.3302C42.7905 17.3302 42.1254 17.0643 41.5795 16.5325C41.0327 15.9998 40.7593 15.3403 40.7593 14.5532C40.7593 13.7653 41.0327 13.1058 41.5795 12.574C42.1254 12.0413 42.7905 11.7754 43.5719 11.7754C43.9599 11.7754 44.3308 11.8499 44.6827 11.9979C45.0355 12.1468 45.318 12.3445 45.5291 12.5917L45.0536 13.0597C44.6953 12.6387 44.2018 12.4287 43.571 12.4287C43.0007 12.4287 42.508 12.6254 42.0921 13.019C41.6761 13.4125 41.4685 13.9239 41.4685 14.5524C41.4685 15.1808 41.6761 15.6922 42.0921 16.0857C42.508 16.4793 43.0007 16.676 43.571 16.676C44.1756 16.676 44.68 16.4784 45.0834 16.0822C45.345 15.8243 45.4966 15.4653 45.5372 15.0053H43.571V14.3662H46.1942C46.2212 14.5054 46.233 14.6392 46.233 14.7677Z" fill="white"/>
    <path d="M50.3929 12.5466H47.9277V14.2324H50.1511V14.8715H47.9277V16.5573H50.3929V17.2115H47.232V11.8933H50.3929V12.5466Z" fill="white"/>
    <path d="M53.3264 17.2115H52.6306V12.5466H51.1183V11.8933H54.8387V12.5466H53.3264V17.2115Z" fill="white"/>
    <path d="M57.5304 17.2115V11.8933H58.2261V17.2115H57.5304Z" fill="white"/>
    <path d="M61.3114 17.2115H60.6157V12.5466H59.1033V11.8933H62.8237V12.5466H61.3114V17.2115Z" fill="white"/>
    <path d="M69.8664 16.5245C69.334 17.0617 68.6726 17.3302 67.8812 17.3302C67.0899 17.3302 66.4284 17.0617 65.897 16.5245C65.3646 15.9874 65.0993 15.3297 65.0993 14.5524C65.0993 13.7751 65.3646 13.1174 65.897 12.5803C66.4284 12.0431 67.0899 11.7737 67.8812 11.7737C68.6681 11.7737 69.3286 12.044 69.8628 12.5838C70.397 13.1236 70.6641 13.7795 70.6641 14.5524C70.6641 15.3297 70.3979 15.9874 69.8664 16.5245ZM66.4104 16.0787C66.811 16.4775 67.301 16.6761 67.8812 16.6761C68.4614 16.6761 68.9523 16.4767 69.3521 16.0787C69.7527 15.6798 69.9539 15.1711 69.9539 14.5524C69.9539 13.9337 69.7527 13.425 69.3521 13.0261C68.9523 12.6272 68.4614 12.4287 67.8812 12.4287C67.301 12.4287 66.811 12.6281 66.4104 13.0261C66.0107 13.425 65.8094 13.9337 65.8094 14.5524C65.8094 15.1711 66.0107 15.6798 66.4104 16.0787Z" fill="white"/>
    <path d="M71.6405 17.2115V11.8933H72.4869L75.1181 16.0299H75.1479L75.1181 15.0053V11.8933H75.8139V17.2115H75.0875L72.3344 12.8737H72.3046L72.3344 13.8983V17.2115H71.6405Z" fill="white"/>
    <path d="M46.233 14.7677C46.233 15.5105 46.0092 16.1017 45.5607 16.5431C45.0518 17.0678 44.3876 17.3302 43.5719 17.3302C42.7905 17.3302 42.1254 17.0643 41.5795 16.5325C41.0327 15.9998 40.7593 15.3403 40.7593 14.5532C40.7593 13.7653 41.0327 13.1058 41.5795 12.574C42.1254 12.0413 42.7905 11.7754 43.5719 11.7754C43.9599 11.7754 44.3308 11.8499 44.6827 11.9979C45.0355 12.1468 45.318 12.3445 45.5291 12.5917L45.0536 13.0597C44.6953 12.6387 44.2018 12.4287 43.571 12.4287C43.0007 12.4287 42.508 12.6254 42.0921 13.019C41.6761 13.4125 41.4685 13.9239 41.4685 14.5524C41.4685 15.1808 41.6761 15.6922 42.0921 16.0857C42.508 16.4793 43.0007 16.676 43.571 16.676C44.1756 16.676 44.68 16.4784 45.0834 16.0822C45.345 15.8243 45.4966 15.4653 45.5372 15.0053H43.571V14.3662H46.1942C46.2212 14.5054 46.233 14.6392 46.233 14.7677Z" stroke="white" stroke-width="0.204511" stroke-miterlimit="10"/>
    <path d="M50.3929 12.5466H47.9277V14.2324H50.1511V14.8715H47.9277V16.5573H50.3929V17.2115H47.232V11.8933H50.3929V12.5466Z" stroke="white" stroke-width="0.204511" stroke-miterlimit="10"/>
    <path d="M53.3264 17.2115H52.6306V12.5466H51.1183V11.8933H54.8387V12.5466H53.3264V17.2115Z" stroke="white" stroke-width="0.204511" stroke-miterlimit="10"/>
    <path d="M57.5304 17.2115V11.8933H58.2261V17.2115H57.5304Z" stroke="white" stroke-width="0.204511" stroke-miterlimit="10"/>
    <path d="M61.3114 17.2115H60.6157V12.5466H59.1033V11.8933H62.8237V12.5466H61.3114V17.2115Z" stroke="white" stroke-width="0.204511" stroke-miterlimit="10"/>
    <path d="M69.8664 16.5245C69.334 17.0617 68.6726 17.3302 67.8812 17.3302C67.0899 17.3302 66.4284 17.0617 65.897 16.5245C65.3646 15.9874 65.0993 15.3297 65.0993 14.5524C65.0993 13.7751 65.3646 13.1174 65.897 12.5803C66.4284 12.0431 67.0899 11.7737 67.8812 11.7737C68.6681 11.7737 69.3286 12.044 69.8628 12.5838C70.397 13.1236 70.6641 13.7795 70.6641 14.5524C70.6641 15.3297 70.3979 15.9874 69.8664 16.5245ZM66.4104 16.0787C66.811 16.4775 67.301 16.6761 67.8812 16.6761C68.4614 16.6761 68.9523 16.4767 69.3521 16.0787C69.7527 15.6798 69.9539 15.1711 69.9539 14.5524C69.9539 13.9337 69.7527 13.425 69.3521 13.0261C68.9523 12.6272 68.4614 12.4287 67.8812 12.4287C67.301 12.4287 66.811 12.6281 66.4104 13.0261C66.0107 13.425 65.8094 13.9337 65.8094 14.5524C65.8094 15.1711 66.0107 15.6798 66.4104 16.0787Z" stroke="white" stroke-width="0.204511" stroke-miterlimit="10"/>
    <path d="M71.6405 17.2115V11.8933H72.4869L75.1181 16.0299H75.1479L75.1181 15.0053V11.8933H75.8139V17.2115H75.0875L72.3344 12.8737H72.3046L72.3344 13.8983V17.2115H71.6405Z" stroke="white" stroke-width="0.204511" stroke-miterlimit="10"/>
    <defs>
        <filter id="filter0_ii_45_2112" x="12.7334" y="11.7737" width="22.0796" height="24.6914" filterUnits="userSpaceOnUse" color-interpolation-filters="sRGB">
            <feFlood flood-opacity="0" result="BackgroundImageFix"/>
            <feBlend mode="normal" in="SourceGraphic" in2="BackgroundImageFix" result="shape"/>
            <feColorMatrix in="SourceAlpha" type="matrix" values="0 0 0 0 0 0 0 0 0 0 0 0 0 0 0 0 0 0 127 0" result="hardAlpha"/>
            <feOffset dy="-0.795"/>
            <feComposite in2="hardAlpha" operator="arithmetic" k2="-1" k3="1"/>
            <feColorMatrix type="matrix" values="0 0 0 0 0 0 0 0 0 0 0 0 0 0 0 0 0 0 0.12 0"/>
            <feBlend mode="normal" in2="shape" result="effect1_innerShadow_45_2112"/>
            <feColorMatrix in="SourceAlpha" type="matrix" values="0 0 0 0 0 0 0 0 0 0 0 0 0 0 0 0 0 0 127 0" result="hardAlpha"/>
            <feOffset dy="0.795"/>
            <feComposite in2="hardAlpha" operator="arithmetic" k2="-1" k3="1"/>
            <feColorMatrix type="matrix" values="0 0 0 0 1 0 0 0 0 1 0 0 0 0 1 0 0 0 0.25 0"/>
            <feBlend mode="normal" in2="effect1_innerShadow_45_2112" result="effect2_innerShadow_45_2112"/>
        </filter>
        <filter id="filter1_i_45_2112" x="13.1763" y="24.1189" width="15.9563" height="12.3462" filterUnits="userSpaceOnUse" color-interpolation-filters="sRGB">
            <feFlood flood-opacity="0" result="BackgroundImageFix"/>
            <feBlend mode="normal" in="SourceGraphic" in2="BackgroundImageFix" result="shape"/>
            <feColorMatrix in="SourceAlpha" type="matrix" values="0 0 0 0 0 0 0 0 0 0 0 0 0 0 0 0 0 0 127 0" result="hardAlpha"/>
            <feOffset dy="-0.795"/>
            <feComposite in2="hardAlpha" operator="arithmetic" k2="-1" k3="1"/>
            <feColorMatrix type="matrix" values="0 0 0 0 0 0 0 0 0 0 0 0 0 0 0 0 0 0 0.08 0"/>
            <feBlend mode="normal" in2="shape" result="effect1_innerShadow_45_2112"/>
        </filter>
        <linearGradient id="paint0_linear_45_2112" x1="24.0439" y1="13.279" x2="7.93334" y2="29.3269" gradientUnits="userSpaceOnUse">
            <stop stop-color="#00A0FF"/>
            <stop offset="0.0066" stop-color="#00A1FF"/>
            <stop offset="0.2601" stop-color="#00BEFF"/>
            <stop offset="0.5122" stop-color="#00D2FF"/>
            <stop offset="0.7604" stop-color="#00DFFF"/>
            <stop offset="1" stop-color="#00E3FF"/>
        </linearGradient>
        <linearGradient id="paint1_linear_45_2112" x1="35.5501" y1="24.1189" x2="12.4123" y2="24.1189" gradientUnits="userSpaceOnUse">
            <stop stop-color="#FFE000"/>
            <stop offset="0.4087" stop-color="#FFBD00"/>
            <stop offset="0.7754" stop-color="#FFA500"/>
            <stop offset="1" stop-color="#FF9C00"/>
        </linearGradient>
        <linearGradient id="paint2_linear_45_2112" x1="26.939" y1="26.321" x2="5.09098" y2="48.0841" gradientUnits="userSpaceOnUse">
            <stop stop-color="#FF3A44"/>
            <stop offset="1" stop-color="#C31162"/>
        </linearGradient>
        <linearGradient id="paint3_linear_45_2112" x1="10.1749" y1="5.08812" x2="19.9307" y2="14.8059" gradientUnits="userSpaceOnUse">
            <stop stop-color="#32A071"/>
            <stop offset="0.0685" stop-color="#2DA771"/>
            <stop offset="0.4762" stop-color="#15CF74"/>
            <stop offset="0.8009" stop-color="#06E775"/>
            <stop offset="1" stop-color="#00F076"/>
        </linearGradient>
    </defs>
</svg>
