<svg width="64" height="64" viewBox="0 0 64 64" fill="none" xmlns="http://www.w3.org/2000/svg">
    <path d="M16.2106 36.3648C15.0709 36.6701 13.8866 35.9941 13.7111 34.8273C13.3543 32.4566 13.4486 30.033 13.9959 27.6857C14.7054 24.6427 16.1544 21.8217 18.2146 19.4726C20.2748 17.1234 22.8825 15.3186 25.8068 14.2179C28.7311 13.1173 31.8817 12.7548 34.9795 13.1627C38.0774 13.5705 41.0268 14.7361 43.5666 16.556C46.1064 18.376 48.1582 20.7943 49.5401 23.5966C50.9221 26.399 51.5916 29.4989 51.4894 32.6218C51.4105 35.0308 50.8743 37.3962 49.9161 39.5938C49.4445 40.6754 48.1257 41.0219 47.1038 40.4319C46.082 39.842 45.7481 38.539 46.1842 37.4427C46.8111 35.8663 47.163 34.1883 47.2189 32.482C47.2981 30.0614 46.7791 27.6586 45.708 25.4865C44.6368 23.3143 43.0464 21.4399 41.0778 20.0292C39.1092 18.6185 36.823 17.715 34.4218 17.3989C32.0206 17.0828 29.5786 17.3637 27.3119 18.2169C25.0452 19.07 23.0239 20.4689 21.427 22.2898C19.8302 24.1107 18.707 26.2973 18.1571 28.6559C17.7694 30.3185 17.675 32.0304 17.8726 33.7154C18.01 34.8872 17.3503 36.0594 16.2106 36.3648Z" class="animate-spin" fill="#DC153D"/>
    <path d="M32.5 56.6175C32.5 57.9333 31.4312 59.0109 30.1205 58.895C26.5068 58.5752 22.9861 57.5297 19.7723 55.8119C15.8564 53.7188 12.5172 50.6923 10.0503 47.0004C7.58349 43.3085 6.06523 39.0653 5.63001 34.6465C5.1948 30.2277 5.85607 25.7697 7.55525 21.6675C9.25443 17.5654 11.9391 13.9455 15.3714 11.1287C18.8037 8.3119 22.8777 6.38503 27.2326 5.5188C31.5874 4.65256 36.0887 4.8737 40.3377 6.16261C43.8248 7.22043 47.0537 8.97065 49.835 11.2998C50.8439 12.1447 50.8376 13.6624 49.9072 14.5928C48.9767 15.5233 47.4754 15.5118 46.4508 14.6862C44.2352 12.9009 41.6914 11.5527 38.9545 10.7225C35.4554 9.66105 31.7485 9.47895 28.1622 10.1923C24.5759 10.9057 21.2209 12.4925 18.3943 14.8122C15.5677 17.1319 13.3569 20.1128 11.9576 23.4911C10.5583 26.8693 10.0137 30.5405 10.3721 34.1794C10.7305 37.8184 11.9809 41.3128 14.0123 44.3531C16.0438 47.3934 18.7937 49.8858 22.0185 51.6095C24.5409 52.9577 27.2929 53.8031 30.122 54.1074C31.4303 54.2481 32.5 55.3016 32.5 56.6175Z" class="animate-spin" fill="#0583F2"/>
    <path d="M39.761 24.7387C40.4371 24.0625 41.5453 24.0563 42.1172 24.8226C42.9458 25.933 43.5786 27.1821 43.9833 28.5162C44.5561 30.4047 44.6544 32.4052 44.2694 34.3407C43.8844 36.2762 43.028 38.0869 41.7761 39.6124C40.5242 41.1378 38.9154 42.331 37.0922 43.0862C35.269 43.8414 33.2877 44.1353 31.3238 43.9419C29.3599 43.7484 27.474 43.0737 25.8332 41.9773C24.1923 40.8809 22.8472 39.3968 21.9169 37.6564C21.2597 36.4269 20.8239 35.0962 20.6247 33.7251C20.4872 32.7788 21.2752 31.9997 22.2314 31.9997C23.1877 31.9997 23.9452 32.7826 24.1378 33.7193C24.3027 34.5207 24.5824 35.2972 24.9709 36.024C25.6327 37.2622 26.5897 38.318 27.757 39.098C28.9244 39.878 30.266 40.3581 31.6632 40.4957C33.0604 40.6333 34.4699 40.4242 35.767 39.8869C37.0641 39.3497 38.2086 38.5008 39.0993 37.4156C39.9899 36.3303 40.5992 35.0421 40.8731 33.6652C41.147 32.2882 41.0771 30.8649 40.6695 29.5215C40.4303 28.7328 40.079 27.9859 39.6289 27.3027C39.1028 26.5042 39.0848 25.4148 39.761 24.7387Z" class="animate-spin" fill="#0583F2"/>
</svg>
