<svg width="110" height="30" viewBox="0 0 110 30" fill="none" xmlns="http://www.w3.org/2000/svg">
<g clip-path="url(#clip0_2876_24500)">
<g clip-path="url(#clip1_2876_24500)">
<path d="M62.2607 23.8788V7.59644H69.3106C70.0537 7.59644 70.7325 7.67062 71.3472 7.81442C71.9618 7.95823 72.4938 8.19473 72.9526 8.51468C73.4066 8.83463 73.7598 9.26592 74.0121 9.80386C74.2643 10.3418 74.3882 11.0234 74.3882 11.849C74.3882 12.526 74.2368 13.1521 73.9341 13.7364C73.6314 14.3208 73.1819 14.766 72.5901 15.072C73.3792 15.3316 73.9984 15.7815 74.457 16.417C74.9111 17.0522 75.1404 17.8917 75.1404 18.9351C75.1404 19.8718 74.9662 20.6556 74.6175 21.2909C74.2688 21.9261 73.7918 22.4363 73.1865 22.8213C72.581 23.2062 71.8746 23.4751 71.072 23.6374C70.2693 23.7998 69.4116 23.8786 68.5033 23.8786H62.2699H62.2607V23.8788ZM65.5128 14.2419H68.4941C68.9025 14.2419 69.274 14.2049 69.6088 14.1261C69.9435 14.0519 70.2234 13.9267 70.4481 13.7598C70.6774 13.5928 70.8517 13.3795 70.971 13.1291C71.0903 12.8787 71.1544 12.5818 71.1544 12.2432C71.1682 11.7842 71.0719 11.441 70.8563 11.2183C70.6453 10.9958 70.3563 10.8427 69.994 10.7593C69.6315 10.6758 69.2188 10.634 68.7646 10.634H65.5125V14.2466V14.2419H65.5128ZM65.5128 20.8412H68.8794C69.2876 20.8412 69.673 20.8088 70.0261 20.7484C70.3839 20.6882 70.6957 20.5815 70.971 20.4377C71.2462 20.2939 71.4618 20.0899 71.6177 19.8303C71.7783 19.5706 71.8563 19.2459 71.8563 18.8656C71.8563 18.5131 71.7921 18.2163 71.6636 17.9798C71.5351 17.7433 71.3517 17.5484 71.1178 17.3955C70.8838 17.2424 70.6087 17.1358 70.2967 17.0755C69.9849 17.0152 69.6408 16.9827 69.2601 16.9827L65.5082 16.9828V20.8458L65.5128 20.8412Z" fill="#373435"/>
<path d="M78.8191 10.5411C78.2275 10.5411 77.7505 10.3603 77.3881 9.99848C77.0258 9.63681 76.8423 9.17305 76.8423 8.60734C76.8423 8.00904 77.0304 7.52689 77.4111 7.16041C77.7919 6.79405 78.2689 6.60864 78.8422 6.60864C79.3742 6.60864 79.8329 6.78948 80.2181 7.15127C80.6034 7.51294 80.7961 7.99064 80.7961 8.58882C80.7961 9.187 80.6082 9.64149 80.2367 10.0033C79.865 10.3651 79.3927 10.5459 78.8147 10.5459L78.8192 10.5412L78.8191 10.5411ZM77.2276 23.8786V11.7561H80.4109V23.8786H77.2276Z" fill="#373435"/>
<path d="M82.938 23.8788V7.59644H86.1212V23.8788H82.938Z" fill="#373435"/>
<path d="M94.1296 24.0406C92.8728 24.0406 91.8041 23.7856 90.9235 23.2801C90.0427 22.7746 89.3684 22.0558 88.9006 21.1282C88.4283 20.2007 88.1943 19.1155 88.1943 17.8727C88.1943 16.6299 88.4374 15.5169 88.9237 14.5708C89.4099 13.6294 90.0934 12.8874 90.9832 12.3495C91.8685 11.8116 92.9188 11.5425 94.1343 11.5425C95.0424 11.5425 95.8451 11.6955 96.5331 12.0017C97.2212 12.3077 97.8083 12.7391 98.2854 13.2908C98.7623 13.8426 99.1201 14.4827 99.354 15.2107C99.588 15.9388 99.6981 16.7271 99.6842 17.5666C99.6842 17.7799 99.675 17.9886 99.6613 18.188C99.6475 18.3874 99.6154 18.5868 99.5696 18.7861H91.3593C91.4052 19.2453 91.5335 19.6674 91.7446 20.0522C91.9556 20.4371 92.2583 20.7387 92.6435 20.9612C93.0288 21.1838 93.5105 21.295 94.0883 21.295C94.4691 21.295 94.8177 21.2533 95.1341 21.1698C95.4507 21.0864 95.7259 20.9518 95.9551 20.7664C96.1845 20.5808 96.3404 20.3676 96.4321 20.1217H99.5695C99.3722 21.026 99.0052 21.768 98.464 22.3524C97.9275 22.9367 97.276 23.3587 96.5193 23.6277C95.7625 23.8968 94.9643 24.0311 94.1296 24.0311V24.0404V24.0406ZM91.4234 16.5418H96.634C96.6203 16.1289 96.5147 15.7395 96.3266 15.3825C96.1385 15.0207 95.8543 14.7331 95.4873 14.5105C95.1158 14.288 94.6434 14.1766 94.0655 14.1766C93.4875 14.1766 93.0059 14.2926 92.6207 14.5199C92.2354 14.7517 91.9464 15.0439 91.7583 15.4057C91.5702 15.7675 91.4602 16.1477 91.4282 16.5419H91.4235L91.4234 16.5418Z" fill="#373435"/>
<path d="M106.615 24.041C105.267 24.041 104.267 23.6561 103.625 22.8909C102.978 22.1257 102.657 21.073 102.657 19.742V14.6362H100.859V11.7608H102.657V7.59644H105.84V11.7608H109.477V14.6362H105.84V19.0742C105.84 19.473 105.891 19.8162 105.987 20.1084C106.088 20.4006 106.253 20.6278 106.487 20.7855C106.721 20.9478 107.047 21.0266 107.455 21.0266C107.817 21.0266 108.124 20.971 108.377 20.855C108.624 20.7393 108.835 20.614 109 20.4747L110 22.9605C109.684 23.2201 109.331 23.4335 108.941 23.5912C108.555 23.7535 108.166 23.8694 107.771 23.9343C107.377 24.0039 106.991 24.0364 106.611 24.0364L106.615 24.041H106.615Z" fill="#373435"/>
<path d="M54.6515 9.53475C54.6515 9.53475 54.6928 9.52549 54.7066 9.51623C55.8486 9.13123 56.6742 8.04598 56.6742 6.7568V2.71757C56.6742 1.55356 55.7384 0.607422 54.5873 0.607422H2.09159C0.940311 0.607422 0 1.55356 0 2.71757V6.7568C0 8.04141 0.83019 9.13592 1.96767 9.51623C1.98147 9.52549 2.0043 9.53006 2.02273 9.53475C4.21065 10.3602 5.76555 12.4934 5.76555 14.9976C5.76555 17.5018 4.21053 19.6305 2.02273 20.4606C2.00442 20.4652 1.98147 20.4699 1.96767 20.4792C0.82567 20.864 0 21.9493 0 23.2385V27.2778C0 28.4417 0.940311 29.3925 2.09159 29.3925H54.5918C55.7431 29.3925 56.6788 28.4418 56.6788 27.2778V23.2385C56.6788 21.954 55.8486 20.8595 54.7111 20.4792C54.6974 20.4699 54.6745 20.4653 54.656 20.4606C52.4682 19.6352 50.9132 17.502 50.9132 14.9978C50.9132 12.4935 52.4682 10.3649 54.656 9.53475H54.6515ZM22.6725 15.7025C22.1267 16.5466 21.3882 17.1728 20.4571 17.5807C19.5213 17.9934 18.4618 18.1976 17.283 18.1976H14.5676V22.9927H11.389V7.06761H17.526C18.7277 7.06761 19.7735 7.25302 20.6726 7.61938C21.5715 7.98586 22.2641 8.57021 22.7504 9.37243C23.2412 10.1793 23.4842 11.246 23.4842 12.577C23.4842 13.8244 23.2182 14.8632 22.677 15.7025H22.6724H22.6725ZM32.7358 13.996H31.9973C31.3002 13.996 30.6948 14.1118 30.1765 14.3531C29.6582 14.5942 29.2637 14.9652 28.9885 15.48C28.7087 15.9856 28.5756 16.6393 28.5756 17.4371V22.9927H25.4612V11.1393H28.2638L28.4656 12.5585C28.7637 12.1086 29.0985 11.7654 29.4655 11.5336C29.837 11.3016 30.2223 11.144 30.6214 11.0651C31.0249 10.9817 31.4333 10.9353 31.8461 10.9353C32.0387 10.9353 32.2129 10.9445 32.3781 10.9492C32.5386 10.9538 32.6625 10.9585 32.7358 10.9585V13.996ZM44.579 20.3446C44.0927 21.2536 43.4184 21.9446 42.5561 22.427C41.6847 22.9046 40.6526 23.1411 39.4509 23.1411C38.2492 23.1411 37.2309 22.8999 36.3364 22.4129C35.4467 21.9261 34.7632 21.2303 34.2723 20.326C33.7815 19.417 33.5339 18.3458 33.5339 17.0937C33.5339 15.8415 33.7815 14.7239 34.2816 13.801C34.7815 12.8829 35.4741 12.1732 36.3594 11.677C37.2491 11.1808 38.2721 10.9303 39.4233 10.9303C40.5745 10.9303 41.6433 11.1901 42.5194 11.6955C43.4001 12.2057 44.0744 12.9198 44.5651 13.8335C45.0559 14.747 45.2989 15.8461 45.2989 17.1168C45.2989 18.3875 45.0605 19.4402 44.5834 20.3445H44.5789L44.579 20.3446Z" fill="#DC153D"/>
<path d="M19.8652 10.3601C20.3561 10.8006 20.5992 11.4546 20.5992 12.3171C20.5992 13.291 20.3056 14.0144 19.723 14.4967C19.1405 14.9743 18.3517 15.2156 17.3562 15.2156H14.563V9.70166H17.5214C18.5947 9.70166 19.3745 9.92422 19.8652 10.3602V10.3601Z" fill="#DC153D"/>
<path d="M41.946 15.5495C41.7627 15.0533 41.4643 14.6452 41.0561 14.3206C40.6525 14.0006 40.0975 13.843 39.4049 13.843C38.7124 13.843 38.1941 14.0006 37.772 14.3206C37.3594 14.6452 37.0612 15.058 36.8731 15.5495C36.685 16.0412 36.5933 16.5605 36.5933 17.0985C36.5933 17.6365 36.685 18.1743 36.8731 18.6521C37.061 19.1297 37.3591 19.524 37.772 19.8255C38.1895 20.1269 38.7308 20.2753 39.4049 20.2753C40.0792 20.2753 40.6296 20.1269 41.047 19.8255C41.4644 19.524 41.7625 19.1298 41.946 18.6474C42.1339 18.156 42.2259 17.6412 42.2259 17.0985C42.2259 16.5559 42.134 16.0458 41.946 15.5495ZM41.946 15.5495C41.7627 15.0533 41.4643 14.6452 41.0561 14.3206C40.6525 14.0006 40.0975 13.843 39.4049 13.843C38.7124 13.843 38.1941 14.0006 37.772 14.3206C37.3594 14.6452 37.0612 15.058 36.8731 15.5495C36.685 16.0412 36.5933 16.5605 36.5933 17.0985C36.5933 17.6365 36.685 18.1743 36.8731 18.6521C37.061 19.1297 37.3591 19.524 37.772 19.8255C38.1895 20.1269 38.7308 20.2753 39.4049 20.2753C40.0792 20.2753 40.6296 20.1269 41.047 19.8255C41.4644 19.524 41.7625 19.1298 41.946 18.6474C42.1339 18.156 42.2259 17.6412 42.2259 17.0985C42.2259 16.5559 42.134 16.0458 41.946 15.5495ZM41.0561 14.3206C40.6525 14.0006 40.0975 13.843 39.4049 13.843C38.7124 13.843 38.1941 14.0006 37.772 14.3206C37.3594 14.6452 37.0612 15.058 36.8731 15.5495C36.685 16.0409 36.5933 16.5604 36.5933 17.0984C36.5933 17.6364 36.685 18.1743 36.8731 18.6521C37.061 19.1297 37.3591 19.524 37.772 19.8254C38.1895 20.1268 38.7308 20.2753 39.4049 20.2753C40.0792 20.2753 40.6296 20.1268 41.047 19.8254C41.4644 19.524 41.7625 19.1298 41.946 18.6474C42.1339 18.1558 42.2259 17.6412 42.2259 17.0984C42.2259 16.5559 42.134 16.0458 41.946 15.5495C41.7627 15.0532 41.4643 14.6451 41.0561 14.3206Z" fill="#DC153D"/>
</g>
</g>
<defs>
<clipPath id="clip0_2876_24500">
<rect width="110" height="28.785" fill="white" transform="translate(0 0.607422)"/>
</clipPath>
<clipPath id="clip1_2876_24500">
<rect width="110" height="28.785" fill="white" transform="translate(0 0.607422)"/>
</clipPath>
</defs>
</svg>
