<svg width="274" height="50" viewBox="0 0 274 50" fill="none" xmlns="http://www.w3.org/2000/svg">
    <path fill-rule="evenodd" clip-rule="evenodd" d="M8 3.46501e-06C3.58172 3.65814e-06 -2.02901e-06 3.58173 -1.83588e-06 8L-3.49692e-07 42C-1.56562e-07 46.4183 3.58173 50 8 50L105 50C109.418 50 112.869 46.32 114.315 42.1448C117.568 32.7477 126.496 26 137 26C147.504 26 156.432 32.7477 159.685 42.1448C161.131 46.32 164.582 50 169 50L266 50C270.418 50 274 46.4183 274 42L274 7.99999C274 3.58171 270.418 -8.00566e-06 266 -7.81253e-06L8 3.46501e-06Z" fill="#D9D9D9"/>
    <path fill-rule="evenodd" clip-rule="evenodd" d="M8 3.46501e-06C3.58172 3.65814e-06 -2.02901e-06 3.58173 -1.83588e-06 8L-3.49692e-07 42C-1.56562e-07 46.4183 3.58173 50 8 50L105 50C109.418 50 112.869 46.32 114.315 42.1448C117.568 32.7477 126.496 26 137 26C147.504 26 156.432 32.7477 159.685 42.1448C161.131 46.32 164.582 50 169 50L266 50C270.418 50 274 46.4183 274 42L274 7.99999C274 3.58171 270.418 -8.00566e-06 266 -7.81253e-06L8 3.46501e-06Z" fill="#DC153D"/>
</svg>
