<svg width="25" height="24" viewBox="0 0 25 24" fill="none" xmlns="http://www.w3.org/2000/svg">
    <path fill-rule="evenodd" clip-rule="evenodd" d="M20.5968 16.9722C20.8741 17.3662 20.9021 17.9872 20.6075 18.4686C20.3446 18.8984 18.77 20.548 18.2578 21.0781C17.8139 21.5385 17.2142 21.9994 16.6241 21.9994H4.27005C2.60052 21.9994 2.5 21.438 2.5 20.1683V15.0184C2.5 13.7217 2.88551 13.3469 4.02582 13.3469H16.6241C17.2142 13.3469 17.7392 13.6459 18.3424 14.2539C18.854 14.7702 20.384 16.669 20.5968 16.9722Z" fill="#33CCCC"/>
    <path fill-rule="evenodd" clip-rule="evenodd" d="M20.5968 16.9722C20.8741 17.3662 20.9021 17.9872 20.6075 18.4686C20.3446 18.8984 18.77 20.548 18.2578 21.0781C17.8139 21.5385 17.2142 21.9994 16.6241 21.9994H4.27005C2.60052 21.9994 2.5 21.438 2.5 20.1683V15.0184C2.5 13.7217 2.88551 13.3469 4.02582 13.3469H16.6241C17.2142 13.3469 17.7392 13.6459 18.3424 14.2539C18.854 14.7702 20.384 16.669 20.5968 16.9722Z" fill="url(#paint0_linear_235_53342)"/>
    <path fill-rule="evenodd" clip-rule="evenodd" d="M5.30192 15.3377V15.3038C5.30192 15.1381 5.28776 14.9745 5.01451 14.9745H3.98198C3.7419 14.9745 3.7267 15.1062 3.7267 15.3107V16.6717C4.22932 15.9587 4.78652 15.6275 5.30192 15.3377ZM12.2281 20.2557V20.1826H12.2287V16.9067C12.2287 15.5329 11.6199 14.8461 10.402 14.8463C10.0647 14.8432 9.73319 14.9331 9.44447 15.106C9.15465 15.2793 8.87622 15.5214 8.60919 15.8322C8.47792 15.4944 8.27988 15.2456 8.01503 15.0859C7.75021 14.9261 7.40729 14.8462 6.9863 14.8462C6.49854 14.8462 5.93201 15.0156 5.53026 15.3435C5.4401 15.4328 3.7267 16.7707 3.7267 18.1448V20.2421C3.7267 20.3088 3.69423 20.5618 3.98025 20.5618H5.05493C5.38897 20.5618 5.35616 20.3448 5.35616 20.2555V16.8636C5.53751 16.6248 5.90852 16.0351 6.51062 16.0351C6.74173 16.0351 6.90812 16.1127 7.00979 16.2679C7.11147 16.4231 7.16259 16.6833 7.16317 17.0484V19.6977H7.16179V20.242C7.16179 20.3087 7.12932 20.5617 7.41499 20.5617H8.47619C8.81058 20.5617 8.77777 20.3447 8.77777 20.2554V20.1824H8.77915V16.8636C8.97363 16.6248 9.36088 16.0351 9.93328 16.0351C10.1689 16.0351 10.3387 16.1127 10.4428 16.2679C10.5469 16.4231 10.5988 16.6833 10.5986 17.0484V19.6977H10.5976V20.242C10.5976 20.3087 10.5654 20.5617 10.8511 20.5617H11.9261C12.2609 20.5617 12.2281 20.3448 12.2281 20.2556V20.2557ZM18.1476 18.9238C17.7652 19.9437 16.8497 20.5137 15.7157 20.5137C14.0724 20.5137 12.987 19.403 12.987 17.7373C12.987 16.0917 14.1135 14.8987 15.6642 14.8987C17.198 14.8987 18.227 15.9584 18.2923 17.6653C18.3006 17.8834 18.2364 18.0761 17.9617 18.0761H14.4752C14.4959 18.9914 14.9408 19.4852 15.726 19.4852C16.2048 19.4852 16.4888 19.2803 16.7357 18.8788C16.8435 18.7043 17.0636 18.7139 17.0636 18.7139H17.9614C18.1082 18.7136 18.1731 18.8557 18.1476 18.9236V18.9238ZM15.6642 15.9578C15.0127 15.9578 14.5581 16.4102 14.4752 17.151H16.8114C16.7492 16.5029 16.3976 15.9576 15.6642 15.9576V15.9578Z" fill="white"/>
    <path fill-rule="evenodd" clip-rule="evenodd" d="M8.7744 4.06147C8.64348 3.85437 8.47356 3.67422 8.27385 3.53085C8.07422 3.39166 7.8549 3.28254 7.62304 3.20703C7.36565 3.1238 7.09976 3.06899 6.83025 3.0436C6.5219 3.01352 6.21221 2.99899 5.90238 3.00005H3.1865C2.94227 3.00005 2.6863 3.15914 2.6863 3.4592V7.82743C3.03036 8.55545 3.70052 9.32834 4.46222 9.69772V8.8312C4.46222 8.37408 4.80939 8.27192 4.95275 8.27192H5.75591C6.86203 8.27192 7.70615 8.04153 8.28836 7.58074C8.87044 7.12061 9.16151 6.43706 9.16164 5.53013C9.16334 5.26811 9.1327 5.00687 9.07045 4.7522C9.00868 4.50808 8.90878 4.27502 8.7744 4.06147ZM7.19193 6.30484C7.09824 6.4662 6.95844 6.59649 6.79017 6.67923C6.60778 6.76557 6.41074 6.81737 6.20914 6.83195C5.98978 6.85136 5.76316 6.86108 5.5293 6.86112H4.76621C4.57967 6.86112 4.46222 6.71049 4.46222 6.48797V4.70212C4.46222 4.50185 4.59383 4.41781 4.7517 4.41781H5.5293C5.78251 4.41781 6.02006 4.42507 6.24196 4.43958C6.44152 4.4486 6.63749 4.49554 6.81919 4.57785C6.98131 4.65432 7.11544 4.77884 7.20298 4.93419C7.29556 5.09395 7.34185 5.31932 7.34185 5.61031C7.34185 5.90597 7.29186 6.13748 7.19193 6.30484ZM4.46222 9.97981C3.62452 9.64774 3.06283 9.25145 2.6863 8.85862V10.9674C2.6863 10.9674 2.65521 11.3113 2.99271 11.3113H4.17758C4.50229 11.3113 4.46222 10.9674 4.46222 10.9674V9.97981ZM21.2525 5.29786H20.1892C19.973 5.29786 19.8307 5.38796 19.745 5.62369C19.6586 5.85946 18.5321 8.97317 18.5321 8.97317C18.5321 8.97317 17.454 5.92375 17.3694 5.68764C17.2847 5.45153 17.1452 5.29786 16.8941 5.29786H15.9171C15.5727 5.29786 15.5727 5.56642 15.6152 5.67292C15.6501 5.75898 16.988 9.39681 17.4975 10.7825C17.6178 11.1097 17.6651 11.2081 17.6689 11.3294C17.6727 11.4507 17.5483 11.7051 17.4627 11.8511C17.4231 11.9177 17.3778 11.9808 17.3272 12.0396C18.3263 11.7429 19.4776 10.6663 20.0732 9.49995C20.6618 7.87443 21.4384 5.72718 21.4719 5.61732C21.5261 5.43951 21.5254 5.29786 21.2525 5.29786ZM16.5576 12.3491C16.4653 12.3475 16.3732 12.3409 16.2816 12.3293C16.1693 12.3146 15.9596 12.3354 15.9596 12.5176V13.3321C15.9596 13.6428 16.1095 13.6636 16.1918 13.682C16.4399 13.7333 16.693 13.7576 16.9466 13.7543C17.2823 13.7543 17.5746 13.6937 17.8233 13.5725C18.0744 13.4492 18.2981 13.2774 18.4814 13.0672C18.6834 12.833 18.8541 12.574 18.9892 12.2966C19.1377 11.9986 19.2802 11.6702 19.4168 11.3114C19.4168 11.3114 19.4752 11.1493 19.5716 10.8837C19.2783 11.1773 17.8962 12.4777 16.5576 12.3491ZM14.9606 6.26465C14.903 6.12853 14.8242 6.00221 14.7271 5.89027C14.6304 5.7828 14.5197 5.68865 14.3979 5.61031C14.2665 5.52548 14.1271 5.45359 13.9816 5.39566C13.8331 5.33809 13.6803 5.29195 13.5246 5.25766C13.3478 5.21923 13.1683 5.19371 12.9878 5.18132C12.7926 5.16692 12.5732 5.15966 12.3297 5.15955C10.7189 5.15955 9.80175 5.66456 9.57825 6.67458C9.50536 6.98802 9.81799 7.00644 9.81799 7.00644H10.8087C11.0675 7.00644 11.0564 6.92373 11.1818 6.69149C11.2272 6.5653 11.3085 6.4549 11.416 6.37368C11.6063 6.22835 11.8914 6.15568 12.2713 6.15568C12.6368 6.15568 12.9023 6.2259 13.0679 6.36632C13.2335 6.50676 13.3309 6.72007 13.3602 7.0063C13.3602 7.33816 13.2558 7.55952 12.8517 7.55952C11.8654 7.52402 10.806 7.63483 10.209 7.97409C9.6121 8.31334 9.27495 8.97714 9.27495 9.68968C9.27495 9.98032 9.32735 10.2348 9.43213 10.4531C9.53362 10.667 9.68364 10.8549 9.87049 11.002C10.0688 11.1554 10.2963 11.2679 10.5393 11.3328C10.8154 11.4079 11.1007 11.4447 11.387 11.442C11.8157 11.442 12.1945 11.3886 12.5235 11.2819C12.8524 11.1754 13.3612 10.8241 13.4261 10.7729V10.9604C13.4261 11.1459 13.4828 11.3113 13.706 11.3113H14.8584C15.0915 11.3113 15.1433 11.1459 15.1433 10.9423V7.42101C15.1453 7.20212 15.1307 6.9834 15.0998 6.76667C15.075 6.59416 15.0282 6.42549 14.9606 6.26465ZM13.3895 9.71727C13.3895 9.71727 13.0921 10.3304 12.0302 10.3304C11.738 10.3304 11.5004 10.265 11.3176 10.1342C11.1347 10.0034 11.0433 9.79977 11.0433 9.52337C11.0433 9.16433 11.1919 8.91096 11.4892 8.76321C11.7863 8.61553 12.3812 8.53114 12.8268 8.54151C13.2724 8.55189 13.3895 8.8312 13.3895 9.02421V9.71741V9.71727Z" fill="#333333"/>
    <defs>
        <linearGradient id="paint0_linear_235_53342" x1="26.8691" y1="15.8452" x2="24.5078" y2="30.2217" gradientUnits="userSpaceOnUse">
            <stop offset="0.47231" stop-color="#00CCCC"/>
            <stop offset="1" stop-color="#3399FF"/>
        </linearGradient>
    </defs>
</svg>
