<svg width="24" height="24" viewBox="0 0 24 24" fill="none" xmlns="http://www.w3.org/2000/svg">
    <path d="M11.4946 2.71393C11.7012 2.29539 12.298 2.29539 12.5046 2.71393L15.1786 8.13206C15.2606 8.29826 15.4192 8.41346 15.6026 8.44011L21.5818 9.30895C22.0437 9.37607 22.2282 9.94369 21.8939 10.2695L17.5673 14.4869C17.4346 14.6163 17.374 14.8027 17.4053 14.9854L18.4267 20.9404C18.5056 21.4005 18.0228 21.7513 17.6096 21.5341L12.2616 18.7225C12.0976 18.6362 11.9016 18.6362 11.7375 18.7225L6.38953 21.5341C5.9764 21.7513 5.49355 21.4005 5.57245 20.9404L6.59383 14.9854C6.62516 14.8027 6.5646 14.6163 6.43187 14.4869L2.10525 10.2695C1.77102 9.94369 1.95545 9.37607 2.41734 9.30895L8.3966 8.44011C8.58001 8.41346 8.73857 8.29826 8.8206 8.13206L11.4946 2.71393Z" fill="#DC153D" stroke="#DC153D" stroke-width="2" stroke-linejoin="round"/>
</svg>
