<svg width="65" height="65" viewBox="0 0 65 65" fill="none" xmlns="http://www.w3.org/2000/svg">
<path fill-rule="evenodd" clip-rule="evenodd" d="M5.83301 32.4997C5.83301 17.7721 17.7721 5.83301 32.4997 5.83301C47.2273 5.83301 59.1663 17.7721 59.1663 32.4997C59.1663 47.2273 47.2273 59.1663 32.4997 59.1663C17.7721 59.1663 5.83301 47.2273 5.83301 32.4997ZM32.4997 11.1663C20.7176 11.1663 11.1663 20.7176 11.1663 32.4997C11.1663 44.2817 20.7176 53.833 32.4997 53.833C44.2817 53.833 53.833 44.2817 53.833 32.4997C53.833 20.7176 44.2817 11.1663 32.4997 11.1663ZM42.764 25.2354C43.8054 26.2768 43.8054 27.9652 42.764 29.0066L31.3853 40.3853C30.3439 41.4267 28.6555 41.4267 27.6141 40.3853L23.7354 36.5066C22.694 35.4652 22.694 33.7768 23.7354 32.7354C24.7768 31.694 26.4652 31.694 27.5066 32.7354L29.4997 34.7284L38.9927 25.2354C40.0341 24.194 41.7226 24.194 42.764 25.2354Z" fill="#29CB1B"/>
</svg>
