<svg width="65" height="64" viewBox="0 0 65 64" fill="none" xmlns="http://www.w3.org/2000/svg">
    <path fill-rule="evenodd" clip-rule="evenodd" d="M5.83301 31.9999C5.83301 17.2723 17.7721 5.33325 32.4997 5.33325C47.2273 5.33325 59.1663 17.2723 59.1663 31.9999C59.1663 46.7275 47.2273 58.6666 32.4997 58.6666C17.7721 58.6666 5.83301 46.7275 5.83301 31.9999ZM32.4997 10.6666C20.7176 10.6666 11.1663 20.2178 11.1663 31.9999C11.1663 43.782 20.7176 53.3333 32.4997 53.3333C44.2817 53.3333 53.833 43.782 53.833 31.9999C53.833 20.2178 44.2817 10.6666 32.4997 10.6666ZM42.764 24.7356C43.8054 25.777 43.8054 27.4655 42.764 28.5069L31.3853 39.8855C30.3439 40.9269 28.6555 40.9269 27.6141 39.8855L23.7354 36.0069C22.694 34.9655 22.694 33.277 23.7354 32.2356C24.7768 31.1942 26.4652 31.1942 27.5066 32.2356L29.4997 34.2287L38.9927 24.7356C40.0341 23.6942 41.7226 23.6942 42.764 24.7356Z" fill="#29CB1B"/>
</svg>
