<svg width="24" height="24" viewBox="0 0 24 24" fill="none" xmlns="http://www.w3.org/2000/svg">
    <path d="M14.4002 15.1402V14.9463M14.3997 12.1373V11.9435M14.3997 9.14717V8.95333M5.01196 3.45972H12.0012C12.0409 4.87478 13.2005 6.00972 14.6252 6.00972C16.0499 6.00972 17.2094 4.87478 17.2491 3.45972H18.9884C21.0936 3.45972 22.8002 5.1663 22.8002 7.27148V16.7284C22.8002 18.8336 21.0936 20.5402 18.9884 20.5402H17.2491C17.2094 19.1251 16.0499 17.9902 14.6252 17.9902C13.2005 17.9902 12.0409 19.1251 12.0012 20.5402H5.01197C2.90679 20.5402 1.20021 18.8336 1.20021 16.7284L1.2002 7.27148C1.2002 5.1663 2.90678 3.45972 5.01196 3.45972Z" stroke="currentColor" stroke-width="2" stroke-linecap="round" stroke-linejoin="round"/>
</svg>
