<svg width="88" height="120" viewBox="0 0 88 120" fill="none" xmlns="http://www.w3.org/2000/svg">
    <path fill-rule="evenodd" clip-rule="evenodd" d="M-6.93001e-06 112C-7.31627e-06 116.418 3.58171 120 7.99999 120L80 120C84.4183 120 88 116.418 88 112L88 87.2258C88 82.3085 81.9174 79 77 79C66.5066 79 58 70.4934 58 60C58 49.5066 66.5066 41 77 41C81.9174 41 88 37.6915 88 32.7742L88 8.00001C88 3.58173 84.4183 7.31627e-06 80 6.93001e-06L8 6.35572e-07C3.58172 2.49313e-07 2.54821e-06 3.58172 2.16196e-06 8L-6.93001e-06 112Z" fill="#D9D9D9"/>
    <path fill-rule="evenodd" clip-rule="evenodd" d="M-6.93001e-06 112C-7.31627e-06 116.418 3.58171 120 7.99999 120L80 120C84.4183 120 88 116.418 88 112L88 87.2258C88 82.3085 81.9174 79 77 79C66.5066 79 58 70.4934 58 60C58 49.5066 66.5066 41 77 41C81.9174 41 88 37.6915 88 32.7742L88 8.00001C88 3.58173 84.4183 7.31627e-06 80 6.93001e-06L8 6.35572e-07C3.58172 2.49313e-07 2.54821e-06 3.58172 2.16196e-06 8L-6.93001e-06 112Z" fill="#DC153D"/>
</svg>
