<svg xmlns="http://www.w3.org/2000/svg" width="185" height="104" viewBox="0 0 185 104" fill="none">
    <mask id="path-1-inside-1_3120_13600" fill="white">
        <path fill-rule="evenodd" clip-rule="evenodd" d="M0 8C0 3.58172 3.58172 0 8 0H177C181.418 0 185 3.58172 185 8V32C185 36.4183 181.05 39.8344 177.58 42.5687C174.791 44.766 173 48.1739 173 52C173 55.8261 174.791 59.234 177.58 61.4313C181.05 64.1656 185 67.5817 185 72V96C185 100.418 181.418 104 177 104H8C3.58172 104 0 100.418 0 96V8Z"/>
    </mask>
    <path fill-rule="evenodd" clip-rule="evenodd" d="M0 8C0 3.58172 3.58172 0 8 0H177C181.418 0 185 3.58172 185 8V32C185 36.4183 181.05 39.8344 177.58 42.5687C174.791 44.766 173 48.1739 173 52C173 55.8261 174.791 59.234 177.58 61.4313C181.05 64.1656 185 67.5817 185 72V96C185 100.418 181.418 104 177 104H8C3.58172 104 0 100.418 0 96V8Z" fill="white"/>
    <path d="M177 -1H8V1H177V-1ZM186 32V8H184V32H186ZM174 52C174 48.4933 175.64 45.3701 178.198 43.3542L176.961 41.7832C173.941 44.162 172 47.8546 172 52H174ZM178.198 60.6458C175.64 58.6299 174 55.5067 174 52H172C172 56.1454 173.941 59.838 176.961 62.2168L178.198 60.6458ZM186 96V72H184V96H186ZM8 105H177V103H8V105ZM-1 8V96H1V8H-1ZM8 103C4.13401 103 1 99.866 1 96H-1C-1 100.971 3.02944 105 8 105V103ZM176.961 62.2168C178.694 63.5822 180.47 65.0608 181.815 66.715C183.156 68.3638 184 70.1051 184 72H186C186 69.4766 184.869 67.3007 183.367 65.4533C181.869 63.6113 179.936 62.0147 178.198 60.6458L176.961 62.2168ZM184 32C184 33.8949 183.156 35.6362 181.815 37.285C180.47 38.9392 178.694 40.4178 176.961 41.7832L178.198 43.3542C179.936 41.9853 181.869 40.3887 183.367 38.5467C184.869 36.6993 186 34.5234 186 32H184ZM8 -1C3.02943 -1 -1 3.02944 -1 8H1C1 4.13401 4.134 1 8 1V-1ZM184 96C184 99.866 180.866 103 177 103V105C181.971 105 186 100.971 186 96H184ZM177 1C180.866 1 184 4.13401 184 8H186C186 3.02944 181.971 -1 177 -1V1Z" fill="#E6EAF0" mask="url(#path-1-inside-1_3120_13600)"/>
</svg>