<svg width="29" height="29" viewBox="0 0 29 29" fill="none" xmlns="http://www.w3.org/2000/svg">
<path fill-rule="evenodd" clip-rule="evenodd" d="M28.1113 9.3406V19.8626C28.1113 24.705 24.178 28.6309 19.3265 28.6309H16.2516V18.778H19.5269L20.1498 14.7212H16.2516V12.0892C16.2516 10.9798 16.7949 9.89733 18.5426 9.89733H20.316V6.44463C20.316 6.44463 18.7068 6.1704 17.1688 6.1704C13.9586 6.1704 11.8597 8.11169 11.8597 11.6293V14.7212H8.29003V18.778H11.8597V28.6309H8.78479C3.93328 28.6309 0 24.705 0 19.8626V9.3406C0 4.49817 3.93328 0.572266 8.78479 0.572266H19.3265C24.178 0.572266 28.1113 4.49817 28.1113 9.3406Z" fill="#5E6774"/>
</svg>
