<svg width="45" height="45" viewBox="0 0 45 45" fill="none" xmlns="http://www.w3.org/2000/svg">
<path d="M22.4915 2.68151C11.5468 2.68151 2.65252 11.547 2.65252 22.4916C2.65252 33.4074 11.5468 42.3017 22.4915 42.3017C33.4073 42.3017 42.3016 33.4074 42.3016 22.4916C42.3016 11.547 33.4073 2.68151 22.4915 2.68151ZM22.4915 44.6697C10.2474 44.6697 0.284546 34.7357 0.284546 22.4916C0.284546 10.2475 10.2474 0.284668 22.4915 0.284668C34.7068 0.284668 44.6696 10.2475 44.6696 22.4916C44.6696 34.7357 34.7068 44.6697 22.4915 44.6697Z" fill="#8F8F8F"/>
<path fill-rule="evenodd" clip-rule="evenodd" d="M19.0082 22.5799V35.6171C19.0082 35.7925 19.1527 35.9387 19.355 35.9387H24.1237C24.2971 35.9387 24.4705 35.7925 24.4705 35.6171V22.3753H27.9386C28.112 22.3753 28.2565 22.2292 28.2565 22.0538L28.6033 18.0783C28.6033 17.8737 28.4588 17.6983 28.2565 17.6983H24.4705V14.8921C24.4705 14.2198 24.9907 13.6936 25.6554 13.6936H28.3143C28.5166 13.6936 28.6611 13.5182 28.6611 13.3428V9.36737C28.6611 9.16276 28.5166 9.0166 28.3143 9.0166H23.8057C21.1469 9.0166 19.0082 11.1797 19.0082 13.869V17.6983H16.6094C16.436 17.6983 16.2915 17.8737 16.2915 18.0491V22.0245C16.2915 22.2292 16.436 22.3753 16.6094 22.3753H19.0082V22.5799Z" fill="#8F8F8F"/>
</svg>
