<svg width="29" height="29" viewBox="0 0 29 29" fill="none" xmlns="http://www.w3.org/2000/svg">
<path d="M19.4672 0.572266H8.92544C4.07393 0.572266 0.140625 4.49817 0.140625 9.3406V19.8626C0.140625 24.705 4.07393 28.6309 8.92544 28.6309H19.4672C24.3187 28.6309 28.252 24.705 28.252 19.8626V9.3406C28.252 4.49817 24.3187 0.572266 19.4672 0.572266ZM10.8611 20.5296H8.35942V12.4953H10.8611V20.5296ZM9.61125 11.3974C8.80972 11.3974 8.16005 10.7489 8.16005 9.94887C8.16005 9.14988 8.80869 8.5014 9.61125 8.5014C10.4107 8.5014 11.0614 9.14988 11.0614 9.94887C11.0604 10.7489 10.4107 11.3974 9.61125 11.3974ZM20.2315 20.5296H17.7319V16.6223C17.7319 15.6903 17.7144 14.4923 16.4315 14.4923C15.13 14.4923 14.9297 15.5068 14.9297 16.5553V20.5296H12.43V12.4953H14.8295V13.5933H14.8625C15.1962 12.9613 16.0121 12.2953 17.2299 12.2953C19.7636 12.2953 20.2305 13.9593 20.2305 16.1223V20.5296H20.2315Z" fill="#5E6774"/>
</svg>
