<svg width="29" height="29" viewBox="0 0 29 29" fill="none" xmlns="http://www.w3.org/2000/svg">
<path fill-rule="evenodd" clip-rule="evenodd" d="M19.6161 10.1087C19.6161 10.6664 19.1627 11.119 18.6039 11.119C18.0451 11.119 17.5916 10.6664 17.5916 10.1087C17.5916 9.55091 18.0451 9.09833 18.6039 9.09833C19.1627 9.09833 19.6161 9.55091 19.6161 10.1087ZM18.4335 14.6016C18.4335 16.9893 16.4947 18.9244 14.1025 18.9244C11.7104 18.9244 9.77159 16.9893 9.77159 14.6016C9.77159 12.2139 11.7104 10.2788 14.1025 10.2788C16.4947 10.2788 18.4335 12.2139 18.4335 14.6016ZM16.9141 14.6016C16.9141 13.0521 15.655 11.7953 14.1025 11.7953C12.5501 11.7953 11.291 13.051 11.291 14.6016C11.291 16.1511 12.5491 17.4079 14.1025 17.4079C15.655 17.4079 16.9141 16.1511 16.9141 14.6016ZM28.1582 9.3406V19.8626C28.1582 24.705 24.2249 28.6309 19.3734 28.6309H8.83167C3.98015 28.6309 0.046875 24.705 0.046875 19.8626V9.3406C0.046875 4.49817 3.98015 0.572266 8.83167 0.572266H19.3734C24.2249 0.572266 28.1582 4.49817 28.1582 9.3406ZM22.5361 14.6016C22.5361 12.3149 22.5268 12.0283 22.4855 11.1314C22.4442 10.2355 22.3017 9.62308 22.093 9.08801C21.8771 8.53438 21.589 8.0653 21.12 7.59724C20.6511 7.12919 20.1811 6.84154 19.6265 6.62607C19.0894 6.41782 18.4769 6.27555 17.5793 6.23535C16.6796 6.19411 16.3925 6.18483 14.1015 6.18483C11.8116 6.18483 11.5244 6.19411 10.6248 6.23535C9.72718 6.27555 9.11365 6.41782 8.57758 6.62607C8.02291 6.84154 7.55292 7.12919 7.08399 7.59724C6.61505 8.0653 6.32688 8.53438 6.11101 9.08801C5.90236 9.62308 5.75982 10.2355 5.7185 11.1314C5.67719 12.0294 5.66789 12.316 5.66789 14.6016C5.66789 16.8883 5.67719 17.1738 5.7185 18.0718C5.75879 18.9677 5.90133 19.5801 6.11101 20.1152C6.32585 20.6688 6.61505 21.1379 7.08399 21.606C7.55292 22.074 8.02291 22.3617 8.57758 22.5771C9.11365 22.7854 9.72718 22.9276 10.6248 22.9679C11.5244 23.0091 11.8116 23.0184 14.1015 23.0184C16.3925 23.0184 16.6796 23.0091 17.5793 22.9679C18.4769 22.9266 19.0904 22.7854 19.6265 22.5771C20.1811 22.3617 20.6511 22.074 21.12 21.606C21.589 21.1379 21.8771 20.6688 22.093 20.1152C22.3017 19.5801 22.4442 18.9677 22.4855 18.0718C22.5268 17.1749 22.5361 16.8883 22.5361 14.6016Z" fill="#5E6774"/>
</svg>
