<svg width="45" height="45" viewBox="0 0 45 45" fill="none" xmlns="http://www.w3.org/2000/svg">
<path d="M33.6196 27.8629C33.6196 31.0394 31.0633 33.6384 27.9104 33.6384H17.0031C13.8503 33.6384 11.3223 31.0394 11.3223 27.8629V16.7449C11.3223 13.5684 13.8503 10.9694 17.0031 10.9694H27.9104C31.0633 10.9694 33.6196 13.5684 33.6196 16.7449V27.8629ZM36.2044 16.7449C36.2044 12.0956 32.4835 8.34154 27.9104 8.34154H17.0031C12.43 8.34154 8.70908 12.0956 8.70908 16.7449V27.8629C8.70908 32.5122 12.43 36.2663 17.0031 36.2663H27.9104C32.4835 36.2663 36.2044 32.5122 36.2044 27.8629V16.7449ZM22.5136 26.9099C20.0992 26.9099 18.1677 24.9173 18.1677 22.4916C18.1677 20.037 20.0992 18.0733 22.5136 18.0733C24.8995 18.0733 26.8594 20.037 26.8594 22.4916C26.8594 24.9173 24.8995 26.9099 22.5136 26.9099ZM22.5136 15.5898C18.7642 15.5898 15.7249 18.6798 15.7249 22.4916C15.7249 26.2746 18.7642 29.3934 22.5136 29.3934C26.2629 29.3934 29.3022 26.2746 29.3022 22.4916C29.3022 18.6798 26.2629 15.5898 22.5136 15.5898ZM29.6999 13.4818C28.7909 13.4818 28.0808 14.2037 28.0808 15.1278C28.0808 16.023 28.7909 16.7738 29.6999 16.7738C30.5804 16.7738 31.3189 16.023 31.3189 15.1278C31.3189 14.2037 30.5804 13.4818 29.6999 13.4818ZM22.3431 2.39274C11.4359 2.39274 2.57376 11.4026 2.57376 22.4916C2.57376 33.5518 11.4359 42.5616 22.3431 42.5616C33.222 42.5616 42.0841 33.5518 42.0841 22.4916C42.0841 11.4026 33.222 2.39274 22.3431 2.39274ZM22.3431 44.6697C10.2997 44.6697 0.500244 34.7357 0.500244 22.4916C0.500244 10.2475 10.2997 0.284668 22.3431 0.284668C34.3582 0.284668 44.1576 10.2475 44.1576 22.4916C44.1576 34.7357 34.3582 44.6697 22.3431 44.6697Z" fill="#8F8F8F"/>
</svg>
