<svg width="570" height="109" viewBox="0 0 570 109" fill="none" xmlns="http://www.w3.org/2000/svg">
<g clip-path="url(#clip0_1_55)">
<path d="M108 58.3947C107.538 59.7875 107.024 61.1287 106.459 62.4184C104.558 66.0809 101.372 69.1761 97.2103 70.93C88.0133 74.8505 77.4805 70.7752 73.5756 61.9025C73.0619 60.5613 72.6508 59.1685 72.3939 57.7241C72.2912 57.1567 72.2398 56.6408 72.137 56.0734C72.137 55.7123 72.0856 55.4028 72.0856 55.0417C72.0856 55.0932 72.0343 55.1448 72.0343 55.1448C71.6232 48.903 75.2198 41.4231 79.176 36.832C77.1208 37.2963 62.8373 38.1216 62.8373 38.1216C62.8373 38.1216 48.3482 56.2797 54.7193 78.7709C56.5176 85.116 60.7307 93.3696 64.5328 96.1037C64.8411 96.1037 65.2008 96.1037 65.509 96.1037C65.5604 96.1037 65.6118 96.1037 65.6118 96.1037C65.7659 96.1037 65.9201 96.1037 66.0742 96.1037C66.1256 96.1037 66.177 96.1037 66.2284 96.1037C66.3825 96.1037 66.588 96.1037 66.7422 96.1037C66.7935 96.1037 66.7935 96.1037 66.8449 96.1037C67.256 96.1037 67.6156 96.1037 68.0266 96.0521C68.078 96.0521 68.1294 96.0521 68.1808 96.0521C68.3349 96.0521 68.4891 96.0521 68.6432 96.0005C68.6946 96.0005 68.746 96.0005 68.7973 96.0005C68.9515 96.0005 69.1056 96.0005 69.2598 95.9489C69.3111 95.9489 69.3111 95.9489 69.3625 95.9489C69.7736 95.8973 70.1332 95.8973 70.5443 95.8457C70.5956 95.8457 70.647 95.8457 70.6984 95.8457C70.8525 95.8457 71.0067 95.7941 71.1608 95.7941C71.2122 95.7941 71.2636 95.7941 71.3149 95.7941C71.4691 95.7941 71.6232 95.7426 71.7774 95.7426C71.8287 95.7426 71.8801 95.7426 71.8801 95.7426C72.0856 95.691 72.2912 95.691 72.4967 95.6394C72.7022 95.5878 72.8563 95.5878 73.0619 95.5362C73.1132 95.5362 73.1646 95.5362 73.216 95.4846C73.3701 95.4846 73.5243 95.433 73.627 95.433C73.6784 95.433 73.7298 95.433 73.7812 95.3815C73.9353 95.3299 74.0894 95.3299 74.2436 95.2783C74.295 95.2783 74.3463 95.2783 74.3977 95.2267C74.6032 95.1751 74.8088 95.1235 74.9629 95.1235C75.1684 95.0719 75.3226 95.0204 75.5281 95.0204C75.5795 95.0204 75.6308 95.0204 75.6822 94.9688C75.8364 94.9172 75.9391 94.9172 76.0933 94.8656C76.1446 94.8656 76.196 94.814 76.2988 94.814C76.4529 94.7624 76.607 94.7624 76.7098 94.7108C76.7612 94.7108 76.8126 94.6593 76.8639 94.6593C77.0695 94.6077 77.275 94.5561 77.4291 94.5045C77.6346 94.4529 77.7888 94.4013 77.9943 94.3497C78.0457 94.3497 78.0971 94.2982 78.1484 94.2982C78.3026 94.2466 78.4053 94.195 78.5595 94.195C78.6109 94.195 78.7136 94.1434 78.765 94.1434C78.9191 94.0918 79.0219 94.0402 79.176 93.9886C79.2274 93.9886 79.2788 93.9371 79.3302 93.9371C79.5357 93.8855 79.6898 93.7823 79.8953 93.7307C80.1009 93.6791 80.255 93.576 80.4605 93.5244C80.5119 93.5244 80.5633 93.4728 80.6147 93.4728C80.7688 93.4212 80.8716 93.3696 81.0257 93.318C81.0771 93.318 81.1798 93.2665 81.2312 93.2665C81.3854 93.2149 81.4881 93.1633 81.6422 93.1117C81.6936 93.1117 81.745 93.0601 81.7964 93.0601C82.0019 93.0085 82.1561 92.9054 82.3616 92.8538C82.6185 92.7506 82.8754 92.6474 83.1323 92.5443C83.235 92.4927 83.2864 92.4927 83.3892 92.4411C83.5433 92.3895 83.7488 92.2863 83.903 92.1832C84.0057 92.1316 84.1085 92.08 84.1599 92.0284C84.314 91.9768 84.4681 91.8736 84.6223 91.8221C84.725 91.7705 84.8278 91.7189 84.8792 91.6673C85.0333 91.5641 85.1875 91.5125 85.3416 91.4094C85.4443 91.3578 85.4957 91.3062 85.5985 91.2546C85.7526 91.1514 85.9581 91.0483 86.1123 90.9967C86.1637 90.9451 86.2664 90.9451 86.3178 90.8935C86.5747 90.7388 86.7802 90.6356 87.0371 90.4808C87.0885 90.4808 87.0885 90.4293 87.1399 90.4293C87.3454 90.3261 87.5509 90.2229 87.705 90.0682C87.7564 90.0166 87.8592 89.965 87.9106 89.9134C88.0647 89.8102 88.2188 89.7071 88.373 89.6039C88.4757 89.5523 88.5271 89.5007 88.6299 89.4491C88.784 89.346 88.9382 89.2428 89.0409 89.1912C89.1437 89.1396 89.1951 89.088 89.2978 89.0365C89.452 88.9333 89.6061 88.8301 89.7602 88.7269C89.8116 88.6754 89.9144 88.6238 89.9658 88.5722C90.1713 88.469 90.3254 88.3143 90.5309 88.2111C90.5823 88.2111 90.5823 88.1595 90.6337 88.1595C90.8392 88.0047 91.0447 87.85 91.3016 87.6952C91.353 87.6436 91.4044 87.6436 91.4044 87.5921C91.5585 87.4889 91.764 87.3341 91.9182 87.231C91.9696 87.1794 92.0723 87.1278 92.1237 87.0762C92.2778 86.973 92.432 86.8699 92.5347 86.7151C92.5861 86.6635 92.6889 86.6119 92.7403 86.5604C92.8944 86.4572 92.9972 86.354 93.1513 86.1993C93.2027 86.1477 93.3054 86.0961 93.3568 86.0445C93.5109 85.9413 93.6651 85.7866 93.8192 85.6834C93.8706 85.6318 93.922 85.5802 93.9734 85.5286C94.3844 85.1675 94.7441 84.8064 95.1551 84.4453C95.2065 84.3938 95.2579 84.3938 95.2579 84.3422C95.412 84.1874 95.5661 84.0327 95.7203 83.9295C95.7717 83.8779 95.823 83.8263 95.8744 83.7747C96.0286 83.62 96.1313 83.5168 96.2854 83.3621C96.3368 83.3105 96.3882 83.2589 96.4396 83.2073C96.5937 83.0525 96.6965 82.9494 96.8506 82.7946C96.902 82.743 96.9534 82.6914 97.0048 82.6399C97.1589 82.4851 97.313 82.3303 97.4158 82.1756C97.4672 82.124 97.4672 82.124 97.5186 82.0724C97.8782 81.6597 98.1865 81.2986 98.5462 80.886C98.5975 80.8344 98.5975 80.7828 98.6489 80.7312C98.7517 80.5764 98.9058 80.4217 99.0086 80.2669C99.0599 80.2153 99.1113 80.1638 99.1627 80.1122C99.2655 79.9574 99.4196 79.8027 99.5224 79.6479C99.5737 79.5963 99.6251 79.5447 99.6765 79.4931C99.7793 79.3384 99.9334 79.1836 100.036 79.0289C100.088 78.9773 100.088 78.9257 100.139 78.8741C100.293 78.6678 100.396 78.513 100.55 78.3067C100.55 78.3067 100.55 78.2551 100.601 78.2551C100.755 78.0488 100.91 77.8424 101.064 77.5845C101.064 77.5845 101.064 77.5845 101.064 77.5329C101.218 77.3266 101.321 77.1202 101.475 76.9139C101.526 76.8623 101.526 76.8107 101.578 76.7591C101.68 76.6044 101.783 76.4496 101.886 76.2948C101.937 76.2433 101.989 76.1917 101.989 76.0885C102.091 75.9338 102.194 75.779 102.297 75.6242C102.297 75.5727 102.348 75.5727 102.348 75.5211C105.534 70.2594 107.435 64.4302 108 58.3947Z" fill="#3D8FCD"/>
<path opacity="0.2" d="M108 58.3947C107.538 59.7875 107.024 61.1287 106.459 62.4184C104.558 66.0809 101.372 69.1761 97.2103 70.93C88.0133 74.8505 77.4805 70.7752 73.5756 61.9025C73.0619 60.5613 72.6508 59.1685 72.3939 57.7241C72.2912 57.1567 72.2398 56.6408 72.137 56.0734C72.137 55.7123 72.0856 55.4028 72.0856 55.0417C72.0856 55.0932 72.0343 55.1448 72.0343 55.1448C71.6232 48.903 75.2198 41.4231 79.176 36.832C77.1208 37.2963 62.8373 38.1216 62.8373 38.1216C62.8373 38.1216 48.3482 56.2797 54.7193 78.7709C56.5176 85.116 60.7307 93.3696 64.5328 96.1037C64.8411 96.1037 65.2008 96.1037 65.509 96.1037C65.5604 96.1037 65.6118 96.1037 65.6118 96.1037C65.7659 96.1037 65.9201 96.1037 66.0742 96.1037C66.1256 96.1037 66.177 96.1037 66.2284 96.1037C66.3825 96.1037 66.588 96.1037 66.7422 96.1037C66.7935 96.1037 66.7935 96.1037 66.8449 96.1037C67.256 96.1037 67.6156 96.1037 68.0266 96.0521C68.078 96.0521 68.1294 96.0521 68.1808 96.0521C68.3349 96.0521 68.4891 96.0521 68.6432 96.0005C68.6946 96.0005 68.746 96.0005 68.7973 96.0005C68.9515 96.0005 69.1056 96.0005 69.2598 95.9489C69.3111 95.9489 69.3111 95.9489 69.3625 95.9489C69.7736 95.8973 70.1332 95.8973 70.5443 95.8457C70.5956 95.8457 70.647 95.8457 70.6984 95.8457C70.8525 95.8457 71.0067 95.7941 71.1608 95.7941C71.2122 95.7941 71.2636 95.7941 71.3149 95.7941C71.4691 95.7941 71.6232 95.7426 71.7774 95.7426C71.8287 95.7426 71.8801 95.7426 71.8801 95.7426C72.0856 95.691 72.2912 95.691 72.4967 95.6394C72.7022 95.5878 72.8563 95.5878 73.0619 95.5362C73.1132 95.5362 73.1646 95.5362 73.216 95.4846C73.3701 95.4846 73.5243 95.433 73.627 95.433C73.6784 95.433 73.7298 95.433 73.7812 95.3815C73.9353 95.3299 74.0894 95.3299 74.2436 95.2783C74.295 95.2783 74.3463 95.2783 74.3977 95.2267C74.6032 95.1751 74.8088 95.1235 74.9629 95.1235C75.1684 95.0719 75.3226 95.0204 75.5281 95.0204C75.5795 95.0204 75.6308 95.0204 75.6822 94.9688C75.8364 94.9172 75.9391 94.9172 76.0933 94.8656C76.1446 94.8656 76.196 94.814 76.2988 94.814C76.4529 94.7624 76.607 94.7624 76.7098 94.7108C76.7612 94.7108 76.8126 94.6593 76.8639 94.6593C77.0695 94.6077 77.275 94.5561 77.4291 94.5045C77.6346 94.4529 77.7888 94.4013 77.9943 94.3497C78.0457 94.3497 78.0971 94.2982 78.1484 94.2982C78.3026 94.2466 78.4053 94.195 78.5595 94.195C78.6109 94.195 78.7136 94.1434 78.765 94.1434C78.9191 94.0918 79.0219 94.0402 79.176 93.9886C79.2274 93.9886 79.2788 93.9371 79.3302 93.9371C79.5357 93.8855 79.6898 93.7823 79.8953 93.7307C80.1009 93.6791 80.255 93.576 80.4605 93.5244C80.5119 93.5244 80.5633 93.4728 80.6147 93.4728C80.7688 93.4212 80.8716 93.3696 81.0257 93.318C81.0771 93.318 81.1798 93.2665 81.2312 93.2665C81.3854 93.2149 81.4881 93.1633 81.6422 93.1117C81.6936 93.1117 81.745 93.0601 81.7964 93.0601C82.0019 93.0085 82.1561 92.9054 82.3616 92.8538C82.6185 92.7506 82.8754 92.6474 83.1323 92.5443C83.235 92.4927 83.2864 92.4927 83.3892 92.4411C83.5433 92.3895 83.7488 92.2863 83.903 92.1832C84.0057 92.1316 84.1085 92.08 84.1599 92.0284C84.314 91.9768 84.4681 91.8736 84.6223 91.8221C84.725 91.7705 84.8278 91.7189 84.8792 91.6673C85.0333 91.5641 85.1875 91.5125 85.3416 91.4094C85.4443 91.3578 85.4957 91.3062 85.5985 91.2546C85.7526 91.1514 85.9581 91.0483 86.1123 90.9967C86.1637 90.9451 86.2664 90.9451 86.3178 90.8935C86.5747 90.7388 86.7802 90.6356 87.0371 90.4808C87.0885 90.4808 87.0885 90.4293 87.1399 90.4293C87.3454 90.3261 87.5509 90.2229 87.705 90.0682C87.7564 90.0166 87.8592 89.965 87.9106 89.9134C88.0647 89.8102 88.2188 89.7071 88.373 89.6039C88.4757 89.5523 88.5271 89.5007 88.6299 89.4491C88.784 89.346 88.9382 89.2428 89.0409 89.1912C89.1437 89.1396 89.1951 89.088 89.2978 89.0365C89.452 88.9333 89.6061 88.8301 89.7602 88.7269C89.8116 88.6754 89.9144 88.6238 89.9658 88.5722C90.1713 88.469 90.3254 88.3143 90.5309 88.2111C90.5823 88.2111 90.5823 88.1595 90.6337 88.1595C90.8392 88.0047 91.0447 87.85 91.3016 87.6952C91.353 87.6436 91.4044 87.6436 91.4044 87.5921C91.5585 87.4889 91.764 87.3341 91.9182 87.231C91.9696 87.1794 92.0723 87.1278 92.1237 87.0762C92.2778 86.973 92.432 86.8699 92.5347 86.7151C92.5861 86.6635 92.6889 86.6119 92.7403 86.5604C92.8944 86.4572 92.9972 86.354 93.1513 86.1993C93.2027 86.1477 93.3054 86.0961 93.3568 86.0445C93.5109 85.9413 93.6651 85.7866 93.8192 85.6834C93.8706 85.6318 93.922 85.5802 93.9734 85.5286C94.3844 85.1675 94.7441 84.8064 95.1551 84.4453C95.2065 84.3938 95.2579 84.3938 95.2579 84.3422C95.412 84.1874 95.5661 84.0327 95.7203 83.9295C95.7717 83.8779 95.823 83.8263 95.8744 83.7747C96.0286 83.62 96.1313 83.5168 96.2854 83.3621C96.3368 83.3105 96.3882 83.2589 96.4396 83.2073C96.5937 83.0525 96.6965 82.9494 96.8506 82.7946C96.902 82.743 96.9534 82.6914 97.0048 82.6399C97.1589 82.4851 97.313 82.3303 97.4158 82.1756C97.4672 82.124 97.4672 82.124 97.5186 82.0724C97.8782 81.6597 98.1865 81.2986 98.5462 80.886C98.5975 80.8344 98.5975 80.7828 98.6489 80.7312C98.7517 80.5764 98.9058 80.4217 99.0086 80.2669C99.0599 80.2153 99.1113 80.1638 99.1627 80.1122C99.2655 79.9574 99.4196 79.8027 99.5224 79.6479C99.5737 79.5963 99.6251 79.5447 99.6765 79.4931C99.7793 79.3384 99.9334 79.1836 100.036 79.0289C100.088 78.9773 100.088 78.9257 100.139 78.8741C100.293 78.6678 100.396 78.513 100.55 78.3067C100.55 78.3067 100.55 78.2551 100.601 78.2551C100.755 78.0488 100.91 77.8424 101.064 77.5845C101.064 77.5845 101.064 77.5845 101.064 77.5329C101.218 77.3266 101.321 77.1202 101.475 76.9139C101.526 76.8623 101.526 76.8107 101.578 76.7591C101.68 76.6044 101.783 76.4496 101.886 76.2948C101.937 76.2433 101.989 76.1917 101.989 76.0885C102.091 75.9338 102.194 75.779 102.297 75.6242C102.297 75.5727 102.348 75.5727 102.348 75.5211C105.534 70.2594 107.435 64.4302 108 58.3947Z" fill="url(#paint0_linear_1_55)"/>
<path opacity="0.4" d="M106.459 62.4184C104.558 66.0809 101.372 69.1761 97.2103 70.93C88.0133 74.8505 77.4805 70.7752 73.5756 61.9025C73.0619 60.5613 72.6508 59.1685 72.3939 57.7241C72.2912 57.1567 72.2398 56.6408 72.137 56.0734C72.137 55.7123 72.0856 55.4028 72.0856 55.0417C72.0856 55.0932 72.0343 55.1448 72.0343 55.1448C71.6232 49.3157 74.7574 42.3516 78.4053 37.709C71.726 41.5263 67.2046 48.7482 67.2046 57.0019C67.2046 69.2276 77.0695 79.132 89.2464 79.132C94.4358 79.132 99.1627 77.3266 102.913 74.3346C105.637 69.3824 107.383 63.9143 107.897 58.3431C107.538 59.7875 107.024 61.1287 106.459 62.4184Z" fill="url(#paint1_linear_1_55)"/>
<path d="M102.091 79.5963C101.886 79.8542 101.732 79.9574 101.629 80.0606C97.313 82.8462 92.2265 84.4453 86.7288 84.4453C72.7022 84.4453 61.1418 73.9219 59.3949 60.3549C59.2407 59.1685 59.1893 57.982 59.1893 56.744C59.1893 49.4188 62.0152 42.7643 66.6394 37.8121C63.0942 38.07 59.8059 38.4311 58.6242 38.6891C52.8697 40.0819 47.7831 43.0738 43.4158 47.2007C35.452 54.6806 30.0057 65.6167 27.4367 76.9139C25.4843 85.5802 27.2826 98.2702 30.5195 103.687C30.9305 103.893 31.2902 104.048 31.7012 104.254C31.7526 104.254 31.804 104.306 31.8554 104.306C32.0609 104.409 32.215 104.46 32.4206 104.564C32.4719 104.564 32.5233 104.615 32.5747 104.615C32.7802 104.718 32.9857 104.77 33.1912 104.873C33.2426 104.873 33.2426 104.925 33.294 104.925C33.7564 105.131 34.2702 105.337 34.7326 105.492C34.784 105.492 34.8354 105.544 34.8868 105.544C35.0923 105.595 35.2464 105.699 35.452 105.75C35.5033 105.75 35.5547 105.802 35.6575 105.802C35.863 105.853 36.0685 105.956 36.274 106.008C36.3254 106.008 36.3768 106.06 36.3768 106.06C36.8906 106.214 37.353 106.369 37.8668 106.524C37.9182 106.524 37.9696 106.575 38.0723 106.575C38.2778 106.627 38.432 106.679 38.6375 106.73C38.6889 106.73 38.7916 106.782 38.843 106.782C39.0485 106.833 39.254 106.885 39.4596 106.937C39.5109 106.937 39.5623 106.988 39.6137 106.988C39.8706 107.04 40.1275 107.143 40.3844 107.195C40.6413 107.246 40.8982 107.298 41.1037 107.401C41.1551 107.401 41.2579 107.452 41.3092 107.452C41.5148 107.504 41.6689 107.556 41.8744 107.607C41.9258 107.607 42.0285 107.659 42.0799 107.659C42.2854 107.71 42.491 107.762 42.6451 107.762C42.6965 107.762 42.7479 107.814 42.8506 107.814C43.1075 107.865 43.3644 107.917 43.6213 107.968C43.8782 108.02 44.1351 108.071 44.3406 108.123C44.392 108.123 44.4948 108.123 44.5461 108.175C44.7517 108.226 44.9058 108.226 45.1113 108.278C45.2141 108.278 45.2655 108.329 45.3682 108.329C45.5737 108.381 45.7279 108.381 45.9334 108.433C45.9848 108.433 46.0875 108.433 46.1389 108.484C46.3958 108.536 46.6527 108.536 46.9096 108.587C46.9096 108.587 46.9096 108.587 46.961 108.587C47.2179 108.639 47.4748 108.639 47.7317 108.69C47.8344 108.69 47.8858 108.69 47.9886 108.742C48.1941 108.742 48.3482 108.794 48.5538 108.794C48.6565 108.794 48.7079 108.794 48.8107 108.845C49.0162 108.845 49.1703 108.897 49.3758 108.897C49.4786 108.897 49.53 108.897 49.6327 108.897C49.8896 108.897 50.1465 108.948 50.4034 108.948C50.4034 108.948 50.4034 108.948 50.4548 108.948C50.7117 108.948 50.9686 109 51.2255 109C51.3283 109 51.3796 109 51.4824 109C51.6879 109 51.8421 109 52.0476 109C52.1503 109 52.2531 109 52.3045 109C52.51 109 52.6641 109 52.8697 109C52.9724 109 53.0238 109 53.1266 109C53.3834 109 53.6403 109 53.9486 109C54.3083 109 54.6679 109 55.0276 109C55.1304 109 55.2331 109 55.3873 109C55.6442 109 55.8497 109 56.1066 109C56.2607 109 56.3635 109 56.5176 109C56.7231 109 56.98 109 57.1855 108.948C57.3397 108.948 57.4424 108.948 57.5966 108.948C57.8021 108.948 58.059 108.897 58.2645 108.897C58.4187 108.897 58.5214 108.897 58.6242 108.845C58.8811 108.845 59.138 108.794 59.3949 108.794C59.4976 108.794 59.6004 108.794 59.7031 108.742C60.0628 108.69 60.4225 108.639 60.7307 108.639C60.7821 108.639 60.8335 108.639 60.8849 108.639C61.1932 108.587 61.4501 108.536 61.7583 108.536C61.8611 108.536 61.9639 108.484 62.118 108.484C62.3749 108.433 62.5804 108.433 62.8373 108.381C62.9401 108.381 63.0942 108.329 63.197 108.329C63.4025 108.278 63.6594 108.226 63.8649 108.226C63.9677 108.226 64.1218 108.175 64.2246 108.175C64.4815 108.123 64.687 108.071 64.8925 108.02C64.9952 108.02 65.098 107.968 65.2008 107.968C65.509 107.917 65.7659 107.865 66.0228 107.762C66.0742 107.762 66.1256 107.762 66.177 107.71C66.5366 107.607 66.8449 107.556 67.2046 107.452C67.256 107.452 67.3587 107.401 67.4101 107.401C67.667 107.349 67.9239 107.246 68.2322 107.195C68.3349 107.143 68.4377 107.143 68.5404 107.091C68.746 107.04 69.0029 106.937 69.2084 106.885C69.3111 106.833 69.4139 106.833 69.568 106.782C69.7736 106.73 70.0305 106.627 70.236 106.575C70.3387 106.524 70.4415 106.524 70.5443 106.472C70.8011 106.369 71.0067 106.318 71.2636 106.214C71.3663 106.163 71.4177 106.163 71.5205 106.111C72.1884 105.905 72.805 105.647 73.4729 105.389C73.5243 105.389 73.627 105.337 73.6784 105.286C73.9353 105.183 74.1922 105.08 74.4491 104.976C74.5519 104.925 74.6546 104.873 74.706 104.873C74.9115 104.77 75.1684 104.667 75.3739 104.615C75.4767 104.564 75.5795 104.512 75.6822 104.46C75.8877 104.357 76.1446 104.254 76.3502 104.151C76.4529 104.099 76.5043 104.048 76.607 104.048C76.8639 103.945 77.1208 103.79 77.3777 103.687C77.4291 103.635 77.4805 103.635 77.5319 103.635C78.1484 103.326 78.765 103.016 79.3815 102.707C79.4329 102.655 79.5357 102.655 79.5871 102.603C79.844 102.5 80.0495 102.345 80.3064 102.242C80.4091 102.191 80.4605 102.139 80.5633 102.088C80.7688 101.984 80.9743 101.83 81.2312 101.726C81.334 101.675 81.3854 101.623 81.4881 101.572C81.6936 101.417 81.9505 101.314 82.156 101.159C82.2074 101.107 82.3102 101.056 82.3616 101.004C82.6185 100.85 82.8754 100.695 83.1323 100.488L83.1836 100.437C83.4919 100.23 83.8002 100.076 84.0571 99.8694C84.0571 99.8694 84.0571 99.8694 84.1085 99.8694C84.3654 99.663 84.6223 99.5083 84.8792 99.3019C84.9305 99.2504 85.0333 99.1988 85.0847 99.1472C85.2902 98.9924 85.4957 98.8377 85.7012 98.6829C85.804 98.6313 85.8554 98.5797 85.9581 98.5282C86.1637 98.3734 86.3692 98.2186 86.5233 98.1155C86.5747 98.0639 86.6261 98.0639 86.6775 98.0123C93.0485 93.0601 98.3406 86.8183 102.091 79.5963Z" fill="#6BB9E7"/>
<path opacity="0.3" d="M102.091 79.5963C101.886 79.8542 101.68 80.009 101.629 80.0606C97.313 82.8462 92.2265 84.4453 86.7288 84.4453C72.7022 84.4453 61.1418 73.9219 59.3949 60.3549C59.2407 59.1685 59.1893 57.982 59.1893 56.744C59.1893 49.4188 62.0152 42.7643 66.6394 37.8121C63.0942 38.07 59.8059 38.4311 58.6242 38.6891C52.8697 40.0819 47.7831 43.0738 43.4158 47.2007C35.452 54.6806 30.0057 65.6167 27.4367 76.9139C25.4843 85.5802 27.2826 98.2702 30.5195 103.687C30.9305 103.893 31.2902 104.048 31.7012 104.254C31.7526 104.254 31.804 104.306 31.8554 104.306C32.0609 104.409 32.215 104.46 32.4206 104.564C32.4719 104.564 32.5233 104.615 32.5747 104.615C32.7802 104.718 32.9857 104.77 33.1912 104.873C33.2426 104.873 33.2426 104.925 33.294 104.925C33.7564 105.131 34.2702 105.337 34.7326 105.492C34.784 105.492 34.8354 105.544 34.8868 105.544C35.0923 105.595 35.2464 105.699 35.452 105.75C35.5033 105.75 35.5547 105.802 35.6575 105.802C35.863 105.853 36.0685 105.956 36.274 106.008C36.3254 106.008 36.3768 106.06 36.3768 106.06C36.8906 106.214 37.353 106.369 37.8668 106.524C37.9182 106.524 37.9696 106.575 38.0723 106.575C38.2778 106.627 38.432 106.679 38.6375 106.73C38.6889 106.73 38.7916 106.782 38.843 106.782C39.0485 106.833 39.254 106.885 39.4596 106.937C39.5109 106.937 39.5623 106.988 39.6137 106.988C39.8706 107.04 40.1275 107.143 40.3844 107.195C40.6413 107.246 40.8982 107.298 41.1037 107.401C41.1551 107.401 41.2579 107.452 41.3092 107.452C41.5148 107.504 41.6689 107.556 41.8744 107.607C41.9258 107.607 42.0285 107.659 42.0799 107.659C42.2854 107.71 42.491 107.762 42.6451 107.762C42.6965 107.762 42.7479 107.814 42.8506 107.814C43.1075 107.865 43.3644 107.917 43.6213 107.968C43.8782 108.02 44.1351 108.071 44.3406 108.123C44.392 108.123 44.4948 108.123 44.5461 108.175C44.7517 108.226 44.9058 108.226 45.1113 108.278C45.2141 108.278 45.2655 108.329 45.3682 108.329C45.5737 108.381 45.7279 108.381 45.9334 108.433C45.9848 108.433 46.0875 108.433 46.1389 108.484C46.3958 108.536 46.6527 108.536 46.9096 108.587C46.9096 108.587 46.9096 108.587 46.961 108.587C47.2179 108.639 47.4748 108.639 47.7317 108.69C47.8344 108.69 47.8858 108.69 47.9886 108.742C48.1941 108.742 48.3482 108.794 48.5538 108.794C48.6565 108.794 48.7079 108.794 48.8107 108.845C49.0162 108.845 49.1703 108.897 49.3758 108.897C49.4786 108.897 49.53 108.897 49.6327 108.897C49.8896 108.897 50.1465 108.948 50.4034 108.948C50.4034 108.948 50.4034 108.948 50.4548 108.948C50.7117 108.948 50.9686 109 51.2255 109C51.3283 109 51.3796 109 51.4824 109C51.6879 109 51.8421 109 52.0476 109C52.1503 109 52.2531 109 52.3045 109C52.51 109 52.6641 109 52.8697 109C52.9724 109 53.0238 109 53.1266 109C53.3834 109 53.6403 109 53.9486 109C54.3083 109 54.6679 109 55.0276 109C55.1304 109 55.2331 109 55.3873 109C55.6442 109 55.8497 109 56.1066 109C56.2607 109 56.3635 109 56.5176 109C56.7231 109 56.98 109 57.1855 108.948C57.3397 108.948 57.4424 108.948 57.5966 108.948C57.8021 108.948 58.059 108.897 58.2645 108.897C58.4187 108.897 58.5214 108.897 58.6242 108.845C58.8811 108.845 59.138 108.794 59.3949 108.794C59.4976 108.794 59.6004 108.794 59.7031 108.742C60.0628 108.69 60.4225 108.639 60.7307 108.639C60.7821 108.639 60.8335 108.639 60.8849 108.639C61.1932 108.587 61.4501 108.536 61.7583 108.536C61.8611 108.536 61.9639 108.484 62.118 108.484C62.3749 108.433 62.5804 108.433 62.8373 108.381C62.9401 108.381 63.0942 108.329 63.197 108.329C63.4025 108.278 63.6594 108.226 63.8649 108.226C63.9677 108.226 64.1218 108.175 64.2246 108.175C64.4815 108.123 64.687 108.071 64.8925 108.02C64.9952 108.02 65.098 107.968 65.2008 107.968C65.509 107.917 65.7659 107.865 66.0228 107.762C66.0742 107.762 66.1256 107.762 66.177 107.71C66.5366 107.607 66.8449 107.556 67.2046 107.452C67.256 107.452 67.3587 107.401 67.4101 107.401C67.667 107.349 67.9239 107.246 68.2322 107.195C68.3349 107.143 68.4377 107.143 68.5404 107.091C68.746 107.04 69.0029 106.937 69.2084 106.885C69.3111 106.833 69.4139 106.833 69.568 106.782C69.7736 106.73 70.0305 106.627 70.236 106.575C70.3387 106.524 70.4415 106.524 70.5443 106.472C70.8011 106.369 71.0067 106.318 71.2636 106.214C71.3663 106.163 71.4177 106.163 71.5205 106.111C72.1884 105.905 72.805 105.647 73.4729 105.389C73.5243 105.389 73.627 105.337 73.6784 105.286C73.9353 105.183 74.1922 105.08 74.4491 104.976C74.5519 104.925 74.6546 104.873 74.706 104.873C74.9115 104.77 75.1684 104.667 75.3739 104.615C75.4767 104.564 75.5795 104.512 75.6822 104.46C75.8877 104.357 76.1446 104.254 76.3502 104.151C76.4529 104.099 76.5043 104.048 76.607 104.048C76.8639 103.945 77.1208 103.79 77.3777 103.687C77.4291 103.635 77.4805 103.635 77.5319 103.635C78.1484 103.326 78.765 103.016 79.3815 102.707C79.4329 102.655 79.5357 102.655 79.5871 102.603C79.844 102.5 80.0495 102.345 80.3064 102.242C80.4091 102.191 80.4605 102.139 80.5633 102.088C80.7688 101.984 80.9743 101.83 81.2312 101.726C81.334 101.675 81.3854 101.623 81.4881 101.572C81.6936 101.417 81.9505 101.314 82.156 101.159C82.2074 101.107 82.3102 101.056 82.3616 101.004C82.6185 100.85 82.8754 100.695 83.1323 100.488L83.1836 100.437C83.4919 100.23 83.8002 100.076 84.0571 99.8694C84.0571 99.8694 84.0571 99.8694 84.1085 99.8694C84.3654 99.663 84.6223 99.5083 84.8792 99.3019C84.9305 99.2504 85.0333 99.1988 85.0847 99.1472C85.2902 98.9924 85.4957 98.8377 85.7012 98.6829C85.804 98.6313 85.8554 98.5797 85.9581 98.5282C86.1637 98.3734 86.3692 98.2186 86.5233 98.1155C86.5747 98.0639 86.6261 98.0639 86.6775 98.0123C93.0485 93.0601 98.3406 86.8183 102.091 79.5963Z" fill="url(#paint2_linear_1_55)"/>
<path opacity="0.6" d="M101.629 80.0606C97.313 82.8462 92.2265 84.4453 86.7288 84.4453C72.7022 84.4453 61.1418 73.9219 59.3949 60.3549C59.2407 59.1685 59.1893 57.982 59.1893 56.744C59.1893 49.4188 62.0152 42.7643 66.6394 37.8121C65.7659 37.8637 64.8925 37.9669 64.019 38.0185C54.6166 44.3635 48.451 55.1448 48.451 67.3706C48.451 85.5286 62.118 100.488 79.6898 102.449C79.9467 102.345 80.1522 102.191 80.4091 102.088C80.5119 102.036 80.5633 101.984 80.666 101.933C80.8716 101.83 81.0771 101.675 81.334 101.572C81.4367 101.52 81.4881 101.469 81.5909 101.417C81.7964 101.262 82.0533 101.159 82.2588 101.004C82.3102 100.953 82.4129 100.901 82.4643 100.85C82.7212 100.695 82.9781 100.54 83.235 100.334L83.2864 100.282C83.5947 100.076 83.903 99.921 84.1599 99.7146C84.1599 99.7146 84.1598 99.7146 84.2112 99.7146C84.4681 99.5083 84.725 99.3535 84.9819 99.1472C85.0333 99.0956 85.1361 99.044 85.1874 98.9924C85.393 98.8377 85.5985 98.6829 85.804 98.5282C85.9068 98.4766 85.9581 98.425 86.0609 98.3734C86.2664 98.2186 86.4719 98.0639 86.6261 97.9607C86.6775 97.9091 86.7288 97.9091 86.7802 97.8575C93.1513 93.0085 98.4434 86.7151 102.194 79.5447C101.834 79.9058 101.68 80.009 101.629 80.0606Z" fill="url(#paint3_linear_1_55)"/>
<path opacity="0.5" d="M32.6261 93.2664C32.6261 72.2196 41.3606 53.1846 55.4386 39.6692C50.9172 41.2683 46.8582 43.8992 43.313 47.2522C35.452 54.6805 30.0057 65.6167 27.4367 76.9139C25.4843 85.5802 27.2826 98.2702 30.5195 103.687C30.9305 103.893 31.2902 104.048 31.7012 104.254C31.7526 104.254 31.804 104.306 31.8554 104.306C32.0609 104.409 32.215 104.46 32.4206 104.564C32.4719 104.564 32.5233 104.615 32.5747 104.615C32.7802 104.718 32.9857 104.77 33.1912 104.873C33.2426 104.873 33.2426 104.925 33.294 104.925C33.3968 104.976 33.4482 104.976 33.5509 105.028C32.9344 101.211 32.6261 97.2901 32.6261 93.2664Z" fill="url(#paint4_linear_1_55)"/>
<path d="M93.6651 38.1732C98.5461 39.5144 101.167 41.8358 101.423 43.8476C104.352 40.185 105.174 33.3758 100.858 28.2172C94.4358 20.4794 74.3977 20.7889 74.3977 20.7889C74.3977 20.7889 68.6432 22.5944 62.0152 28.8878C53.9486 36.5741 47.372 44.2087 47.372 44.2087C54.7707 37.9669 87.5509 36.5225 93.6651 38.1732Z" fill="#FDBB11"/>
<path opacity="0.5" d="M99.0599 31.4155C101.937 34.8202 102.759 38.8954 102.297 42.5064C104.403 38.6891 104.66 32.8599 100.807 28.2688C94.3844 20.531 74.3463 20.8405 74.3463 20.8405C74.3463 20.8405 72.4453 21.408 69.568 23.1103C72.9591 23.0587 92.432 23.4198 99.0599 31.4155Z" fill="url(#paint5_linear_1_55)"/>
<path opacity="0.3" d="M93.6651 38.1732C98.5461 39.5144 101.167 41.8358 101.423 43.8476C104.352 40.185 105.174 33.3758 100.858 28.2172C94.4358 20.4794 74.3977 20.7889 74.3977 20.7889C74.3977 20.7889 68.6432 22.5944 62.0152 28.8878C53.9486 36.5741 47.372 44.2087 47.372 44.2087C54.7707 37.9669 87.5509 36.5225 93.6651 38.1732Z" fill="url(#paint6_linear_1_55)"/>
<path opacity="0.1" d="M95.0523 36.3677C86.5747 33.84 64.687 34.5622 52.2017 38.328C50.5062 40.185 47.4234 44.2087 47.4234 44.2087C54.8221 37.9669 87.5509 36.5225 93.6651 38.1732C98.5462 39.5144 101.167 41.8358 101.423 43.8476C101.886 43.2286 101.423 38.2764 95.0523 36.3677Z" fill="#EE4036"/>
<path d="M53.1779 39.7208C53.3321 39.566 53.5376 39.4113 53.6917 39.2565L53.7431 39.2049C53.8972 39.0502 54.0514 38.8954 54.2055 38.7407L54.2569 38.6891C54.411 38.5343 54.5652 38.3796 54.7707 38.2248C54.7707 38.2248 54.7707 38.2248 54.8221 38.1732C55.5414 37.5026 56.3121 36.8836 57.0314 36.2646C57.0314 36.2646 57.0828 36.2646 57.0828 36.213C57.2369 36.0582 57.4424 35.9551 57.5966 35.8003C57.648 35.8003 57.648 35.7487 57.6993 35.7487C57.8535 35.594 58.0076 35.4908 58.1617 35.336C58.2131 35.336 58.2131 35.2844 58.2645 35.2844C58.4186 35.1297 58.6242 35.0265 58.7783 34.8718L58.8297 34.8202C59.3949 34.3559 60.0114 33.9432 60.5766 33.4789C60.5766 33.4789 60.628 33.479 60.628 33.4274C60.7821 33.2726 60.9876 33.1694 61.1418 33.0663C61.1931 33.0147 61.1931 33.0147 61.2445 32.9631C61.3987 32.8599 61.5528 32.7568 61.7069 32.6536C61.7583 32.602 61.8097 32.602 61.8611 32.5504C62.0152 32.4472 62.1694 32.3441 62.3235 32.2409C62.3749 32.1893 62.4263 32.1893 62.4776 32.1377C62.6318 32.0346 62.7859 31.9314 62.9401 31.8282C62.9914 31.7766 62.9914 31.7766 63.0428 31.7766C63.2483 31.6219 63.4539 31.5187 63.608 31.3639C64.019 31.106 64.4301 30.8481 64.8411 30.5902C64.8925 30.5386 64.9439 30.5386 64.9952 30.487C65.1494 30.3838 65.3035 30.2807 65.4577 30.2291C65.509 30.1775 65.5604 30.1775 65.6632 30.1259C65.8173 30.0227 65.9201 29.9711 66.0742 29.868C66.1256 29.8164 66.2284 29.7648 66.2797 29.7648C66.4339 29.6616 66.5366 29.61 66.6908 29.5069C66.7422 29.4553 66.8449 29.4037 66.8963 29.4037C67.0504 29.3005 67.2046 29.2489 67.3587 29.1458C67.4101 29.0942 67.4615 29.0942 67.5128 29.0426C67.7184 28.9394 67.8725 28.8363 68.078 28.7331C68.078 28.7331 68.1294 28.7331 68.1294 28.6815C68.3349 28.5783 68.5404 28.4752 68.746 28.3204C68.7973 28.2688 68.8487 28.2688 68.9001 28.2172C69.0542 28.1141 69.2084 28.0625 69.3625 27.9593C69.4139 27.9077 69.5166 27.8561 69.568 27.8561C69.7222 27.8046 69.8249 27.7014 69.9791 27.6498C70.0818 27.5982 70.1332 27.5466 70.236 27.5466C70.3387 27.495 70.4929 27.3919 70.647 27.3403C70.7498 27.2887 70.8011 27.2371 70.9039 27.2371C71.058 27.1855 71.1608 27.0824 71.3149 27.0308C71.4177 26.9792 71.4691 26.9276 71.5718 26.9276C71.726 26.876 71.8801 26.7728 71.9829 26.7213C72.0343 26.6697 72.137 26.6697 72.1884 26.6181C72.3939 26.5149 72.5994 26.4117 72.8049 26.3086C67.0504 23.8841 60.7821 22.4397 54.2055 22.0786C35.1951 21.0984 17.9829 29.7132 7.24453 43.6413C4.36727 47.3554 -2.7745 59.4264 4.7783 77.5329C4.93244 75.0568 6.0628 70.93 8.01522 67.8348C9.29971 65.823 10.687 64.2754 11.9201 63.1406C11.0466 66.1325 10.5842 69.3308 10.5842 72.6323C10.5842 86.6119 18.9591 98.5798 30.9305 103.841C30.4681 100.488 30.2112 97.0838 30.2112 93.576C30.1598 72.3744 38.9971 53.2362 53.1779 39.7208Z" fill="#98D9F3"/>
<path opacity="0.3" d="M53.1779 39.7208C53.3321 39.566 53.5376 39.4113 53.6917 39.2565L53.7431 39.2049C53.8972 39.0502 54.0514 38.8954 54.2055 38.7407L54.2569 38.6891C54.411 38.5343 54.5652 38.3796 54.7707 38.2248C54.7707 38.2248 54.7707 38.2248 54.8221 38.1732C55.5414 37.5026 56.3121 36.8836 57.0314 36.2646C57.0314 36.2646 57.0828 36.2646 57.0828 36.213C57.2369 36.0582 57.4424 35.9551 57.5966 35.8003C57.648 35.8003 57.648 35.7487 57.6993 35.7487C57.8535 35.594 58.0076 35.4908 58.1617 35.336C58.2131 35.336 58.2131 35.2844 58.2645 35.2844C58.4186 35.1297 58.6242 35.0265 58.7783 34.8718L58.8297 34.8202C59.3949 34.3559 60.0114 33.9432 60.5766 33.4789C60.5766 33.4789 60.628 33.479 60.628 33.4274C60.7821 33.2726 60.9876 33.1694 61.1418 33.0663C61.1931 33.0147 61.1931 33.0147 61.2445 32.9631C61.3987 32.8599 61.5528 32.7568 61.7069 32.6536C61.7583 32.602 61.8097 32.602 61.8611 32.5504C62.0152 32.4472 62.1694 32.3441 62.3235 32.2409C62.3749 32.1893 62.4263 32.1893 62.4776 32.1377C62.6318 32.0346 62.7859 31.9314 62.9401 31.8282C62.9914 31.7766 62.9914 31.7766 63.0428 31.7766C63.2483 31.6219 63.4539 31.5187 63.608 31.3639C64.019 31.106 64.4301 30.8481 64.8411 30.5902C64.8925 30.5386 64.9439 30.5386 64.9952 30.487C65.1494 30.3838 65.3035 30.2807 65.4577 30.2291C65.509 30.1775 65.5604 30.1775 65.6632 30.1259C65.8173 30.0227 65.9201 29.9711 66.0742 29.868C66.1256 29.8164 66.2284 29.7648 66.2797 29.7648C66.4339 29.6616 66.5366 29.61 66.6908 29.5069C66.7422 29.4553 66.8449 29.4037 66.8963 29.4037C67.0504 29.3005 67.2046 29.2489 67.3587 29.1458C67.4101 29.0942 67.4615 29.0942 67.5128 29.0426C67.7184 28.9394 67.8725 28.8363 68.078 28.7331C68.078 28.7331 68.1294 28.7331 68.1294 28.6815C68.3349 28.5783 68.5404 28.4752 68.746 28.3204C68.7973 28.2688 68.8487 28.2688 68.9001 28.2172C69.0542 28.1141 69.2084 28.0625 69.3625 27.9593C69.4139 27.9077 69.5166 27.8561 69.568 27.8561C69.7222 27.8046 69.8249 27.7014 69.9791 27.6498C70.0818 27.5982 70.1332 27.5466 70.236 27.5466C70.3387 27.495 70.4929 27.3919 70.647 27.3403C70.7498 27.2887 70.8011 27.2371 70.9039 27.2371C71.058 27.1855 71.1608 27.0824 71.3149 27.0308C71.4177 26.9792 71.4691 26.9276 71.5718 26.9276C71.726 26.876 71.8801 26.7728 71.9829 26.7213C72.0343 26.6697 72.137 26.6697 72.1884 26.6181C72.3939 26.5149 72.5994 26.4117 72.8049 26.3086C67.0504 23.8841 60.7821 22.4397 54.2055 22.0786C35.1951 21.0984 17.9829 29.7132 7.24453 43.6413C4.36727 47.3554 -2.7745 59.4264 4.7783 77.5329C4.93244 75.0568 6.0628 70.93 8.01522 67.8348C9.29971 65.823 10.687 64.2754 11.9201 63.1406C11.0466 66.1325 10.5842 69.3308 10.5842 72.6323C10.5842 86.6119 18.9591 98.5798 30.9305 103.841C30.4681 100.488 30.2112 97.0838 30.2112 93.576C30.1598 72.3744 38.9971 53.2362 53.1779 39.7208Z" fill="url(#paint7_linear_1_55)"/>
<path opacity="0.2" d="M22.2474 75.1084C22.2474 85.735 25.3815 95.5878 30.7764 103.841C30.8278 103.841 30.8278 103.893 30.8792 103.893C30.4167 100.54 30.1598 97.1354 30.1598 93.6275C30.1598 72.4259 38.9971 53.2877 53.1779 39.7208C53.3321 39.566 53.5376 39.4113 53.6917 39.2565L53.7431 39.2049C53.8972 39.0502 54.0514 38.8954 54.2055 38.7407L54.2569 38.6891C54.411 38.5343 54.5652 38.3796 54.7707 38.2248C54.7707 38.2248 54.7707 38.2248 54.8221 38.1732C55.5414 37.5026 56.3121 36.8836 57.0314 36.2646C57.0314 36.2646 57.0828 36.2646 57.0828 36.213C57.2369 36.0582 57.4424 35.955 57.5966 35.8003C57.6479 35.8003 57.6479 35.7487 57.6993 35.7487C57.8535 35.5939 58.0076 35.4908 58.1617 35.336C58.2131 35.336 58.2131 35.2844 58.2645 35.2844C58.4186 35.1297 58.6242 35.0265 58.7783 34.8717L58.8297 34.8202C59.3949 34.3559 60.0114 33.9432 60.5766 33.4789C60.5766 33.4789 60.628 33.4789 60.628 33.4274C60.7821 33.2726 60.9876 33.1694 61.1418 33.0663C61.1931 33.0147 61.1931 33.0147 61.2445 32.9631C61.3987 32.8599 61.5528 32.7567 61.7069 32.6536C61.7583 32.602 61.8097 32.602 61.8611 32.5504C62.0152 32.4472 62.1694 32.3441 62.3235 32.2409C62.3749 32.1893 62.4263 32.1893 62.4776 32.1377C62.6318 32.0345 62.7859 31.9314 62.94 31.8282C62.9914 31.7766 62.9914 31.7766 63.0428 31.7766C63.2483 31.6219 63.4538 31.5187 63.608 31.3639C64.019 31.106 64.4301 30.8481 64.8411 30.5902C64.8925 30.5386 64.9439 30.5386 64.9952 30.487C65.1494 30.3838 65.3035 30.2806 65.4577 30.2291C65.509 30.1775 65.5604 30.1775 65.6632 30.1259C65.8173 30.0227 65.9201 29.9711 66.0742 29.868C66.1256 29.8164 66.2283 29.7648 66.2797 29.7648C66.4339 29.6616 66.5366 29.61 66.6908 29.5069C66.7421 29.4553 66.8449 29.4037 66.8963 29.4037C67.0504 29.3005 67.2046 29.2489 67.3587 29.1458C67.4101 29.0942 67.4615 29.0942 67.5128 29.0426C67.7184 28.9394 67.8725 28.8363 68.078 28.7331C68.078 28.7331 68.1294 28.7331 68.1294 28.6815C68.3349 28.5783 68.5404 28.4752 68.7459 28.3204C68.7973 28.2688 68.8487 28.2688 68.9001 28.2172C69.0542 28.1141 69.2084 28.0625 69.3625 27.9593C69.4139 27.9077 69.5166 27.8561 69.568 27.8561C69.7222 27.8045 69.8249 27.7014 69.9791 27.6498C70.0818 27.5982 70.1332 27.5466 70.236 27.5466C70.3387 27.495 70.4929 27.3919 70.647 27.3403C70.7498 27.2887 70.8011 27.2371 70.9039 27.2371C71.058 27.1855 71.1608 27.0823 71.3149 27.0308C71.4177 26.9792 71.4691 26.9276 71.5718 26.9276C71.726 26.876 71.8801 26.7728 71.9829 26.7212C72.0342 26.6697 72.137 26.6697 72.1884 26.6181C72.3939 26.5149 72.5994 26.4117 72.8049 26.3086C70.1332 25.1737 67.3587 24.2967 64.5328 23.5745C40.3844 28.3204 22.2474 49.5736 22.2474 75.1084Z" fill="url(#paint8_linear_1_55)"/>
<path opacity="0.5" d="M52.1503 30.487C26.255 30.487 5.13796 51.2759 4.57278 77.1718C4.62416 77.275 4.67554 77.4297 4.72692 77.5329C4.88106 75.0568 6.01141 70.93 7.96384 67.8348C9.24833 65.823 10.6356 64.2754 11.8687 63.1406C10.9952 66.1325 10.5328 69.3308 10.5328 72.6323C10.5328 86.6119 18.9077 98.5798 30.8792 103.841C30.4167 100.488 30.1598 97.0838 30.1598 93.576C30.1598 72.3743 38.9971 53.2362 53.1779 39.6692C53.3321 39.5144 53.5376 39.3597 53.6917 39.2049L53.7431 39.1533C53.8972 38.9986 54.0514 38.8438 54.2055 38.6891L54.2569 38.6375C54.411 38.4827 54.5652 38.328 54.7707 38.1732C54.7707 38.1732 54.7707 38.1732 54.8221 38.1216C55.5414 37.451 56.3121 36.832 57.0314 36.213C57.0314 36.213 57.0828 36.213 57.0828 36.1614C57.2369 36.0066 57.4424 35.9035 57.5966 35.7487C57.6479 35.7487 57.648 35.6971 57.6993 35.6971C57.8535 35.5424 58.0076 35.4392 58.1617 35.2844C58.2131 35.2844 58.2131 35.2328 58.2645 35.2328C58.4186 35.0781 58.6242 34.9749 58.7783 34.8202L58.8297 34.7686C59.3949 34.3043 60.0114 33.8916 60.5766 33.4274C60.5766 33.4274 60.628 33.4274 60.628 33.3758C60.7821 33.221 60.9876 33.1178 61.1418 33.0147C61.1931 32.9631 61.1931 32.9631 61.2445 32.9115C61.3987 32.8083 61.5528 32.7052 61.7069 32.602C61.7583 32.5504 61.8097 32.5504 61.8611 32.4988C62.0152 32.3956 62.1694 32.2925 62.3235 32.1893C62.3749 32.1377 62.4263 32.1377 62.4776 32.0861C62.6318 31.983 62.7859 31.8798 62.9401 31.7766C62.9914 31.725 62.9914 31.725 63.0428 31.725L63.0942 31.6735C59.549 30.8997 55.901 30.487 52.1503 30.487Z" fill="url(#paint9_linear_1_55)"/>
<path opacity="0.3" d="M11.4577 40.4946C25.5871 28.8363 44.9058 24.0388 63.8649 29.3521C65.3035 29.7648 66.6908 30.2291 68.078 30.6933C70.4929 29.4553 72.9591 28.4236 75.5281 27.495C69.0029 24.3483 61.8097 22.3881 54.1541 22.027C35.195 21.0984 17.9829 29.7132 7.24452 43.6413C5.85727 45.4468 3.49381 49.1609 2.2607 54.5258C4.72692 46.8911 9.19695 42.3516 11.4577 40.4946Z" fill="url(#paint10_linear_1_55)"/>
<path d="M72.7022 3.81732C66.2284 1.03171 58.9838 0 51.5338 0C39.0999 0 27.5395 3.76574 17.9315 10.2139L21.5281 10.7814C9.81351 19.4993 1.74691 32.8599 0 48.1808C0 48.1808 1.64415 46.1689 4.11037 45.0857C4.93245 44.7246 5.8059 44.6214 6.52521 44.5698C7.14177 44.5698 7.34729 44.2603 7.45005 44.1055C18.1884 30.2291 35.1951 21.6659 54 22.4912C54.1028 22.4912 54.1541 22.4397 54.2055 22.3881C57.0314 20.0667 60.628 18.6739 64.5328 18.6739C68.3349 18.6739 71.8287 19.9636 74.5519 22.1817C74.6032 22.2333 74.6546 22.2849 74.8088 22.2333C94.2303 19.4477 81.4367 7.58306 72.7022 3.81732Z" fill="#BAE4F1"/>
<path opacity="0.6" d="M45.0086 3.50781C35.2464 3.50781 26.1009 5.93233 18.0856 10.2655L21.5281 10.7814C9.81351 19.4993 1.74691 32.8599 0 48.1808C0 48.1808 1.64415 46.169 4.11037 45.0857C4.93245 44.7246 5.8059 44.6214 6.52521 44.5698C7.14177 44.5698 7.34729 44.2603 7.45005 44.1055C18.1884 30.2291 35.1951 21.6659 54 22.4912C54.1028 22.4912 54.1541 22.4397 54.2055 22.3881C57.0314 20.0667 60.628 18.6739 64.5328 18.6739C68.3349 18.6739 71.8287 19.9636 74.5519 22.1817C74.6032 22.2333 74.6546 22.2849 74.8088 22.2333C79.5871 21.5627 82.4129 20.3247 83.8002 18.8287C73.627 9.28538 60.0114 3.50781 45.0086 3.50781Z" fill="url(#paint11_linear_1_55)"/>
<path d="M54.6679 14.0828C30.725 14.0828 10.019 27.9077 0 48.0776C0 48.1292 0 48.1292 0 48.1808C0 48.1808 1.64415 46.169 4.11037 45.0857C4.93245 44.7246 5.8059 44.6214 6.52521 44.5698C7.14177 44.5698 7.34729 44.2603 7.45005 44.1055C18.1884 30.2291 35.1951 21.6659 54 22.4912C54.1028 22.4912 54.1541 22.4397 54.2055 22.3881C57.0314 20.0667 60.628 18.6739 64.5328 18.6739C68.3349 18.6739 71.8287 19.9636 74.5519 22.1817C74.6032 22.2333 74.6546 22.2849 74.8088 22.2333C77.7888 21.8206 79.9981 21.2016 81.5909 20.3762C73.4729 16.301 64.3273 14.0828 54.6679 14.0828Z" fill="url(#paint12_linear_1_55)"/>
</g>
<path d="M144.58 78.5V30.9H160.26C165.253 30.9 168.987 32.16 171.46 34.68C173.98 37.2 175.24 40.56 175.24 44.76V48.47C175.24 52.67 173.98 56.0533 171.46 58.62C168.987 61.14 165.253 62.4 160.26 62.4H152.98V78.5H144.58ZM160.26 38.95H152.98V54.35H160.26C162.313 54.35 163.877 53.8367 164.95 52.81C166.07 51.7833 166.63 50.3367 166.63 48.47V44.76C166.63 42.94 166.07 41.5167 164.95 40.49C163.877 39.4633 162.313 38.95 160.26 38.95ZM208.371 78.5L205.431 69.19H189.121L186.181 78.5H177.851L193.741 30.9H201.161L217.121 78.5H208.371ZM193.671 54.63L191.501 61.49H202.981L200.811 54.63L197.311 42.59L193.671 54.63ZM234.872 61V78.5H226.472V30.9H242.362C247.168 30.9 250.855 32.1367 253.422 34.61C256.035 37.0367 257.342 40.3033 257.342 44.41V47.42C257.342 50.1267 256.758 52.5067 255.592 54.56C254.425 56.6133 252.745 58.1767 250.552 59.25C254.378 65.7833 257.645 72.2 260.352 78.5H250.762C248.428 72.6667 245.652 66.8333 242.432 61H234.872ZM242.362 38.6H234.872V53.3H242.362C244.415 53.3 245.978 52.7867 247.052 51.76C248.172 50.6867 248.732 49.24 248.732 47.42V44.41C248.732 42.6367 248.172 41.2367 247.052 40.21C245.978 39.1367 244.415 38.6 242.362 38.6ZM295.868 78.5L292.928 69.19H276.618L273.678 78.5H265.348L281.238 30.9H288.658L304.618 78.5H295.868ZM281.168 54.63L278.998 61.49H290.478L288.308 54.63L284.808 42.59L281.168 54.63ZM344.102 75.42C342.935 76.12 340.999 76.9367 338.292 77.87C335.632 78.7567 332.505 79.2 328.912 79.2C324.852 79.2 321.445 78.36 318.692 76.68C315.985 75 313.932 72.69 312.532 69.75C311.132 66.81 310.432 63.45 310.432 59.67V49.66C310.432 45.7867 311.132 42.4033 312.532 39.51C313.932 36.57 316.009 34.2833 318.762 32.65C321.562 31.0167 325.062 30.2 329.262 30.2C331.315 30.2 333.439 30.4333 335.632 30.9C337.825 31.32 340.229 32.1133 342.842 33.28L340.252 40.63C337.965 39.7433 335.982 39.1133 334.302 38.74C332.669 38.32 331.035 38.11 329.402 38.11C325.762 38.11 323.125 39.16 321.492 41.26C319.859 43.3133 319.042 46.1133 319.042 49.66V59.67C319.042 63.03 319.859 65.7833 321.492 67.93C323.172 70.0767 325.785 71.15 329.332 71.15C330.405 71.15 331.572 71.0567 332.832 70.87C334.092 70.6833 335.305 70.4267 336.472 70.1V59.67H328.772V52.32H344.102V75.42ZM383.62 70.45V78.5H356.18V30.9H364.58V70.45H383.62ZM401.458 78.5H393.058V30.9H401.458V78.5ZM415.991 78.5V30.9H432.091C437.785 30.9 442.125 32.4867 445.111 35.66C448.098 38.8333 449.591 43.5 449.591 49.66V59.67C449.591 65.8767 448.098 70.5667 445.111 73.74C442.125 76.9133 437.785 78.5 432.091 78.5H415.991ZM431.741 38.95H424.391V70.45H431.741C435.055 70.45 437.411 69.6333 438.811 68C440.258 66.3667 440.981 63.59 440.981 59.67V49.66C440.981 45.7867 440.258 43.0333 438.811 41.4C437.411 39.7667 435.055 38.95 431.741 38.95ZM470.498 78.5H462.098V30.9H470.498V78.5ZM485.032 78.5V30.9H492.732C496.418 35.7067 499.918 40.7933 503.232 46.16C506.545 51.48 509.555 56.9633 512.262 62.61L511.632 48.4V30.9H519.682V78.5H511.982C508.995 72.62 505.892 66.7167 502.672 60.79C499.498 54.8167 496.115 49.1933 492.522 43.92L493.082 60.3V78.5H485.032ZM565.715 75.42C564.548 76.12 562.611 76.9367 559.905 77.87C557.245 78.7567 554.118 79.2 550.525 79.2C546.465 79.2 543.058 78.36 540.305 76.68C537.598 75 535.545 72.69 534.145 69.75C532.745 66.81 532.045 63.45 532.045 59.67V49.66C532.045 45.7867 532.745 42.4033 534.145 39.51C535.545 36.57 537.621 34.2833 540.375 32.65C543.175 31.0167 546.675 30.2 550.875 30.2C552.928 30.2 555.051 30.4333 557.245 30.9C559.438 31.32 561.841 32.1133 564.455 33.28L561.865 40.63C559.578 39.7433 557.595 39.1133 555.915 38.74C554.281 38.32 552.648 38.11 551.015 38.11C547.375 38.11 544.738 39.16 543.105 41.26C541.471 43.3133 540.655 46.1133 540.655 49.66V59.67C540.655 63.03 541.471 65.7833 543.105 67.93C544.785 70.0767 547.398 71.15 550.945 71.15C552.018 71.15 553.185 71.0567 554.445 70.87C555.705 70.6833 556.918 70.4267 558.085 70.1V59.67H550.385V52.32H565.715V75.42Z" fill="#002431"/>
<defs>
<linearGradient id="paint0_linear_1_55" x1="102.684" y1="71.7789" x2="60.7058" y2="64.6059" gradientUnits="userSpaceOnUse">
<stop offset="0.1555" stop-color="#72C3ED" stop-opacity="0"/>
<stop offset="1" stop-color="#142E54"/>
</linearGradient>
<linearGradient id="paint1_linear_1_55" x1="67.7096" y1="61.5136" x2="107.328" y2="54.5557" gradientUnits="userSpaceOnUse">
<stop stop-color="#FAFBFB" stop-opacity="0"/>
<stop offset="0.0850399" stop-color="#EBF3F6" stop-opacity="0.0854995"/>
<stop offset="0.5243" stop-color="#9FCDDD" stop-opacity="0.5272"/>
<stop offset="0.8384" stop-color="#70B5CE" stop-opacity="0.8429"/>
<stop offset="0.9946" stop-color="#5EACC8"/>
</linearGradient>
<linearGradient id="paint2_linear_1_55" x1="54.0951" y1="73.3839" x2="22.0518" y2="58.476" gradientUnits="userSpaceOnUse">
<stop offset="0.00537634" stop-color="#72C3ED" stop-opacity="0"/>
<stop offset="1" stop-color="#1E3958"/>
</linearGradient>
<linearGradient id="paint3_linear_1_55" x1="68.5946" y1="37.2674" x2="80.1283" y2="102.417" gradientUnits="userSpaceOnUse">
<stop offset="0.00537634" stop-color="#72C3ED" stop-opacity="0"/>
<stop offset="1" stop-color="#4490CD"/>
</linearGradient>
<linearGradient id="paint4_linear_1_55" x1="25.3402" y1="64.9319" x2="76.2219" y2="84.4933" gradientUnits="userSpaceOnUse">
<stop stop-color="#FAFBFB" stop-opacity="0"/>
<stop offset="0.0505652" stop-color="#EAF2F7" stop-opacity="0.0505652"/>
<stop offset="0.2241" stop-color="#B8D4EA" stop-opacity="0.2241"/>
<stop offset="0.3955" stop-color="#8EBCE0" stop-opacity="0.3955"/>
<stop offset="0.5616" stop-color="#6EA9D8" stop-opacity="0.5616"/>
<stop offset="0.7208" stop-color="#579BD2" stop-opacity="0.7208"/>
<stop offset="0.8703" stop-color="#4993CE" stop-opacity="0.8703"/>
<stop offset="1" stop-color="#4490CD"/>
</linearGradient>
<linearGradient id="paint5_linear_1_55" x1="71.6825" y1="34.579" x2="102.766" y2="29.1201" gradientUnits="userSpaceOnUse">
<stop stop-color="white" stop-opacity="0"/>
<stop offset="1" stop-color="white"/>
</linearGradient>
<linearGradient id="paint6_linear_1_55" x1="91.5918" y1="53.7058" x2="64.2996" y2="26.5226" gradientUnits="userSpaceOnUse">
<stop offset="0.1774" stop-color="white" stop-opacity="0"/>
<stop offset="1" stop-color="#F6921E"/>
</linearGradient>
<linearGradient id="paint7_linear_1_55" x1="35.7935" y1="40.8032" x2="31.5767" y2="22.8901" gradientUnits="userSpaceOnUse">
<stop offset="0.00537634" stop-color="#72C3ED" stop-opacity="0"/>
<stop offset="1" stop-color="#3C90CE"/>
</linearGradient>
<linearGradient id="paint8_linear_1_55" x1="45.2414" y1="35.1536" x2="54.4584" y2="105.963" gradientUnits="userSpaceOnUse">
<stop stop-color="#72C3ED" stop-opacity="0"/>
<stop offset="0.0399803" stop-color="#6CBDE9" stop-opacity="0.0399803"/>
<stop offset="0.2022" stop-color="#5AA9DD" stop-opacity="0.2022"/>
<stop offset="0.3876" stop-color="#4E9BD4" stop-opacity="0.3876"/>
<stop offset="0.6142" stop-color="#4692CF" stop-opacity="0.6142"/>
<stop offset="1" stop-color="#4490CD"/>
</linearGradient>
<linearGradient id="paint9_linear_1_55" x1="33.2381" y1="53.863" x2="14.6566" y2="91.4788" gradientUnits="userSpaceOnUse">
<stop offset="0.0281483" stop-color="#72C3ED" stop-opacity="0"/>
<stop offset="1" stop-color="#4490CD"/>
</linearGradient>
<linearGradient id="paint10_linear_1_55" x1="50.4191" y1="52.6597" x2="23.9126" y2="26.2589" gradientUnits="userSpaceOnUse">
<stop stop-color="#FAFBFB" stop-opacity="0"/>
<stop offset="1" stop-color="#4490CD"/>
</linearGradient>
<linearGradient id="paint11_linear_1_55" x1="83.8436" y1="25.8309" x2="0" y2="25.8309" gradientUnits="userSpaceOnUse">
<stop stop-color="#BAE4F3" stop-opacity="0"/>
<stop offset="0.1874" stop-color="#ACDEF2" stop-opacity="0.1874"/>
<stop offset="1" stop-color="#72C3ED"/>
</linearGradient>
<linearGradient id="paint12_linear_1_55" x1="81.6047" y1="31.1165" x2="0" y2="31.1165" gradientUnits="userSpaceOnUse">
<stop offset="0.0107527" stop-color="#BAE4F3" stop-opacity="0"/>
<stop offset="1" stop-color="#72C3ED"/>
</linearGradient>
<clipPath id="clip0_1_55">
<rect width="108" height="109" fill="white"/>
</clipPath>
</defs>
</svg>
