<svg width="64" height="64" viewBox="0 0 64 64" fill="none" xmlns="http://www.w3.org/2000/svg">
<path d="M55 12H9C7.89543 12 7 12.8954 7 14V44C7 45.1046 7.89543 46 9 46H55C56.1046 46 57 45.1046 57 44V14C57 12.8954 56.1046 12 55 12Z" fill="#00C5A1"/>
<path d="M36.7202 46H27.27V52H36.7202V46Z" fill="#00C5A1"/>
<path d="M22.29 52H41.71" stroke="#0B0B0B" stroke-miterlimit="10" stroke-linecap="round"/>
<path d="M27.27 46H36.7202" stroke="#0B0B0B" stroke-miterlimit="10"/>
<path d="M9 12H55C55.5304 12 56.0395 12.2109 56.4146 12.5859C56.7896 12.961 57 13.4696 57 14V40H7V14C7 13.4696 7.21086 12.961 7.58594 12.5859C7.96101 12.2109 8.46957 12 9 12Z" fill="#3F7DFF"/>
<path d="M37.77 31.7197L32.9902 26.9395" stroke="#0B0B0B" stroke-miterlimit="10" stroke-linecap="round"/>
<path d="M41.1804 36.6106C40.7841 36.6129 40.403 36.4581 40.1204 36.1804L36.7302 32.7805C36.4653 32.4962 36.321 32.1198 36.3279 31.7312C36.3347 31.3426 36.4925 30.9718 36.7673 30.697C37.0421 30.4222 37.4129 30.2649 37.8015 30.258C38.1901 30.2512 38.566 30.3954 38.8503 30.6604L42.2405 34.0505C42.3811 34.19 42.4924 34.356 42.5686 34.5388C42.6447 34.7216 42.6843 34.9175 42.6843 35.1155C42.6843 35.3135 42.6447 35.5093 42.5686 35.6921C42.4924 35.8749 42.3811 36.041 42.2405 36.1804C42.1012 36.3188 41.9356 36.4284 41.7537 36.5022C41.5717 36.576 41.3768 36.6128 41.1804 36.6106V36.6106Z" fill="#BDEA09"/>
<path d="M29.8804 31.0493C33.8679 31.0493 37.1001 27.8171 37.1001 23.8296C37.1001 19.8421 33.8679 16.6094 29.8804 16.6094C25.8929 16.6094 22.6602 19.8421 22.6602 23.8296C22.6602 27.8171 25.8929 31.0493 29.8804 31.0493Z" fill="white"/>
<path d="M29.8804 28.9395C32.7025 28.9395 34.9902 26.6518 34.9902 23.8296C34.9902 21.0074 32.7025 18.7197 29.8804 18.7197C27.0582 18.7197 24.77 21.0074 24.77 23.8296C24.77 26.6518 27.0582 28.9395 29.8804 28.9395Z" stroke="#0B0B0B" stroke-miterlimit="10" stroke-linecap="round"/>
</svg>
