<svg width="16" height="19" viewBox="0 0 16 19" fill="none" xmlns="http://www.w3.org/2000/svg">
<rect width="7" height="6" transform="translate(5 5)" fill="white"/>
<path d="M13.6571 2.30402C10.5331 -0.768982 5.46814 -0.768982 2.34414 2.30402C1.60242 3.02865 1.01305 3.89425 0.610657 4.84993C0.208265 5.8056 0.000976563 6.83208 0.000976562 7.86902C0.000976562 8.90596 0.208265 9.93243 0.610657 10.8881C1.01305 11.8438 1.60242 12.7094 2.34414 13.434L8.00014 18.999L13.6571 13.434C14.3989 12.7094 14.9882 11.8438 15.3906 10.8881C15.793 9.93243 16.0003 8.90596 16.0003 7.86902C16.0003 6.83208 15.793 5.8056 15.3906 4.84993C14.9882 3.89425 14.3989 3.02865 13.6571 2.30402ZM8.00014 10.499C7.33214 10.499 6.70514 10.239 6.23214 9.76702C5.76389 9.29777 5.50092 8.66193 5.50092 7.99902C5.50092 7.33611 5.76389 6.70027 6.23214 6.23102C6.70414 5.75902 7.33214 5.49902 8.00014 5.49902C8.66814 5.49902 9.29614 5.75902 9.76814 6.23102C10.2364 6.70027 10.4994 7.33611 10.4994 7.99902C10.4994 8.66193 10.2364 9.29777 9.76814 9.76702C9.29614 10.239 8.66814 10.499 8.00014 10.499Z" fill="#2563EB"/>
</svg>
