<svg width="29" height="29" viewBox="0 0 29 29" fill="none" xmlns="http://www.w3.org/2000/svg">
<path d="M19.4203 0.572266H8.87857C4.02705 0.572266 0.09375 4.49817 0.09375 9.3406V19.8626C0.09375 24.705 4.02705 28.6309 8.87857 28.6309H19.4203C24.2718 28.6309 28.2051 24.705 28.2051 19.8626V9.3406C28.2051 4.49817 24.2718 0.572266 19.4203 0.572266ZM20.8519 9.69525C20.8116 10.2633 20.4863 12.25 20.1609 14.3985L19.1455 20.7647C19.1455 20.7647 19.0639 21.6977 18.374 21.8596C17.6829 22.0214 16.5457 21.2915 16.3423 21.1297C16.1801 21.008 13.2952 19.1832 12.2396 18.2914C11.9556 18.0481 11.6302 17.5615 12.2799 16.9934C13.7424 15.6552 15.4891 13.9933 16.5458 12.9387C17.0333 12.4521 17.5208 11.317 15.4891 12.6954L9.76066 16.547C9.76066 16.547 9.11094 16.9522 7.89212 16.5872C6.6733 16.2223 5.25205 15.7357 5.25205 15.7357C5.25205 15.7357 4.27697 15.1274 5.94303 14.4789L15.4085 10.586C16.3433 10.1808 19.5112 8.88285 19.5112 8.88285C19.5112 8.88285 20.9738 8.31685 20.8519 9.69525Z" fill="#5E6774"/>
</svg>
