<svg xmlns="http://www.w3.org/2000/svg" xmlns:xlink="http://www.w3.org/1999/xlink" viewBox="0,0,256,256" width="80px" height="80px"><g fill="#8f8f8f" fill-rule="nonzero" stroke="none" stroke-width="1" stroke-linecap="butt" stroke-linejoin="miter" stroke-miterlimit="10" stroke-dasharray="" stroke-dashoffset="0" font-family="none" font-weight="none" font-size="none" text-anchor="none" style="mix-blend-mode: normal"><g transform="scale(3.2,3.2)"><path d="M18,10c-4.406,0 -8,3.594 -8,8v44c0,4.406 3.594,8 8,8h44c4.406,0 8,-3.594 8,-8v-44c0,-4.406 -3.594,-8 -8,-8zM18,12h44c3.326,0 6,2.674 6,6v44c0,3.326 -2.674,6 -6,6h-44c-3.326,0 -6,-2.674 -6,-6v-44c0,-3.326 2.674,-6 6,-6zM18,15c-0.138,0 -0.26905,0.0275 -0.38867,0.07813c-0.11962,0.05063 -0.22786,0.12434 -0.31836,0.21484c-0.181,0.181 -0.29297,0.43103 -0.29297,0.70703c0,0.138 0.0275,0.26905 0.07813,0.38867c0.10125,0.23925 0.29395,0.43195 0.5332,0.5332c0.11962,0.05063 0.25067,0.07813 0.38867,0.07813c0.552,0 1,-0.448 1,-1c0,-0.552 -0.448,-1 -1,-1zM22,15c-0.138,0 -0.26905,0.0275 -0.38867,0.07813c-0.11962,0.05063 -0.22786,0.12434 -0.31836,0.21484c-0.181,0.181 -0.29297,0.43103 -0.29297,0.70703c0,0.138 0.0275,0.26905 0.07813,0.38867c0.10125,0.23925 0.29395,0.43195 0.5332,0.5332c0.11962,0.05063 0.25067,0.07813 0.38867,0.07813c0.552,0 1,-0.448 1,-1c0,-0.552 -0.448,-1 -1,-1zM26,15c-0.414,0 -0.77,0.25245 -0.92187,0.61133c-0.05063,0.11962 -0.07812,0.25067 -0.07812,0.38867c0,0.138 0.0275,0.26905 0.07813,0.38867c0.05063,0.11962 0.12434,0.22786 0.21484,0.31836c0.181,0.181 0.43103,0.29297 0.70703,0.29297c0.552,0 1,-0.448 1,-1c0,-0.552 -0.448,-1 -1,-1zM30,15c-0.138,0 -0.26905,0.0275 -0.38867,0.07813c-0.23925,0.10125 -0.43195,0.29395 -0.5332,0.5332c-0.05063,0.11962 -0.07812,0.25067 -0.07812,0.38867c0,0.138 0.0275,0.26905 0.07813,0.38867c0.15188,0.35888 0.50787,0.61133 0.92188,0.61133c0.138,0 0.26905,-0.0275 0.38867,-0.07812c0.35888,-0.15188 0.61133,-0.50787 0.61133,-0.92187c0,-0.552 -0.448,-1 -1,-1zM34,15c-0.138,0 -0.26905,0.0275 -0.38867,0.07813c-0.11962,0.05063 -0.22786,0.12434 -0.31836,0.21484c-0.181,0.181 -0.29297,0.43103 -0.29297,0.70703c0,0.414 0.25245,0.77 0.61133,0.92188c0.11962,0.05063 0.25067,0.07813 0.38867,0.07813c0.552,0 1,-0.448 1,-1c0,-0.552 -0.448,-1 -1,-1zM38,15c-0.138,0 -0.26905,0.0275 -0.38867,0.07813c-0.11962,0.05063 -0.22786,0.12434 -0.31836,0.21484c-0.0905,0.0905 -0.16422,0.19873 -0.21484,0.31836c-0.05062,0.11962 -0.07812,0.25067 -0.07812,0.38867c0,0.552 0.448,1 1,1c0.552,0 1,-0.448 1,-1c0,-0.552 -0.448,-1 -1,-1zM42,15c-0.138,0 -0.26905,0.0275 -0.38867,0.07813c-0.35887,0.15188 -0.61133,0.50788 -0.61133,0.92188c0,0.276 0.11197,0.52603 0.29297,0.70703c0.0905,0.0905 0.19873,0.16422 0.31836,0.21484c0.11962,0.05063 0.25067,0.07813 0.38867,0.07813c0.552,0 1,-0.448 1,-1c0,-0.552 -0.448,-1 -1,-1zM46,15c-0.276,0 -0.52603,0.11197 -0.70703,0.29297c-0.181,0.181 -0.29297,0.43103 -0.29297,0.70703c0,0.138 0.0275,0.26905 0.07813,0.38867c0.15187,0.35888 0.50787,0.61133 0.92188,0.61133c0.552,0 1,-0.448 1,-1c0,-0.552 -0.448,-1 -1,-1zM50,15c-0.414,0 -0.77,0.25245 -0.92187,0.61133c-0.05062,0.11962 -0.07812,0.25067 -0.07812,0.38867c0,0.138 0.0275,0.26905 0.07813,0.38867c0.05062,0.11962 0.12434,0.22786 0.21484,0.31836c0.0905,0.0905 0.19873,0.16422 0.31836,0.21484c0.11962,0.05063 0.25067,0.07813 0.38867,0.07813c0.552,0 1,-0.448 1,-1c0,-0.552 -0.448,-1 -1,-1zM54,15c-0.138,0 -0.26905,0.0275 -0.38867,0.07813c-0.11962,0.05063 -0.22786,0.12434 -0.31836,0.21484c-0.181,0.181 -0.29297,0.43103 -0.29297,0.70703c0,0.276 0.11197,0.52603 0.29297,0.70703c0.181,0.181 0.43103,0.29297 0.70703,0.29297c0.138,0 0.26905,-0.0275 0.38867,-0.07812c0.35887,-0.15188 0.61133,-0.50787 0.61133,-0.92187c0,-0.552 -0.448,-1 -1,-1zM58,15c-0.276,0 -0.52603,0.11197 -0.70703,0.29297c-0.0905,0.0905 -0.16422,0.19873 -0.21484,0.31836c-0.05062,0.11962 -0.07812,0.25067 -0.07812,0.38867c0,0.138 0.0275,0.26905 0.07813,0.38867c0.05062,0.11962 0.12434,0.22786 0.21484,0.31836c0.181,0.181 0.43103,0.29297 0.70703,0.29297c0.552,0 1,-0.448 1,-1c0,-0.552 -0.448,-1 -1,-1zM62,15c-0.138,0 -0.26905,0.0275 -0.38867,0.07813c-0.11962,0.05063 -0.22786,0.12434 -0.31836,0.21484c-0.181,0.181 -0.29297,0.43103 -0.29297,0.70703c0,0.276 0.11197,0.52603 0.29297,0.70703c0.181,0.181 0.43103,0.29297 0.70703,0.29297c0.552,0 1,-0.448 1,-1c0,-0.552 -0.448,-1 -1,-1zM24,23l12.94336,18.28516l-12.94336,15.71484h3l11.33008,-13.75586l9.73633,13.75586h8.93359l-13.88281,-19.57031l11.88281,-14.42969h-3l-10.27148,12.47266l-8.84766,-12.47266zM27.86523,25h3.98242l21.28125,30h-4.02734zM18,63c-0.138,0 -0.26905,0.0275 -0.38867,0.07813c-0.11962,0.05062 -0.22786,0.12434 -0.31836,0.21484c-0.181,0.181 -0.29297,0.43103 -0.29297,0.70703c0,0.276 0.11197,0.52603 0.29297,0.70703c0.0905,0.0905 0.19873,0.16422 0.31836,0.21484c0.11962,0.05062 0.25067,0.07813 0.38867,0.07813c0.138,0 0.26905,-0.0275 0.38867,-0.07812c0.35888,-0.15188 0.61133,-0.50787 0.61133,-0.92187c0,-0.552 -0.448,-1 -1,-1zM22,63c-0.138,0 -0.26905,0.0275 -0.38867,0.07813c-0.11962,0.05062 -0.22786,0.12434 -0.31836,0.21484c-0.0905,0.0905 -0.16422,0.19873 -0.21484,0.31836c-0.05063,0.11962 -0.07812,0.25067 -0.07812,0.38867c0,0.276 0.11197,0.52603 0.29297,0.70703c0.181,0.181 0.43103,0.29297 0.70703,0.29297c0.552,0 1,-0.448 1,-1c0,-0.552 -0.448,-1 -1,-1zM26,63c-0.276,0 -0.52603,0.11197 -0.70703,0.29297c-0.0905,0.0905 -0.16422,0.19873 -0.21484,0.31836c-0.05063,0.11962 -0.07812,0.25067 -0.07812,0.38867c0,0.276 0.11197,0.52603 0.29297,0.70703c0.0905,0.0905 0.19873,0.16422 0.31836,0.21484c0.11962,0.05062 0.25067,0.07813 0.38867,0.07813c0.552,0 1,-0.448 1,-1c0,-0.552 -0.448,-1 -1,-1zM30,63c-0.138,0 -0.26905,0.0275 -0.38867,0.07813c-0.11962,0.05062 -0.22786,0.12434 -0.31836,0.21484c-0.0905,0.0905 -0.16422,0.19873 -0.21484,0.31836c-0.05063,0.11962 -0.07812,0.25067 -0.07812,0.38867c0,0.552 0.448,1 1,1c0.552,0 1,-0.448 1,-1c0,-0.552 -0.448,-1 -1,-1zM34,63c-0.138,0 -0.26905,0.0275 -0.38867,0.07813c-0.23925,0.10125 -0.43195,0.29395 -0.5332,0.5332c-0.05062,0.11962 -0.07812,0.25067 -0.07812,0.38867c0,0.276 0.11197,0.52603 0.29297,0.70703c0.181,0.181 0.43103,0.29297 0.70703,0.29297c0.552,0 1,-0.448 1,-1c0,-0.552 -0.448,-1 -1,-1zM38,63c-0.276,0 -0.52603,0.11197 -0.70703,0.29297c-0.0905,0.0905 -0.16422,0.19873 -0.21484,0.31836c-0.05062,0.11962 -0.07812,0.25067 -0.07812,0.38867c0,0.276 0.11197,0.52603 0.29297,0.70703c0.0905,0.0905 0.19873,0.16422 0.31836,0.21484c0.11962,0.05062 0.25067,0.07813 0.38867,0.07813c0.552,0 1,-0.448 1,-1c0,-0.552 -0.448,-1 -1,-1zM42,63c-0.276,0 -0.52603,0.11197 -0.70703,0.29297c-0.0905,0.0905 -0.16422,0.19873 -0.21484,0.31836c-0.05062,0.11962 -0.07812,0.25067 -0.07812,0.38867c0,0.138 0.0275,0.26905 0.07813,0.38867c0.05062,0.11962 0.12434,0.22786 0.21484,0.31836c0.181,0.181 0.43103,0.29297 0.70703,0.29297c0.138,0 0.26905,-0.0275 0.38867,-0.07812c0.35887,-0.15188 0.61133,-0.50787 0.61133,-0.92187c0,-0.552 -0.448,-1 -1,-1zM46,63c-0.138,0 -0.26905,0.0275 -0.38867,0.07813c-0.11962,0.05062 -0.22786,0.12434 -0.31836,0.21484c-0.181,0.181 -0.29297,0.43103 -0.29297,0.70703c0,0.276 0.11197,0.52603 0.29297,0.70703c0.181,0.181 0.43103,0.29297 0.70703,0.29297c0.138,0 0.26905,-0.0275 0.38867,-0.07812c0.35887,-0.15188 0.61133,-0.50787 0.61133,-0.92187c0,-0.552 -0.448,-1 -1,-1zM50,63c-0.138,0 -0.26905,0.0275 -0.38867,0.07813c-0.11962,0.05062 -0.22786,0.12434 -0.31836,0.21484c-0.181,0.181 -0.29297,0.43103 -0.29297,0.70703c0,0.138 0.0275,0.26905 0.07813,0.38867c0.15187,0.35887 0.50787,0.61133 0.92188,0.61133c0.552,0 1,-0.448 1,-1c0,-0.552 -0.448,-1 -1,-1zM54,63c-0.138,0 -0.26905,0.0275 -0.38867,0.07813c-0.11962,0.05062 -0.22786,0.12434 -0.31836,0.21484c-0.0905,0.0905 -0.16422,0.19873 -0.21484,0.31836c-0.05062,0.11962 -0.07812,0.25067 -0.07812,0.38867c0,0.552 0.448,1 1,1c0.552,0 1,-0.448 1,-1c0,-0.552 -0.448,-1 -1,-1zM58,63c-0.138,0 -0.26905,0.0275 -0.38867,0.07813c-0.11962,0.05062 -0.22786,0.12434 -0.31836,0.21484c-0.0905,0.0905 -0.16422,0.19873 -0.21484,0.31836c-0.05062,0.11962 -0.07812,0.25067 -0.07812,0.38867c0,0.276 0.11197,0.52603 0.29297,0.70703c0.0905,0.0905 0.19873,0.16422 0.31836,0.21484c0.11962,0.05062 0.25067,0.07813 0.38867,0.07813c0.138,0 0.26905,-0.0275 0.38867,-0.07812c0.35887,-0.15188 0.61133,-0.50787 0.61133,-0.92187c0,-0.552 -0.448,-1 -1,-1zM62,63c-0.276,0 -0.52603,0.11197 -0.70703,0.29297c-0.0905,0.0905 -0.16422,0.19873 -0.21484,0.31836c-0.05062,0.11962 -0.07812,0.25067 -0.07812,0.38867c0,0.138 0.0275,0.26905 0.07813,0.38867c0.05062,0.11962 0.12434,0.22786 0.21484,0.31836c0.0905,0.0905 0.19873,0.16422 0.31836,0.21484c0.11962,0.05062 0.25067,0.07813 0.38867,0.07813c0.138,0 0.26905,-0.0275 0.38867,-0.07812c0.35887,-0.15188 0.61133,-0.50787 0.61133,-0.92187c0,-0.552 -0.448,-1 -1,-1z"></path></g></g></svg>