<svg width="44" height="45" viewBox="0 0 44 45" fill="none" xmlns="http://www.w3.org/2000/svg">
<path d="M21.8478 2.67995C11.0826 2.67995 2.36244 11.5685 2.36244 22.4772C2.36244 33.3858 11.0826 42.2744 21.8478 42.2744C32.5846 42.2744 41.3331 33.3858 41.3331 22.4772C41.3331 11.5685 32.5846 2.67995 21.8478 2.67995ZM21.8478 44.6697C9.80437 44.6697 0.00488281 34.7133 0.00488281 22.4772C0.00488281 10.241 9.80437 0.284668 21.8478 0.284668C33.8912 0.284668 43.6623 10.241 43.6623 22.4772C43.6623 34.7133 33.8912 44.6697 21.8478 44.6697Z" fill="#8F8F8F"/>
<path d="M25.8611 22.835L20.1332 26.0434C19.8805 26.158 19.6558 25.9861 19.6558 25.6996V19.1109C19.6558 18.8244 19.8805 18.6239 20.1332 18.7672L25.9173 22.1474C26.17 22.2907 26.1138 22.6917 25.8611 22.835ZM34.9303 19.025C34.9303 15.9025 32.4594 13.3816 29.3989 13.3816H15.0229C11.9624 13.3816 9.4635 15.9025 9.4635 19.025V25.9002C9.4635 29.0226 11.9624 31.5722 15.0229 31.5722H29.3989C32.4594 31.5722 34.9303 29.0226 34.9303 25.9002V19.025Z" fill="#8F8F8F"/>
</svg>
