<svg xmlns="http://www.w3.org/2000/svg" width="30" height="104" viewBox="0 0 30 104" fill="none">
    <path fill-rule="evenodd" clip-rule="evenodd" d="M30 8C30 3.58172 26.4183 0 22 0H8C3.58172 0 0 3.58172 0 8V32C0 36.4183 3.9499 39.8344 7.42042 42.5687C10.2094 44.766 12 48.1739 12 52C12 55.8261 10.2094 59.234 7.42042 61.4313C3.94989 64.1656 0 67.5817 0 72V96C0 100.418 3.58172 104 8 104H22C26.4183 104 30 100.418 30 96V8Z" fill="#D9D9D9"/>
    <path fill-rule="evenodd" clip-rule="evenodd" d="M30 8C30 3.58172 26.4183 0 22 0H8C3.58172 0 0 3.58172 0 8V32C0 36.4183 3.9499 39.8344 7.42042 42.5687C10.2094 44.766 12 48.1739 12 52C12 55.8261 10.2094 59.234 7.42042 61.4313C3.94989 64.1656 0 67.5817 0 72V96C0 100.418 3.58172 104 8 104H22C26.4183 104 30 100.418 30 96V8Z" fill="#DC153D"/>
</svg>